<svg xmlns="http://www.w3.org/2000/svg" viewBox="0 0 512 512"><defs><radialGradient id="in_icon_gradient" cx="179.92" cy="420.42" r="47.72" gradientTransform="matrix(14.22 0 0 -14.22 -2408.05 6528.77)" gradientUnits="userSpaceOnUse"><stop offset=".1" stop-color="#ffd87a"/><stop offset=".14" stop-color="#fcce78"/><stop offset=".23" stop-color="#f5b471"/><stop offset=".34" stop-color="#eb8d65"/><stop offset=".45" stop-color="#e36058"/><stop offset=".68" stop-color="#cd3694"/><stop offset="1" stop-color="#6668b0"/></radialGradient></defs><path fill="url(#in_icon_gradient)" d="M512,395.1A116.85,116.85,0,0,1,395.1,512H116.9A116.85,116.85,0,0,1,0,395.1V117A117,117,0,0,1,117,0H393.3A118.64,118.64,0,0,1,512,118.7Z"/><path fill="#fff" d="M327.2,70.6H184.8A114.33,114.33,0,0,0,70.5,184.9V327.2A114.18,114.18,0,0,0,184.8,441.4H327.1A114.16,114.16,0,0,0,441.3,327.2V184.9A114,114,0,0,0,327.2,70.6Zm78.6,242.9a92.27,92.27,0,0,1-92.3,92.3h-115a92.27,92.27,0,0,1-92.3-92.3v-115a92.27,92.27,0,0,1,92.3-92.3h115a92.33,92.33,0,0,1,92.3,92.3Z"/><path fill="#fff" d="M261,159a97.7,97.7,0,1,0,97.7,97.7A97.65,97.65,0,0,0,261,159Zm0,156.4a58.8,58.8,0,1,1,58.8-58.8A58.77,58.77,0,0,1,261,315.4Z"/><path fill="#fff" d="M376.7,157.5a24.8,24.8,0,1,1-24.8-24.9A24.8,24.8,0,0,1,376.7,157.5Z"/></svg>