<svg xmlns="http://www.w3.org/2000/svg" viewBox="0 0 16.29 24"><path d="M8.15,0A8.15,8.15,0,0,0,0,8.15c0,1.8,1.06,4.55,3.34,8.64C4.9,19.57,6.45,21.93,6.52,22l1.12,1.7a.61.61,0,0,0,1,0L9.77,22c.06-.1,1.6-2.43,3.17-5.25,2.28-4.09,3.34-6.83,3.34-8.64A8.15,8.15,0,0,0,8.15,0Zm3.74,16.19C10.33,19,8.82,21.26,8.76,21.36l-.61.93-.61-.93c-.06-.1-1.59-2.42-3.12-5.17-2.12-3.79-3.19-6.5-3.19-8a6.92,6.92,0,0,1,13.85,0C15.07,9.69,14,12.4,11.88,16.19Z"/><path d="M8.15,3.58a4.52,4.52,0,1,0,4.52,4.52A4.52,4.52,0,0,0,8.15,3.58Zm0,7.81a3.3,3.3,0,1,1,3.3-3.3A3.3,3.3,0,0,1,8.15,11.39Z"/></svg>