<svg xmlns="http://www.w3.org/2000/svg" viewBox="0 0 36 36"><rect fill="#5eaade" width="36" height="36" rx="4.79" ry="4.79"/><path fill="#fff" d="M22,7.25h.79s.07,0,.1,0H23c0,.07.05,0,.08,0l.4.07A5.18,5.18,0,0,1,26.16,8.8a.17.17,0,0,0,.17.06A10.61,10.61,0,0,0,28.86,8l.71-.36a5.2,5.2,0,0,1-.88,1.62,5.65,5.65,0,0,1-1.37,1.22,10.46,10.46,0,0,0,3-.8l-.12.17a10.44,10.44,0,0,1-2.4,2.44.2.2,0,0,0-.09.19c0,.32,0,.64,0,1a13.76,13.76,0,0,1-.3,2.49,15.36,15.36,0,0,1-1.78,4.62,14.81,14.81,0,0,1-3,3.69,14,14,0,0,1-3.71,2.33,14.59,14.59,0,0,1-3.51,1c-.46.07-.91.13-1.37.16,0,0-.1,0-.11,0h-.2a.13.13,0,0,0-.15,0H12.06s-.07,0-.1,0h-.24a.23.23,0,0,0-.13,0A14.74,14.74,0,0,1,9,27.28a15,15,0,0,1-3.81-1.56l-.49-.3a10.72,10.72,0,0,0,7.75-2.14,5.25,5.25,0,0,1-4.88-3.6,5.26,5.26,0,0,0,2.3-.09,5.27,5.27,0,0,1-3-1.84,5.1,5.1,0,0,1-1.16-3.31,5.16,5.16,0,0,0,1.13.46,5,5,0,0,0,1.22.19A5.14,5.14,0,0,1,6.51,8.21a14.19,14.19,0,0,0,1,1.09,14.9,14.9,0,0,0,3.21,2.42,15,15,0,0,0,6.51,1.89c.07,0,.09,0,.07-.08a4.13,4.13,0,0,1-.11-.77A5,5,0,0,1,18,9.63a5.16,5.16,0,0,1,3.72-2.34s.09,0,.08,0h.13s.05,0,.08,0Z"/></svg>