<svg xmlns="http://www.w3.org/2000/svg" viewBox="0 0 23 23" fill="none"><path d="M4.88839 18.7455C5.05804 18.5759 5.14286 18.375 5.14286 18.1429C5.14286 17.9107 5.05804 17.7098 4.88839 17.5402C4.71875 17.3705 4.51786 17.2857 4.28571 17.2857C4.05357 17.2857 3.85268 17.3705 3.68304 17.5402C3.51339 17.7098 3.42857 17.9107 3.42857 18.1429C3.42857 18.375 3.51339 18.5759 3.68304 18.7455C3.85268 18.9152 4.05357 19 4.28571 19C4.51786 19 4.71875 18.9152 4.88839 18.7455ZM13.7679 12.5179L4.63393 21.6518C4.30357 21.9821 3.90179 22.1473 3.42857 22.1473C2.96429 22.1473 2.55804 21.9821 2.20982 21.6518L0.790179 20.2054C0.450893 19.8839 0.28125 19.4821 0.28125 19C0.28125 18.5268 0.450893 18.1205 0.790179 17.7812L9.91071 8.66071C10.2589 9.53571 10.7679 10.3125 11.4375 10.9911C12.1161 11.6607 12.8929 12.1696 13.7679 12.5179ZM22.2589 6.69196C22.2589 7.04018 22.1563 7.51339 21.9509 8.11161C21.5313 9.30804 20.7946 10.2812 19.7411 11.0312C18.6964 11.7723 17.5446 12.1429 16.2857 12.1429C14.6339 12.1429 13.2188 11.558 12.0402 10.3884C10.8705 9.20982 10.2857 7.79464 10.2857 6.14286C10.2857 4.49107 10.8705 3.08036 12.0402 1.91071C13.2188 0.732142 14.6339 0.142856 16.2857 0.142856C16.8036 0.142856 17.3438 0.218749 17.9063 0.370535C18.4777 0.513392 18.9598 0.71875 19.3527 0.986606C19.4955 1.08482 19.567 1.20982 19.567 1.36161C19.567 1.51339 19.4955 1.63839 19.3527 1.73661L15.4286 4V7L18.0134 8.43303C18.058 8.40625 18.4107 8.19196 19.0714 7.79018C19.7321 7.37946 20.3348 7.01786 20.8795 6.70536C21.433 6.38393 21.75 6.22321 21.8304 6.22321C21.9643 6.22321 22.067 6.26786 22.1384 6.35714C22.2188 6.44643 22.2589 6.55804 22.2589 6.69196Z"/></svg>