<svg xmlns="http://www.w3.org/2000/svg"><symbol viewBox="0 0 405 29" id="title-decor-left" fill="none"><path fill="#DA8836" d="M29 13H403V15H29z"/><path transform="rotate(-45 395 13.975)" fill="#DA8836" d="M395 13.975H402V20.975H395z"/><path transform="rotate(-45 21 13.975)" fill="#DA8836" d="M21 13.975H28V20.975H21z"/><path transform="rotate(-45 6.364 14.025)" stroke="#DA8836" stroke-width="2" d="M6.364 14.025H24.198V31.859H6.364z"/><path transform="rotate(-45 1.414 13.912)" stroke="#DA8836" stroke-width="2" d="M1.414 13.912H9.154V21.652H1.414z"/></symbol><symbol id="title-decor-right" fill="none"><path transform="matrix(-1 0 0 1 366 13)" fill="#DA8836" d="M0 0H362V2H0z"/><path transform="scale(-1 1) rotate(-45 11.87 19.058)" fill="#DA8836" d="M0 0H7V7H0z"/><path transform="scale(-1 1) rotate(-45 -170.08 458.323)" fill="#DA8836" d="M0 0H7V7H0z"/><path transform="scale(-1 1) rotate(-45 -178.045 474.309)" stroke="#DA8836" stroke-width="2" d="M-1.414 0H16.419999999999998V17.834H-1.414z"/><path transform="scale(-1 1) rotate(-45 -180.657 480.227)" stroke="#DA8836" stroke-width="2" d="M-1.414 0H6.3260000000000005V7.74H-1.414z"/></symbol></svg>