<?xml version="1.0" encoding="iso-8859-1"?><svg xmlns="http://www.w3.org/2000/svg" viewBox="0 0 512 512" fill="currentColor" width="512" height="512"><path d="M467 122H332V45c0-24.813-20.187-45-45-45H45C20.187 0 0 20.187 0 45v422c0 24.813 20.187 45 45 45h242c24.813 0 45-20.187 45-45v-83.787L383.213 332H467c24.813 0 45-20.187 45-45V167c0-24.813-20.187-45-45-45zM30 45c0-8.271 6.729-15 15-15h242c8.271 0 15 6.729 15 15v15H30V45zm272 422c0 8.271-6.729 15-15 15H45c-8.271 0-15-6.729-15-15v-45h272v45zm0-75H30V90h272v32h-15c-24.813 0-45 20.187-45 45v120c0 24.813 20.187 45 45 45h15v60zm180-105c0 8.271-6.729 15-15 15h-90c-3.978 0-7.793 1.58-10.606 4.393L332 340.787V317c0-8.284-6.716-15-15-15h-30c-8.271 0-15-6.729-15-15V167c0-8.271 6.729-15 15-15h180c8.271 0 15 6.729 15 15v120z"/><path d="M437 182H317c-8.284 0-15 6.716-15 15s6.716 15 15 15h120c8.284 0 15-6.716 15-15s-6.716-15-15-15zM377 242h-60c-8.284 0-15 6.716-15 15s6.716 15 15 15h60c8.284 0 15-6.716 15-15s-6.716-15-15-15z"/></svg>