<?xml version="1.0" encoding="utf-8"?><svg xmlns="http://www.w3.org/2000/svg" width="16" height="16" viewBox="0 0 16 16"><path d="M13.199 15.5c.37 0 .696-.128.98-.384l.937-.937c.256-.284.384-.61.384-.98s-.128-.682-.384-.938L10.856 8l4.26-4.261c.256-.256.384-.569.384-.938 0-.37-.128-.696-.384-.98l-.937-.937c-.284-.256-.61-.384-.98-.384s-.682.128-.938.384L8 5.144 3.739.884A1.277 1.277 0 002.8.5c-.37 0-.696.128-.98.384l-.937.937c-.256.284-.384.61-.384.98s.128.682.384.938L5.144 8l-4.26 4.261a1.277 1.277 0 00-.384.938c0 .37.128.696.384.98l.937.937c.284.256.61.384.98.384s.682-.128.938-.384L8 10.856l4.261 4.26c.256.256.569.384.938.384z" fill="currentColor" fill-rule="evenodd"/></svg>