<?xml version="1.0" encoding="utf-8"?><svg xmlns="http://www.w3.org/2000/svg" width="16" height="16" viewBox="0 0 16 16"><g fill="none" fill-rule="evenodd"><path d="M0 0h16v16H0z"/><path fill="currentColor" d="M8.5 5a.49.49 0 00.36-.14A.49.49 0 009 4.5V4h6.5a.49.49 0 00.36-.14.49.49 0 00.14-.36v-1a.49.49 0 00-.14-.36.49.49 0 00-.36-.14H9v-.5a.49.49 0 00-.14-.36A.498.498 0 008.5 1h-1a.49.49 0 00-.36.14.49.49 0 00-.14.36V2H.5a.49.49 0 00-.36.14.49.49 0 00-.14.36v1a.49.49 0 00.14.36A.49.49 0 00.5 4H7v.5a.49.49 0 00.14.36.49.49 0 00.36.14h1zm4 5a.49.49 0 00.36-.14.49.49 0 00.14-.36V9h2.5a.49.49 0 00.36-.14.49.49 0 00.14-.36v-1a.49.49 0 00-.14-.36.49.49 0 00-.36-.14H13v-.5a.49.49 0 00-.14-.36.49.49 0 00-.36-.14h-1a.49.49 0 00-.36.14.49.49 0 00-.14.36V7H.5a.49.49 0 00-.36.14.49.49 0 00-.14.36v1a.49.49 0 00.14.36A.49.49 0 00.5 9H11v.5a.49.49 0 00.14.36.49.49 0 00.36.14h1zm-8 5a.49.49 0 00.36-.14.49.49 0 00.14-.36V14h10.5a.49.49 0 00.36-.14.49.49 0 00.14-.36v-1a.49.49 0 00-.14-.36.49.49 0 00-.36-.14H5v-.5a.49.49 0 00-.14-.36.49.49 0 00-.36-.14h-1a.49.49 0 00-.36.14.49.49 0 00-.14.36v.5H.5a.49.49 0 00-.36.14.49.49 0 00-.14.36v1a.49.49 0 00.14.36.49.49 0 00.36.14H3v.5a.49.49 0 00.14.36.49.49 0 00.36.14h1z"/></g></svg>