<?xml version="1.0" encoding="utf-8"?><svg xmlns="http://www.w3.org/2000/svg" width="14" height="14" viewBox="0 0 14 14"><path d="M7.5 14c.27 0 .505-.099.703-.297A.96.96 0 008.5 13V8.5H13c.27 0 .505-.099.703-.297A.96.96 0 0014 7.5v-1a.962.962 0 00-.297-.703A.96.96 0 0013 5.5H8.5V1a.962.962 0 00-.297-.703A.96.96 0 007.5 0h-1a.962.962 0 00-.703.297A.96.96 0 005.5 1v4.5H1a.962.962 0 00-.703.297A.96.96 0 000 6.5v1c0 .27.099.505.297.703A.96.96 0 001 8.5h4.5V13c0 .27.099.505.297.703A.96.96 0 006.5 14h1z" fill="currentColor" fill-rule="evenodd"/></svg>