<?xml version="1.0" encoding="utf-8"?><svg xmlns="http://www.w3.org/2000/svg" width="24" height="24" viewBox="0 0 24 24"><g fill="none" fill-rule="evenodd"><path d="M0 0h24v24H0z"/><path fill="currentColor" d="M12 14.065c.565 0 1.044-.198 1.44-.593a1.96 1.96 0 00.592-1.44c0-.564-.197-1.044-.592-1.44-.396-.394-.875-.592-1.44-.592s-1.044.198-1.44.593a1.96 1.96 0 00-.592 1.44c0 .564.197 1.044.592 1.439.396.395.875.593 1.44.593zm4.968 0c.564 0 1.044-.198 1.44-.593.394-.395.592-.875.592-1.44 0-.564-.198-1.044-.593-1.44a1.964 1.964 0 00-1.44-.592 1.96 1.96 0 00-1.439.593 1.96 1.96 0 00-.593 1.44c0 .564.198 1.044.593 1.439a1.96 1.96 0 001.44.593zm-9.936 0a1.96 1.96 0 001.44-.593 1.96 1.96 0 00.593-1.44c0-.564-.198-1.044-.593-1.44A1.964 1.964 0 007.032 10c-.564 0-1.044.198-1.44.593A1.964 1.964 0 005 12.033c0 .564.198 1.044.593 1.439a1.96 1.96 0 001.44.593z"/></g></svg>