<?xml version="1.0" encoding="utf-8"?><svg xmlns="http://www.w3.org/2000/svg" width="17" height="16" viewBox="0 0 17 16"><path d="M3.707 14.98c.316.237.641.257.977.06l3.878-2.014 3.878 2.013c.336.178.662.153.977-.074.316-.227.445-.527.385-.902l-.74-4.323L16.2 6.69c.277-.276.356-.601.237-.976-.118-.375-.375-.582-.77-.622l-4.322-.651L9.421.533C9.243.178 8.957 0 8.562 0c-.395 0-.68.178-.858.533L5.779 4.44l-4.322.651c-.395.04-.651.247-.77.622-.118.375-.04.7.237.977l3.138 3.05-.74 4.322c-.06.374.07.68.385.917zm8.526-1.628l-3.67-1.954-3.672 1.954.681-4.115-2.96-2.901 4.115-.593 1.835-3.73 1.836 3.73 4.115.593-2.96 2.9.68 4.116z" fill="currentColor" fill-rule="evenodd"/></svg>