<svg xmlns="http://www.w3.org/2000/svg" style="border: 0 !important; clip: rect(0 0 0 0) !important; height: 1px !important; margin: -1px !important; overflow: hidden !important; padding: 0 !important; position: absolute !important; width: 1px !important;" class="root-svg-symbols-element">
    <symbol id="angle-down" viewBox="0 0 129 129">
      <path d="M121.3 34.6c-1.6-1.6-4.2-1.6-5.8 0l-51 51.1-51.1-51.1c-1.6-1.6-4.2-1.6-5.8 0-1.6 1.6-1.6 4.2 0 5.8l53.9 53.9c.8.8 1.8 1.2 2.9 1.2 1 0 2.1-.4 2.9-1.2l53.9-53.9c1.7-1.6 1.7-4.2.1-5.8z"/>
    </symbol>
    <symbol id="down-arrow" viewBox="0 0 129 129">
      <path d="M121.3 34.6c-1.6-1.6-4.2-1.6-5.8 0l-51 51.1-51.1-51.1c-1.6-1.6-4.2-1.6-5.8 0-1.6 1.6-1.6 4.2 0 5.8l53.9 53.9c.8.8 1.8 1.2 2.9 1.2 1 0 2.1-.4 2.9-1.2l53.9-53.9c1.7-1.6 1.7-4.2.1-5.8z"/>
    </symbol>
    <symbol id="eye" viewBox="0 0 561 561">
      <path d="M280.5 89.25C153 89.25 43.35 168.3 0 280.5c43.35 112.2 153 191.25 280.5 191.25S517.65 392.7 561 280.5C517.65 168.3 408 89.25 280.5 89.25zm0 318.75C209.1 408 153 351.9 153 280.5S209.1 153 280.5 153 408 209.1 408 280.5 351.9 408 280.5 408zm0-204c-43.35 0-76.5 33.15-76.5 76.5s33.15 76.5 76.5 76.5 76.5-33.15 76.5-76.5-33.15-76.5-76.5-76.5z"/>
    </symbol>
    <symbol id="logout" viewBox="0 0 612 612">
      <path d="M222.545 333.818h319.909l-69.545 111.273h55.637L612 306l-83.454-139.091h-55.637l69.545 111.273H222.545z"/><path d="M0 612h445.091V431.182h-55.637v125.181H55.636V55.636h333.818v125.182h55.637V0H0z"/>
    </symbol>
    <symbol id="profile" viewBox="0 0 258.75 258.75">
      <circle cx="129.375" cy="60" r="60"/><path d="M129.375 150c-60.061 0-108.75 48.689-108.75 108.75h217.5c0-60.061-48.689-108.75-108.75-108.75z"/>
    </symbol>
    <symbol id="right-arrow-round" viewBox="0 0 490.4 490.4">
      <path d="M245.2 490.4c135.2 0 245.2-110 245.2-245.2S380.4 0 245.2 0 0 110 0 245.2s110 245.2 245.2 245.2zm0-465.9c121.7 0 220.7 99 220.7 220.7s-99 220.7-220.7 220.7-220.7-99-220.7-220.7 99-220.7 220.7-220.7z"/><path d="M138.7 257.5h183.4l-48 48c-4.8 4.8-4.8 12.5 0 17.3 2.4 2.4 5.5 3.6 8.7 3.6s6.3-1.2 8.7-3.6l68.9-68.9c4.8-4.8 4.8-12.5 0-17.3l-68.9-68.9c-4.8-4.8-12.5-4.8-17.3 0s-4.8 12.5 0 17.3l48 48H138.7c-6.8 0-12.3 5.5-12.3 12.3 0 6.8 5.5 12.2 12.3 12.2z"/>
    </symbol>
    <symbol id="right-arrow" viewBox="0 0 476.213 476.213">
      <path d="M345.606 107.5l-21.212 21.213 94.393 94.394H0v30h418.787L324.394 347.5l21.212 21.213 130.607-130.607z"/>
    </symbol>
    <symbol id="search" viewBox="0 0 250.313 250.313">
      <path d="M244.186 214.604l-54.379-54.378c-.289-.289-.628-.491-.93-.76 10.7-16.231 16.945-35.66 16.945-56.554C205.822 46.075 159.747 0 102.911 0S0 46.075 0 102.911c0 56.835 46.074 102.911 102.91 102.911 20.895 0 40.323-6.245 56.554-16.945.269.301.47.64.759.929l54.38 54.38c8.169 8.168 21.413 8.168 29.583 0 8.168-8.169 8.168-21.413 0-29.582zm-141.275-44.458c-37.134 0-67.236-30.102-67.236-67.235 0-37.134 30.103-67.236 67.236-67.236 37.132 0 67.235 30.103 67.235 67.236s-30.103 67.235-67.235 67.235z" fill-rule="evenodd" clip-rule="evenodd"/>
    </symbol></svg>