<?xml version="1.0" encoding="iso-8859-1"?><!DOCTYPE svg PUBLIC "-//W3C//DTD SVG 1.1//EN" "http://www.w3.org/Graphics/SVG/1.1/DTD/svg11.dtd"><svg viewBox="0 0 812 812" xmlns="http://www.w3.org/2000/svg" xmlns:xlink="http://www.w3.org/1999/xlink"><style>:root>svg{display:none}:root>svg:target{display:block}</style><svg viewBox="0 0 512 512" fill="currentColor" id="003-sms" xmlns="http://www.w3.org/2000/svg"><path d="M467 122H332V45c0-24.813-20.187-45-45-45H45C20.187 0 0 20.187 0 45v422c0 24.813 20.187 45 45 45h242c24.813 0 45-20.187 45-45v-83.787L383.213 332H467c24.813 0 45-20.187 45-45V167c0-24.813-20.187-45-45-45zM30 45c0-8.271 6.729-15 15-15h242c8.271 0 15 6.729 15 15v15H30V45zm272 422c0 8.271-6.729 15-15 15H45c-8.271 0-15-6.729-15-15v-45h272v45zm0-75H30V90h272v32h-15c-24.813 0-45 20.187-45 45v120c0 24.813 20.187 45 45 45h15v60zm180-105c0 8.271-6.729 15-15 15h-90c-3.978 0-7.793 1.58-10.606 4.393L332 340.787V317c0-8.284-6.716-15-15-15h-30c-8.271 0-15-6.729-15-15V167c0-8.271 6.729-15 15-15h180c8.271 0 15 6.729 15 15v120z"/><path d="M437 182H317c-8.284 0-15 6.716-15 15s6.716 15 15 15h120c8.284 0 15-6.716 15-15s-6.716-15-15-15zM377 242h-60c-8.284 0-15 6.716-15 15s6.716 15 15 15h60c8.284 0 15-6.716 15-15s-6.716-15-15-15z"/></svg><svg viewBox="0 0 13 22" id="arrow-left" xmlns="http://www.w3.org/2000/svg"><path d="M10.548 21.5a1.11 1.11 0 01-.678-.216l-.14-.121-9.345-9.344A1.05 1.05 0 010 11c0-.268.09-.502.268-.702L9.729.838c.225-.226.498-.338.82-.338.256 0 .482.072.677.216l.141.121 1.06 1.06c.224.225.345.497.36.819.014.256-.05.483-.192.678l-.12.14L5.009 11l7.466 7.466c.225.224.329.497.313.818a1.206 1.206 0 01-.24.679l-.121.14-1.06 1.06a1.115 1.115 0 01-.819.337z" fill="currentColor" fill-rule="evenodd"/></svg><svg viewBox="0 0 16 16" id="burger" xmlns="http://www.w3.org/2000/svg"><g fill="none" fill-rule="evenodd"><path d="M0 0h16v16H0z"/><path fill="currentColor" d="M14.5 4.25a.49.49 0 00.36-.14.49.49 0 00.14-.36V2.5a.49.49 0 00-.14-.36.49.49 0 00-.36-.14h-13a.49.49 0 00-.36.14.49.49 0 00-.14.36v1.25a.49.49 0 00.14.36.49.49 0 00.36.14h13zm0 5a.49.49 0 00.36-.14.49.49 0 00.14-.36V7.5a.49.49 0 00-.14-.36.49.49 0 00-.36-.14h-13a.49.49 0 00-.36.14.49.49 0 00-.14.36v1.25a.49.49 0 00.14.36.49.49 0 00.36.14h13zm0 5a.49.49 0 00.36-.14.49.49 0 00.14-.36V12.5a.49.49 0 00-.14-.36.49.49 0 00-.36-.14h-13a.49.49 0 00-.36.14.49.49 0 00-.14.36v1.25a.49.49 0 00.14.36.49.49 0 00.36.14h13z"/></g></svg><svg viewBox="0 0 16 16" id="close-icon" xmlns="http://www.w3.org/2000/svg"><path d="M13.199 15.5c.37 0 .696-.128.98-.384l.937-.937c.256-.284.384-.61.384-.98s-.128-.682-.384-.938L10.856 8l4.26-4.261c.256-.256.384-.569.384-.938 0-.37-.128-.696-.384-.98l-.937-.937c-.284-.256-.61-.384-.98-.384s-.682.128-.938.384L8 5.144 3.739.884A1.277 1.277 0 002.8.5c-.37 0-.696.128-.98.384l-.937.937c-.256.284-.384.61-.384.98s.128.682.384.938L5.144 8l-4.26 4.261a1.277 1.277 0 00-.384.938c0 .37.128.696.384.98l.937.937c.284.256.61.384.98.384s.682-.128.938-.384L8 10.856l4.261 4.26c.256.256.569.384.938.384z" fill="currentColor" fill-rule="evenodd"/></svg><svg viewBox="0 0 512 512" fill="currentColor" id="contract" xmlns="http://www.w3.org/2000/svg"><path d="M498.791 161.127c-17.545-17.546-46.094-17.545-63.645.004l-45.128 45.166V87.426c0-12.02-4.681-23.32-13.181-31.819L334.412 13.18C325.913 4.68 314.612 0 302.592 0H45.018c-24.813 0-45 20.187-45 45v422c0 24.813 20.187 45 45 45h300c24.813 0 45-20.187 45-45V333.631L498.79 224.767c17.587-17.586 17.591-46.052.001-63.64zM300.019 30c2.834 0 8.295-.491 13.18 4.393l42.426 42.427c4.76 4.761 4.394 9.978 4.394 13.18h-60V30zm59.999 437c0 8.271-6.728 15-15 15h-300c-8.271 0-15-6.729-15-15V45c0-8.271 6.729-15 15-15h225v75c0 8.284 6.716 15 15 15h75v116.323l-44.256 44.293-21.203 21.204a15 15 0 00-3.624 5.863l-21.214 63.64a14.999 14.999 0 0018.974 18.974l63.64-21.213a14.988 14.988 0 005.863-3.624l1.82-1.82V467zm-33.64-154.573l21.213 21.213-8.103 8.103-31.819 10.606 10.606-31.82 8.103-8.102zm42.422-.005l-21.213-21.213 72.105-72.166 21.213 21.213-72.105 72.166zm108.773-108.864l-15.463 15.476-21.213-21.213 15.468-15.481c5.852-5.849 15.366-5.848 21.214 0 5.847 5.85 5.878 15.333-.006 21.218z"/><path d="M285.018 150h-210c-8.284 0-15 6.716-15 15s6.716 15 15 15h210c8.284 0 15-6.716 15-15s-6.716-15-15-15zM225.018 210h-150c-8.284 0-15 6.716-15 15s6.716 15 15 15h150c8.284 0 15-6.716 15-15s-6.716-15-15-15zM225.018 270h-150c-8.284 0-15 6.716-15 15s6.716 15 15 15h150c8.284 0 15-6.716 15-15s-6.716-15-15-15zM225.018 330h-150c-8.284 0-15 6.716-15 15s6.716 15 15 15h150c8.284 0 15-6.716 15-15s-6.716-15-15-15zM285.018 422h-90c-8.284 0-15 6.716-15 15s6.716 15 15 15h90c8.284 0 15-6.716 15-15s-6.716-15-15-15z"/></svg><svg viewBox="0 0 16 16" id="cursor" xmlns="http://www.w3.org/2000/svg"><g fill="none" fill-rule="evenodd"><path d="M0 0h16v16H0z"/><path fill="currentColor" d="M8.174 14.974c.273.055.556.018.847-.11.292-.127.51-.346.657-.655L14.9 2.834c.219-.51.114-.98-.314-1.409-.429-.428-.898-.533-1.408-.314L1.803 6.334c-.42.2-.675.505-.766.916a1.33 1.33 0 00.232 1.12c.246.338.597.507 1.053.507h4.813v4.812c0 .328.104.61.314.848.21.237.451.383.725.437z"/></g></svg><svg viewBox="0 0 98.48 98.48" id="eye-icon" xmlns="http://www.w3.org/2000/svg"><path fill="currentColor" d="M97.204 45.788c-.865-1.02-21.537-24.945-47.963-24.945-26.427 0-47.098 23.925-47.965 24.946a5.307 5.307 0 00.001 6.904c.866 1.02 21.537 24.944 47.964 24.944 26.426 0 47.098-23.926 47.964-24.946a5.306 5.306 0 00-.001-6.903zM57.313 35.215c1.777-.97 4.255.143 5.534 2.485 1.279 2.343.875 5.029-.902 5.999-1.776.971-4.255-.143-5.535-2.485-1.278-2.343-.875-5.029.903-5.999zm-8.072 33.754c-18.46 0-33.995-14.177-39.372-19.729 3.631-3.75 11.898-11.429 22.567-16.021a19.995 19.995 0 00-3.301 11.021c0 11.104 9.001 20.105 20.105 20.105s20.106-9.001 20.106-20.105c0-4.072-1.219-7.855-3.3-11.021C76.715 37.812 84.981 45.49 88.612 49.24 83.235 54.795 67.7 68.969 49.241 68.969z"/></svg><svg viewBox="0 0 16 16" id="filter" xmlns="http://www.w3.org/2000/svg"><g fill="none" fill-rule="evenodd"><path d="M0 0h16v16H0z"/><path fill="currentColor" d="M8.5 5a.49.49 0 00.36-.14A.49.49 0 009 4.5V4h6.5a.49.49 0 00.36-.14.49.49 0 00.14-.36v-1a.49.49 0 00-.14-.36.49.49 0 00-.36-.14H9v-.5a.49.49 0 00-.14-.36A.498.498 0 008.5 1h-1a.49.49 0 00-.36.14.49.49 0 00-.14.36V2H.5a.49.49 0 00-.36.14.49.49 0 00-.14.36v1a.49.49 0 00.14.36A.49.49 0 00.5 4H7v.5a.49.49 0 00.14.36.49.49 0 00.36.14h1zm4 5a.49.49 0 00.36-.14.49.49 0 00.14-.36V9h2.5a.49.49 0 00.36-.14.49.49 0 00.14-.36v-1a.49.49 0 00-.14-.36.49.49 0 00-.36-.14H13v-.5a.49.49 0 00-.14-.36.49.49 0 00-.36-.14h-1a.49.49 0 00-.36.14.49.49 0 00-.14.36V7H.5a.49.49 0 00-.36.14.49.49 0 00-.14.36v1a.49.49 0 00.14.36A.49.49 0 00.5 9H11v.5a.49.49 0 00.14.36.49.49 0 00.36.14h1zm-8 5a.49.49 0 00.36-.14.49.49 0 00.14-.36V14h10.5a.49.49 0 00.36-.14.49.49 0 00.14-.36v-1a.49.49 0 00-.14-.36.49.49 0 00-.36-.14H5v-.5a.49.49 0 00-.14-.36.49.49 0 00-.36-.14h-1a.49.49 0 00-.36.14.49.49 0 00-.14.36v.5H.5a.49.49 0 00-.36.14.49.49 0 00-.14.36v1a.49.49 0 00.14.36.49.49 0 00.36.14H3v.5a.49.49 0 00.14.36.49.49 0 00.36.14h1z"/></g></svg><svg viewBox="0 0 16 16" id="like" xmlns="http://www.w3.org/2000/svg"><g fill="none" fill-rule="evenodd"><path d="M0 0h16v16H0z"/><path fill="currentColor" d="M8.027 13.875a.869.869 0 00.63-.273l5.277-5.47c.783-.783 1.148-1.74 1.093-2.87-.054-1.13-.51-2.06-1.367-2.79a3.399 3.399 0 00-2.584-.833 3.835 3.835 0 00-2.502 1.19l-.547.546-.547-.547a3.847 3.847 0 00-2.501-1.19 3.399 3.399 0 00-2.584.835c-.857.729-1.313 1.659-1.368 2.789-.054 1.13.31 2.087 1.094 2.87l5.277 5.47a.867.867 0 00.63.273z"/></g></svg><svg viewBox="0 0 12 12" id="lock-icon" xmlns="http://www.w3.org/2000/svg"><path d="M10.127 12c.312 0 .578-.11.797-.328.219-.219.328-.485.328-.797v-3.75c0-.313-.11-.578-.328-.797A1.085 1.085 0 0010.127 6H4.314V3.586c0-.469.164-.871.493-1.207a1.58 1.58 0 011.171-.504c.47 0 .872.164 1.207.492.336.328.504.727.504 1.196v.375c0 .156.055.289.164.398.11.11.243.164.399.164h.75a.543.543 0 00.398-.164.541.541 0 00.164-.399v-.375c0-.984-.351-1.824-1.054-2.519C7.807.348 6.967 0 5.99 0c-.976 0-1.812.352-2.508 1.055-.695.703-1.043 1.554-1.043 2.554V6h-.562c-.313 0-.578.11-.797.328a1.085 1.085 0 00-.328.797v3.75c0 .313.11.578.328.797.219.219.484.328.797.328h8.25z" fill="currentColor" fill-rule="evenodd"/></svg><svg viewBox="0 0 512.023 512.023" id="logo" xmlns="http://www.w3.org/2000/svg"><path d="M442.12 350.283v154.225H132.931a22.372 22.372 0 01-17.277-8.121 22.346 22.346 0 01-5.177-14.333v-309.85h153.962l28.364 26.024 138.241 126.858a34.198 34.198 0 0111.076 25.197z" fill="#ff8086"/><path d="M431.044 325.086L292.803 198.228l-28.364-26.024H233.87l28.364 26.024 138.241 126.858a34.198 34.198 0 0111.076 25.197v154.225h30.569V350.283c0-9.58-4.018-18.72-11.076-25.197z" fill="#e5646e"/><path d="M56.637 119.853l-40.263-3.871V14.502c0-6.475 8.051-9.46 12.272-4.55l61.666 71.722z" fill="#b8daff"/><path d="M22.512 37.105l52.113 62.354 15.687-17.786L28.646 9.951c-4.221-4.91-12.272-1.924-12.272 4.55v20.236c2.152-.279 4.45.404 6.138 2.368z" fill="#a4ccff"/><path d="M253.124 119.853l40.263-3.871V14.502c0-6.475-8.051-9.46-12.272-4.55l-61.666 71.722z" fill="#b8daff"/><path d="M281.115 9.951l-26.945 31.34c4.064-.982 8.648 1.912 8.648 6.798v67.893l-12.084 1.162 2.39 2.71 40.263-3.871V14.502c.001-6.475-8.051-9.46-12.272-4.551z" fill="#a4ccff"/><path d="M292.803 198.228L115.654 496.387a22.346 22.346 0 01-5.177-14.333v-309.85h153.962z" fill="#edf4ff"/><path d="M264.439 172.204H233.87l28.364 26.024-151.757 255.421v28.405a22.34 22.34 0 005.177 14.333l177.149-298.159z" fill="#dbeaff"/><path d="M482.727 396.565L363.554 504.504h87.613a24.5 24.5 0 0023.766-18.549l20.48-81.784c1.857-7.413-7.022-12.736-12.686-7.606z" fill="#edf4ff"/><path d="M482.727 396.565l-24.774 22.439c1.477 1.739 2.213 4.142 1.542 6.823l-15.132 60.129a24.5 24.5 0 01-23.766 18.549h30.569a24.499 24.499 0 0023.766-18.549l20.48-81.784c1.858-7.414-7.021-12.737-12.685-7.607z" fill="#dbeaff"/><path d="M293.385 115.984v81.341l-81.07 61.754-45.798 34.895a19.209 19.209 0 01-23.284 0l-45.798-34.895-73.193-55.761a19.964 19.964 0 01-7.866-15.882v-71.452l73.936-34.309H219.45z" fill="#ff8086"/><path d="M219.449 81.675H188.88l73.936 34.309v81.341l-81.07 61.754-42.156 32.119 3.643 2.775a19.209 19.209 0 0023.284 0l45.798-34.895 81.07-61.754v-81.341z" fill="#e5646e"/><path d="M212.316 259.079l-45.798 34.895a19.209 19.209 0 01-23.284 0l-45.798-34.895 42.719-32.541a24.294 24.294 0 0129.442 0z" fill="#8bb3ea"/><path d="M169.596 226.538a24.294 24.294 0 00-29.442 0l-6.34 4.829c6.172-.783 12.579.789 17.786 4.755l30.146 22.956-35.438 27.019a19.164 19.164 0 01-8.576 3.684l5.501 4.192a19.209 19.209 0 0023.284 0l45.798-34.895z" fill="#739ad6"/><path d="M495.747 389.232c-5.793-3.475-13.05-2.761-18.055 1.774L360.658 497.008h-84.882l158.842-144.78v41.508a7.5 7.5 0 0015 0v-43.458c.056-10.186-4.583-22.72-13.499-30.716L300.886 195.47v-79.485a7.499 7.499 0 00-4.343-6.803l-64.94-30.135 54.286-63.142V78.63a7.5 7.5 0 0015 0V14.498c0-6.119-3.708-11.448-9.448-13.576-5.739-2.127-12.022-.504-16.009 4.136l-59.423 69.117H93.75L34.337 5.059C30.348.418 24.061-1.205 18.319.923s-9.45 7.457-9.45 13.575l.007 172.938c0 8.519 4.045 16.686 10.822 21.848l83.282 63.451v43.718a7.5 7.5 0 0015 0v-32.29l20.708 15.777c8.627 6.481 22.147 7.715 32.375 0l96.06-73.179-149.144 251.022V351.832a7.5 7.5 0 00-15 0v130.226c-.583 14.705 13.606 30.512 29.95 29.95l318.238-.004a31.956 31.956 0 0031.042-24.227l20.48-81.784c1.641-6.552-1.149-13.288-6.942-16.761zM78.157 79.047l-54.289 25.192V15.892zM23.875 187.435v-66.663l68.091-31.597h125.828l68.091 31.597v72.837l-73.567 56.044-38.178-29.082c-11.343-8.641-27.188-8.64-38.531 0l-38.176 29.08-68.646-52.3a12.533 12.533 0 01-4.912-9.916zm133.034 102.779c-2.204.193-4.586.708-9.131-2.206l-37.967-28.928 34.888-26.576c5.992-4.564 14.361-4.564 20.353 0l34.888 26.575-37.968 28.929a11.657 11.657 0 01-5.063 2.206zM125.263 494.89l169.268-284.895 131.446 120.618a26.538 26.538 0 014.378 5.205l-176.847 161.19H132.929a14.91 14.91 0 01-7.666-2.118zm362.875-92.541l-20.48 81.784a16.976 16.976 0 01-16.491 12.87h-68.16l104.755-94.88c.061-.056.103-.083.108-.092a.708.708 0 01.293.147.53.53 0 01-.025.171z"/></svg><svg viewBox="0 0 14 3" id="minus-icon" xmlns="http://www.w3.org/2000/svg"><path d="M8.5 3H13c.27 0 .505-.099.703-.297A.96.96 0 0014 2V1a.962.962 0 00-.297-.703A.96.96 0 0013 0H1a.962.962 0 00-.703.297A.96.96 0 000 1v1c0 .27.099.505.297.703A.96.96 0 001 3h7.5z" fill="currentColor" fill-rule="evenodd"/></svg><svg viewBox="0 0 512 512" fill="currentColor" id="placeholder" xmlns="http://www.w3.org/2000/svg"><path d="M256 0C156.748 0 76 80.748 76 180c0 33.534 9.289 66.26 26.869 94.652l142.885 230.257A15 15 0 00258.499 512h.119a14.997 14.997 0 0012.75-7.292L410.611 272.22C427.221 244.428 436 212.539 436 180 436 80.748 355.252 0 256 0zm128.866 256.818L258.272 468.186l-129.905-209.34C113.734 235.214 105.8 207.95 105.8 180c0-82.71 67.49-150.2 150.2-150.2S406.1 97.29 406.1 180c0 27.121-7.411 53.688-21.234 76.818z"/><path d="M256 90c-49.626 0-90 40.374-90 90 0 49.309 39.717 90 90 90 50.903 0 90-41.233 90-90 0-49.626-40.374-90-90-90zm0 150.2c-33.257 0-60.2-27.033-60.2-60.2 0-33.084 27.116-60.2 60.2-60.2s60.1 27.116 60.1 60.2c0 32.683-26.316 60.2-60.1 60.2z"/></svg><svg viewBox="0 0 14 14" id="plus-icon" xmlns="http://www.w3.org/2000/svg"><path d="M7.5 14c.27 0 .505-.099.703-.297A.96.96 0 008.5 13V8.5H13c.27 0 .505-.099.703-.297A.96.96 0 0014 7.5v-1a.962.962 0 00-.297-.703A.96.96 0 0013 5.5H8.5V1a.962.962 0 00-.297-.703A.96.96 0 007.5 0h-1a.962.962 0 00-.703.297A.96.96 0 005.5 1v4.5H1a.962.962 0 00-.703.297A.96.96 0 000 6.5v1c0 .27.099.505.297.703A.96.96 0 001 8.5h4.5V13c0 .27.099.505.297.703A.96.96 0 006.5 14h1z" fill="currentColor" fill-rule="evenodd"/></svg><svg viewBox="0 0 812 812" id="rounded-icon" xmlns="http://www.w3.org/2000/svg"><path d="M406 0C181.772 0 0 181.772 0 406s181.772 406 406 406h390c8.837 0 16-7.163 16-16V406C812 181.772 630.228 0 406 0z" fill="currentColor" fill-rule="evenodd"/></svg><svg viewBox="0 0 16 16" id="select-triangle" xmlns="http://www.w3.org/2000/svg"><g fill="none" fill-rule="evenodd"><path d="M0 0h16v16H0z"/><path fill="currentColor" d="M8 12c.28 0 .517-.098.713-.293l4.989-4.988c.307-.308.377-.671.21-1.09-.168-.42-.476-.629-.923-.629H3.01c-.447 0-.755.21-.922.629-.168.419-.098.782.21 1.09l4.988 4.988a.974.974 0 00.713.293z"/></g></svg><svg viewBox="0 0 24 24" id="social-apple" xmlns="http://www.w3.org/2000/svg"><g fill="none" fill-rule="evenodd"><path d="M0 0h24v24H0z"/><path fill="currentColor" d="M12.437 5.776c1.1.09 2.128-.431 3.08-1.562.803-.952 1.16-2.024 1.071-3.214-.535.03-1.086.193-1.651.491-.566.298-1.027.655-1.384 1.071-.863.953-1.235 2.024-1.116 3.214zm3.794 15.222c.952-.03 1.86-.64 2.723-1.83.863-1.19 1.473-2.35 1.83-3.482-1.815-.863-2.723-2.232-2.723-4.107-.03-1.636.715-2.901 2.232-3.794-.833-1.19-2.098-1.86-3.794-2.009-.357-.03-.751 0-1.183.09-.432.089-.81.2-1.138.334-.328.134-.648.253-.96.358-.313.104-.528.156-.647.156-.179 0-.685-.149-1.518-.447-.833-.297-1.473-.446-1.92-.446-1.368.03-2.566.565-3.593 1.607C4.513 8.47 4 9.928 4 11.803c0 1.16.208 2.366.625 3.615.238.655.573 1.384 1.004 2.188.432.803 1.012 1.577 1.741 2.32.73.745 1.421 1.102 2.076 1.072.327 0 .84-.134 1.54-.401.7-.268 1.302-.402 1.808-.402s1.101.134 1.785.402c.685.267 1.235.401 1.652.401z"/></g></svg><svg viewBox="0 0 11 20" id="social-facebook" xmlns="http://www.w3.org/2000/svg"><path d="M7.07 20v-8.75H10l.547-3.633H7.07V5.273c0-.546.163-1.009.489-1.386.325-.378.852-.567 1.582-.567h1.562V.234l-.39-.039c-.26-.052-.625-.097-1.094-.136A15.66 15.66 0 007.89 0c-.938 0-1.765.189-2.48.566a3.93 3.93 0 00-1.661 1.66c-.39.73-.586 1.615-.586 2.657v2.734H0v3.633h3.164V20H7.07z" fill="currentColor" fill-rule="evenodd"/></svg><svg viewBox="0 0 24 24" id="social-google" xmlns="http://www.w3.org/2000/svg"><g fill="none" fill-rule="evenodd"><path d="M0 0h24v24H0z"/><path fill="currentColor" d="M12 21c2.589 0 4.688-.823 6.296-2.468 1.61-1.645 2.414-3.75 2.414-6.314 0-.484-.049-.992-.145-1.524H12v3.12h5.117c-.073.363-.212.75-.417 1.162a5.913 5.913 0 01-.871 1.252c-.375.423-.896.774-1.56 1.052-.666.278-1.422.418-2.269.418-1.548 0-2.867-.557-3.956-1.67C6.956 14.915 6.411 13.573 6.411 12c0-1.21.333-2.28.998-3.212.666-.931 1.464-1.596 2.395-1.996.932-.399 1.936-.532 3.013-.399a4.72 4.72 0 012.776 1.325l2.431-2.36C16.354 3.787 14.347 3 12 3c-2.492 0-4.615.877-6.369 2.631C3.877 7.385 3 9.508 3 12s.877 4.615 2.631 6.369C7.385 20.123 9.508 21 12 21z"/></g></svg><svg viewBox="0 0 20 20" id="social-instagram" xmlns="http://www.w3.org/2000/svg"><path d="M10.436 20c1.706-.005 2.93-.034 3.671-.09 1.816-.059 3.222-.587 4.219-1.584.997-.997 1.54-2.403 1.63-4.219.03-.803.044-2.172.044-4.107v-.436c-.002-1.706-.017-2.93-.045-3.671-.089-1.816-.632-3.222-1.63-4.219-.996-.997-2.402-1.54-4.218-1.63C13.304.015 11.935 0 10 0S6.696.015 5.893.045c-1.816.089-3.214.64-4.197 1.651C.714 2.679.179 4.062.089 5.848.03 6.682 0 8.065 0 10v.436c.005 1.706.034 2.93.09 3.671 0 .595.051 1.116.156 1.563.104.446.275.907.513 1.384.238.476.55.892.937 1.25.983.982 2.381 1.517 4.197 1.607.803.06 2.172.089 4.107.089h.436zm1.93-1.786H7.612c-.313 0-.73-.015-1.25-.044-.521-.03-.968-.075-1.34-.134a4.814 4.814 0 01-.915-.224c-.893-.357-1.533-.997-1.92-1.92a11.278 11.278 0 01-.312-1.763c-.03-.312-.052-.692-.067-1.138-.015-.446-.022-.81-.022-1.094V7.612c0-.313.015-.73.044-1.25.03-.521.075-.968.134-1.34.06-.372.134-.677.224-.915.357-.922.997-1.562 1.92-1.92.237-.089.542-.163.914-.223s.819-.104 1.34-.134c.52-.03.945-.044 1.272-.044h4.754c.313 0 .73.015 1.25.044.521.03.968.075 1.34.134.372.06.677.134.915.224.922.357 1.562.997 1.92 1.92.089.237.163.542.223.914s.104.819.134 1.34c.03.52.044.945.044 1.272v4.732c0 .327-.015.752-.044 1.272-.03.521-.075.968-.134 1.34-.06.372-.134.677-.224.915-.357.893-.997 1.533-1.92 1.92-.237.089-.542.163-.914.223s-.819.104-1.34.134c-.52.03-.945.044-1.272.044zm2.991-12.366c.328 0 .603-.119.826-.357.223-.238.335-.52.335-.848 0-.328-.12-.595-.357-.804a1.02 1.02 0 00-.804-.357 1.2 1.2 0 00-.848.335 1.086 1.086 0 00-.357.826c0 .327.119.61.357.848s.52.357.848.357zM10 15.134c1.429 0 2.641-.499 3.638-1.496.997-.997 1.496-2.21 1.496-3.638 0-1.429-.499-2.641-1.496-3.638-.997-.997-2.21-1.496-3.638-1.496-1.429 0-2.649.506-3.66 1.518-.983.982-1.474 2.187-1.474 3.616 0 1.429.499 2.641 1.496 3.638.997.997 2.21 1.496 3.638 1.496zm0-1.786c-.923 0-1.711-.327-2.366-.982S6.652 10.923 6.652 10s.327-1.711.982-2.366S9.077 6.652 10 6.652s1.711.327 2.366.982.982 1.443.982 2.366-.327 1.711-.982 2.366-1.443.982-2.366.982z" fill="currentColor" fill-rule="evenodd"/></svg><svg viewBox="0 0 24 24" id="social-more" xmlns="http://www.w3.org/2000/svg"><g fill="none" fill-rule="evenodd"><path d="M0 0h24v24H0z"/><path fill="currentColor" d="M12 14.065c.565 0 1.044-.198 1.44-.593a1.96 1.96 0 00.592-1.44c0-.564-.197-1.044-.592-1.44-.396-.394-.875-.592-1.44-.592s-1.044.198-1.44.593a1.96 1.96 0 00-.592 1.44c0 .564.197 1.044.592 1.439.396.395.875.593 1.44.593zm4.968 0c.564 0 1.044-.198 1.44-.593.394-.395.592-.875.592-1.44 0-.564-.198-1.044-.593-1.44a1.964 1.964 0 00-1.44-.592 1.96 1.96 0 00-1.439.593 1.96 1.96 0 00-.593 1.44c0 .564.198 1.044.593 1.439a1.96 1.96 0 001.44.593zm-9.936 0a1.96 1.96 0 001.44-.593 1.96 1.96 0 00.593-1.44c0-.564-.198-1.044-.593-1.44A1.964 1.964 0 007.032 10c-.564 0-1.044.198-1.44.593A1.964 1.964 0 005 12.033c0 .564.198 1.044.593 1.439a1.96 1.96 0 001.44.593z"/></g></svg><svg viewBox="0 0 22 13" id="social-vk" xmlns="http://www.w3.org/2000/svg"><path d="M21.003 13c.731 0 1.002-.339.813-1.016a4.91 4.91 0 00-.427-.812 9.013 9.013 0 00-.69-.955 28.831 28.831 0 00-1.646-1.808 22.76 22.76 0 01-.63-.65l-.264-.284c-.162-.27-.243-.46-.243-.569 0-.108.08-.284.243-.528.027-.027.271-.386.732-1.076.46-.691.968-1.497 1.523-2.418.555-.92.873-1.584.955-1.99.162-.596-.081-.894-.732-.894h-2.396c-.488 0-.826.23-1.016.69l-.366.772c-.243.542-.609 1.22-1.097 2.032-.487.812-.988 1.503-1.503 2.072-.487.487-.86.73-1.117.73s-.386-.23-.386-.69V.894c0-.596-.216-.894-.65-.894H8.328A.655.655 0 007.8.284a.504.504 0 00-.081.285c0 .108.047.23.142.365.095.136.196.264.305.386.108.122.216.319.325.59.108.27.176.595.203.974v3.535c0 .352-.034.589-.102.71-.068.123-.183.184-.345.184-.433 0-1.063-.65-1.89-1.95-.825-1.3-1.523-2.777-2.091-4.429-.109-.352-.237-.595-.386-.73C3.73.067 3.507 0 3.21 0H.812C.27 0 0 .23 0 .69c0 .271.095.732.284 1.382.19.65.59 1.591 1.199 2.823a24.709 24.709 0 002.295 3.718c.975 1.408 2.113 2.491 3.413 3.25C8.49 12.62 9.777 13 11.05 13c.731 0 1.205-.074 1.422-.223.217-.15.325-.386.325-.711 0-.271-.014-.623-.04-1.057 0-.893.026-1.435.08-1.625.055-.19.244-.284.57-.284.514 0 1.313.515 2.396 1.544.271.27.542.555.813.853.27.298.474.528.609.69.135.163.284.312.447.447.162.136.311.23.447.285.135.054.298.081.487.081h2.397z" fill="currentColor" fill-rule="evenodd"/></svg><svg viewBox="0 0 17 16" id="stars-border-icon" xmlns="http://www.w3.org/2000/svg"><path d="M3.707 14.98c.316.237.641.257.977.06l3.878-2.014 3.878 2.013c.336.178.662.153.977-.074.316-.227.445-.527.385-.902l-.74-4.323L16.2 6.69c.277-.276.356-.601.237-.976-.118-.375-.375-.582-.77-.622l-4.322-.651L9.421.533C9.243.178 8.957 0 8.562 0c-.395 0-.68.178-.858.533L5.779 4.44l-4.322.651c-.395.04-.651.247-.77.622-.118.375-.04.7.237.977l3.138 3.05-.74 4.322c-.06.374.07.68.385.917zm8.526-1.628l-3.67-1.954-3.672 1.954.681-4.115-2.96-2.901 4.115-.593 1.835-3.73 1.836 3.73 4.115.593-2.96 2.9.68 4.116z" fill="currentColor" fill-rule="evenodd"/></svg><svg viewBox="0 0 17 16" id="stars-icon" xmlns="http://www.w3.org/2000/svg"><path d="M3.298 14.98c.316.237.641.257.977.06l3.878-2.014 3.879 2.013c.335.178.66.153.977-.074.315-.227.444-.527.384-.902l-.74-4.323 3.138-3.05c.277-.276.356-.601.237-.976-.118-.375-.375-.582-.77-.622l-4.322-.651L9.012.533C8.834.178 8.548 0 8.153 0c-.394 0-.68.178-.858.533L5.37 4.44l-4.322.651c-.395.04-.651.247-.77.622-.118.375-.04.7.237.977l3.138 3.05-.74 4.322c-.06.374.07.68.385.917z" fill="currentColor" fill-rule="evenodd"/></svg><svg viewBox="0 0 24 24" id="wi-fi" xmlns="http://www.w3.org/2000/svg"><g fill="none" fill-rule="evenodd"><path d="M0 0h24v24H0z"/><path fill="currentColor" d="M10.664 15.984a1.89 1.89 0 102.674 2.671 1.89 1.89 0 00-2.674-2.671zm1.337-4.493a5.787 5.787 0 00-4.121 1.707 1.105 1.105 0 101.563 1.564 3.594 3.594 0 012.558-1.06 3.59 3.59 0 012.556 1.06 1.106 1.106 0 001.564-1.564 5.786 5.786 0 00-4.12-1.707zm0-3.642c-2.53 0-4.908.986-6.697 2.774a1.106 1.106 0 101.564 1.564A7.207 7.207 0 0112 10.06c1.938 0 3.761.755 5.132 2.126a1.104 1.104 0 001.564 0 1.108 1.108 0 000-1.564 9.41 9.41 0 00-6.695-2.774zm9.276.194A13.033 13.033 0 0012 4.2a13.03 13.03 0 00-9.277 3.843 1.106 1.106 0 101.564 1.564A10.84 10.84 0 0112 6.412c2.913 0 5.652 1.134 7.711 3.195a1.107 1.107 0 001.564-1.564z"/></g></svg></svg>