<svg width="52" height="40" viewBox="0 0 52 40" fill="none" xmlns="http://www.w3.org/2000/svg"><path d="M51.175 31.92a7.853 7.853 0 01-7.854 7.854H.676V8.721A7.853 7.853 0 018.53.866h42.645V31.92z" fill="#fff"/><path d="M37.272 23.954h3.246c.095 0 .3-.015.38-.031a1.458 1.458 0 001.14-1.441c0-.76-.522-1.315-1.14-1.441a3.063 3.063 0 00-.38-.032h-3.246v2.945z" fill="url(#paint0_linear)"/><path d="M40.138 3.479a5.606 5.606 0 00-5.606 5.606v5.827h7.934c.19 0 .411.016.554.016 1.79.095 3.12 1.014 3.12 2.613 0 1.267-.903 2.328-2.55 2.581v.064c1.821.126 3.215 1.124 3.215 2.707 0 1.71-1.536 2.803-3.563 2.803h-8.71V37.13h8.235a5.606 5.606 0 005.605-5.606V3.479h-8.234z" fill="url(#paint1_linear)"/><path d="M41.658 17.969c0-.745-.523-1.236-1.124-1.346a1.63 1.63 0 00-.317-.032h-2.945v2.74h2.945c.11 0 .27-.016.317-.032.617-.095 1.124-.586 1.124-1.33z" fill="url(#paint2_linear)"/><path d="M9.1 3.479a5.606 5.606 0 00-5.606 5.606V22.94c1.568.76 3.2 1.267 4.862 1.267 1.948 0 3.009-1.188 3.009-2.771v-6.509h4.83v6.509c0 2.55-1.568 4.592-6.92 4.592-3.231 0-5.765-.697-5.765-.697v11.83h8.235a5.606 5.606 0 005.606-5.607V3.48H9.1z" fill="url(#paint3_linear)"/><path d="M24.619 3.479a5.606 5.606 0 00-5.606 5.606v7.348c1.425-1.22 3.88-1.98 7.87-1.806 2.138.095 4.403.665 4.403.665v2.376c-1.14-.57-2.502-1.109-4.244-1.235-3.025-.222-4.862 1.25-4.862 3.88 0 2.628 1.821 4.1 4.862 3.879 1.758-.127 3.135-.681 4.244-1.235v2.375s-2.265.57-4.402.665c-3.991.174-6.446-.586-7.87-1.805v12.953h8.234a5.606 5.606 0 005.605-5.605V3.48H24.62z" fill="url(#paint4_linear)"/><defs><linearGradient id="paint0_linear" x1="34.529" y1="22.48" x2="48.405" y2="22.48" gradientUnits="userSpaceOnUse"><stop stop-color="#007F49"/><stop offset=".229" stop-color="#008D49"/><stop offset=".743" stop-color="#4FAC48"/><stop offset="1" stop-color="#62BB46"/></linearGradient><linearGradient id="paint1_linear" x1="34.529" y1="20.318" x2="48.405" y2="20.318" gradientUnits="userSpaceOnUse"><stop stop-color="#007F49"/><stop offset=".229" stop-color="#008D49"/><stop offset=".743" stop-color="#4FAC48"/><stop offset="1" stop-color="#62BB46"/></linearGradient><linearGradient id="paint2_linear" x1="34.529" y1="17.964" x2="48.404" y2="17.964" gradientUnits="userSpaceOnUse"><stop stop-color="#007F49"/><stop offset=".229" stop-color="#008D49"/><stop offset=".743" stop-color="#4FAC48"/><stop offset="1" stop-color="#62BB46"/></linearGradient><linearGradient id="paint3_linear" x1="3.463" y1="20.318" x2="17.554" y2="20.318" gradientUnits="userSpaceOnUse"><stop stop-color="#333376"/><stop offset=".475" stop-color="#005999"/><stop offset=".826" stop-color="#006FB3"/><stop offset="1" stop-color="#0077C0"/></linearGradient><linearGradient id="paint4_linear" x1="18.922" y1="20.318" x2="32.607" y2="20.318" gradientUnits="userSpaceOnUse"><stop stop-color="#743237"/><stop offset=".173" stop-color="#8C3039"/><stop offset=".573" stop-color="#BE273F"/><stop offset=".859" stop-color="#DF1E44"/><stop offset="1" stop-color="#ED1846"/></linearGradient></defs></svg>