<svg width="69" height="56" viewBox="0 0 69 56" fill="none" xmlns="http://www.w3.org/2000/svg"><path d="M23.97 48.409v-2.76a1.633 1.633 0 00-1.726-1.743 1.702 1.702 0 00-1.545.782 1.615 1.615 0 00-1.454-.782 1.453 1.453 0 00-1.288.653v-.543h-.956v4.393h.966v-2.433a1.027 1.027 0 011.076-1.169c.635 0 .957.414.957 1.16v2.442h.966v-2.433a1.035 1.035 0 011.076-1.169c.653 0 .966.414.966 1.16v2.442h.961zm5.381-2.194V44.02h-.966v.533a1.664 1.664 0 00-1.38-.644 2.3 2.3 0 100 4.6 1.664 1.664 0 001.38-.644v.534h.957l.01-2.185zm-3.555 0a1.33 1.33 0 111.334 1.407 1.317 1.317 0 01-1.344-1.407h.01zm23.997-2.3c.315 0 .627.059.92.175a2.3 2.3 0 01.75.487c.213.209.381.457.496.732.24.59.24 1.25 0 1.84a2.221 2.221 0 01-.496.731c-.216.21-.47.376-.75.488a2.604 2.604 0 01-1.886 0 2.244 2.244 0 01-1.237-1.219c-.24-.59-.24-1.25 0-1.84a2.245 2.245 0 011.237-1.22c.303-.125.629-.19.957-.188l.009.014zm0 .92a1.428 1.428 0 00-.547.101 1.294 1.294 0 00-.437.29 1.35 1.35 0 00-.29.46 1.6 1.6 0 000 1.14 1.27 1.27 0 00.727.75c.35.138.74.138 1.09 0 .172-.063.328-.162.46-.29.127-.131.226-.288.29-.46a1.6 1.6 0 000-1.14 1.334 1.334 0 00-.29-.46 1.318 1.318 0 00-.46-.29 1.428 1.428 0 00-.552-.129l.009.028zm-15.244 1.38c0-1.38-.855-2.3-2.084-2.3a2.3 2.3 0 10.065 4.6 2.667 2.667 0 001.798-.617l-.46-.708a2.093 2.093 0 01-1.279.46 1.219 1.219 0 01-1.315-1.076h3.261c.014-.115.014-.23.014-.36zm-3.27-.387a1.131 1.131 0 011.154-1.062 1.09 1.09 0 011.113 1.067l-2.267-.005zm7.295-.69a2.83 2.83 0 00-1.38-.377c-.524 0-.837.194-.837.515 0 .322.331.378.745.433l.46.064c.957.138 1.536.543 1.536 1.316s-.736 1.435-2 1.435a3.169 3.169 0 01-1.9-.57l.46-.745c.422.313.937.475 1.462.46.654 0 1.003-.194 1.003-.534 0-.248-.248-.386-.773-.46l-.46-.064c-.984-.139-1.518-.58-1.518-1.298 0-.874.718-1.407 1.84-1.407a3.284 3.284 0 011.79.46l-.428.773zm4.6-.248h-1.56v1.983c0 .46.157.736.635.736.299-.01.59-.096.847-.249l.276.819a2.244 2.244 0 01-1.196.34c-1.132 0-1.528-.607-1.528-1.628v-2h-.892v-.875h.892v-1.334h.966v1.334h1.56v.874zm3.307-.984c.232 0 .462.041.68.12l-.294.92a1.555 1.555 0 00-.597-.111c-.626 0-.92.405-.92 1.132v2.46h-.957v-4.392h.947v.533a1.298 1.298 0 011.16-.644l-.019-.018zm6.615 3.864a.46.46 0 01.317.124.428.428 0 01-.143.708.431.431 0 01-.174.037.46.46 0 01-.414-.267.433.433 0 01.096-.478.46.46 0 01.295-.124h.023zm0 .777a.326.326 0 00.239-.101.341.341 0 00-.24-.58.347.347 0 00-.243.101.34.34 0 000 .46.34.34 0 00.244.102v.018zm.027-.547a.185.185 0 01.12.036.115.115 0 01.041.097.112.112 0 01-.032.083.16.16 0 01-.096.041l.133.152h-.106l-.124-.152h-.041v.152h-.088v-.423l.193.014zm-.1.078v.11h.1a.096.096 0 00.056 0 .046.046 0 000-.041.046.046 0 000-.042.098.098 0 00-.056 0l-.1-.027z" fill="#fff"/><path d="M41.794 10.502h-14.49v26.04h14.49v-26.04z" fill="#7673C0"/><path d="M28.224 23.524a16.532 16.532 0 016.325-13.022 16.56 16.56 0 100 26.04 16.531 16.531 0 01-6.325-13.018z" fill="#EB001B"/><path d="M59.76 33.782v-.516h.217v-.11h-.547v.11h.216v.534l.115-.018zm1.064 0v-.644h-.166l-.193.46-.194-.46h-.17v.644h.12v-.483l.18.418h.123l.18-.419v.488l.12-.005zm.515-10.258a16.56 16.56 0 01-26.79 13.017 16.56 16.56 0 000-26.04A16.56 16.56 0 0161.343 23.52l-.004.005z" fill="#00A1DF"/></svg>