<svg width="62" height="40" viewBox="0 0 62 40" fill="none" xmlns="http://www.w3.org/2000/svg"><path d="M58.907.866h-46.61c-2.18 0-4.288 1.769-4.78 3.962L.346 35.812c-.562 2.194.773 3.962 2.953 3.962h46.61c2.179 0 4.288-1.769 4.85-3.962l7.1-30.984c.563-2.193-.843-3.962-2.952-3.962z" fill="#fff"/><path d="M14.054 2.635h13.99c1.969 0 3.164 1.627 2.742 3.607l-6.538 28.156c-.492 1.98-2.39 3.607-4.359 3.607H5.83c-1.968 0-3.164-1.627-2.742-3.607L9.625 6.242c.492-1.98 2.46-3.607 4.43-3.607z" fill="#DF3333"/><path d="M26.85 2.635h16.098c1.969 0 1.055 1.627.633 3.607l-6.538 28.156c-.422 1.98-.281 3.607-2.25 3.607H18.694c-1.968 0-3.163-1.627-2.742-3.607l6.539-28.156c.492-1.98 2.46-3.607 4.358-3.607z" fill="#004989"/><path d="M42.386 2.635h13.99c1.968 0 3.163 1.627 2.742 3.607L52.58 34.398c-.493 1.98-2.39 3.607-4.36 3.607H34.16c-1.968 0-3.163-1.627-2.741-3.607l6.538-28.156c.492-1.98 2.46-3.607 4.429-3.607z" fill="#00808A"/><path fill-rule="evenodd" clip-rule="evenodd" d="M39.996 29.163h1.335l.352-1.273h-1.336l-.351 1.273zm1.054-3.537l-.422 1.485s.492-.283.774-.353c.28-.071.703-.142.703-.142l.28-.99H41.05zm.703-2.193l-.492 1.485s.492-.212.773-.283c.282-.07.703-.07.703-.07l.352-1.062h-1.336v-.07zm2.883 0l-1.688 5.66h.492l-.351 1.202h-.492l-.07.353H40.91l.14-.353h-3.304l.351-1.061h.352l1.758-5.801.351-1.203h1.687l-.14.566s.421-.283.843-.424c.422-.071 2.812-.142 2.812-.142l-.562 1.203h-.563z" fill="#fff"/><path d="M45.409 22.3h1.757v.637c0 .142.07.142.282.142h.351l-.281 1.132h-.984c-.844.07-1.125-.283-1.125-.707V22.3zm.211 5.165h-1.688l.282-.99h1.898l.281-.92h-1.898l.351-1.132h5.273l-.281 1.203H48.01l-.281.92h1.757l-.28.99h-1.9l-.35.424h.773l.21 1.203c0 .141 0 .212.071.283.07.07.281.07.422.07h.21l-.35 1.203h-1.055c-.211 0-.282-.141-.422-.212-.07-.07-.281-.212-.281-.425l-.211-1.202-.844 1.203c-.281.353-.633.707-1.265.707h-1.195l.351-1.061h.492c.14 0 .281-.071.352-.071.07-.07.14-.07.28-.212l1.126-1.981zm-18.49-2.617h4.43l-.352 1.06H29.45l-.28.92h1.827l-.352 1.132h-1.827l-.422 1.486c-.07.141.422.212.633.212l.913-.142-.351 1.203h-2.039c-.14 0-.281 0-.492-.07-.14-.071-.281-.142-.351-.213-.07-.141-.211-.212-.141-.495l.562-1.98h-.914l.352-1.133h1.054l.282-.92h-.985l.211-1.06zm3.023-1.981h1.828l-.351 1.132h-2.531l-.211.212c-.14.141-.14.07-.281.141-.14.071-.422.213-.844.213h-.844l.352-1.062h.21c.212 0 .352 0 .423-.07.07-.071.14-.142.28-.354l.493-.849h1.758l-.282.637z" fill="#fff"/><path fill-rule="evenodd" clip-rule="evenodd" d="M33.668 24.706s.492-.424 1.336-.637c.211-.07 1.406 0 1.406 0l.211-.636H34.02l-.352 1.273zm2.39.495h-2.53l-.14.495h2.6l.07-.495zm-3.303-2.9H34.3l-.21.778s.491-.424.843-.566c.351-.141 1.125-.212 1.125-.212h2.53l-.843 2.9c-.14.495-.281.85-.422.99-.07.142-.21.284-.422.425-.21.142-.422.212-.562.212h-3.234l-.703 2.264c-.07.212-.07.354-.07.425.07.07.14.141.21.141l1.055-.07-.351 1.06h-2.038c-.211 0-.352 0-.492-.07-.14-.071-.281-.213-.281-.354 0-.142.07-.354.14-.637l2.18-7.286z" fill="#fff"/><path d="M37.324 26.97l-.14.707c-.07.213-.141.354-.282.495-.21.142-.351.283-.843.283h-.844v.779c0 .212.07.212.07.212.07.07.07.07.141.07h.281l.844-.07-.352 1.132h-.984c-.633 0-1.195 0-1.336-.142-.14-.07-.21-.212-.21-.424l.07-3.042h1.546v.637h.352c.14 0 .21 0 .281-.071.07 0 .07-.071.07-.142l.141-.495h1.195v.07zM15.671 11.619c-.07.283-1.054 4.74-1.054 4.74-.211.92-.352 1.556-.844 1.98-.281.283-.633.354-1.054.354-.633 0-.985-.354-1.055-.92v-.212l.211-1.202s1.055-4.104 1.195-4.67v-.07h-2.39c0 .07-.07.283-.07.283L9.555 16.5l-.07.424-.14 1.345c0 .353.07.707.21.92.492.848 1.828.99 2.601.99.984 0 1.898-.213 2.531-.566 1.055-.637 1.406-1.627 1.617-2.547l.14-.424 1.196-4.81v-.072c-1.406-.07-1.828-.07-1.969-.141zm5.835 8.489H19.75v-.07c.07-.284.14-.638.21-.92l.07-.425c.142-.707.282-1.486.352-1.698 0-.141.07-.495-.351-.495-.14 0-.352.07-.563.142a32.06 32.06 0 01-.421 1.839c-.211.99-.211 1.06-.281 1.556l-.07.07h-1.829v-.07l.422-1.698c.352-1.556.422-2.122.563-2.9l.07-.07c.844-.142.984-.142 1.898-.284l.07.07-.14.496c.14-.07.28-.212.422-.283a2.608 2.608 0 011.124-.283c.352 0 .774.07.984.566.141.425.07.92-.14 1.84l-.14.565c-.212 1.061-.282 1.274-.422 2.052h-.07zm2.883 0H22.49c.14-.425.14-.566.21-.708.07-.141.141-.282.211-.707.14-.566.211-.92.282-1.273.07-.354.07-.566.14-.92h.07c.422-.07.703-.07.985-.141.28-.071.562-.071.984-.213v.071c-.07.354-.14.707-.211.99-.07.354-.14.708-.211.99-.14.708-.21.991-.281 1.203-.07.213-.07.283-.07.637l-.211.07zm4.499-2.476c0 .212-.21.849-.422 1.132-.14.212-.351.354-.562.354-.07 0-.422 0-.422-.496 0-.283.07-.495.14-.778.211-.849.422-1.556.985-1.556.422 0 .422.495.281 1.344zm1.828.07c.21-1.06.07-1.626-.211-1.91-.352-.495-.984-.636-1.687-.636-.422 0-1.336.07-2.11.778-.562.495-.773 1.203-.913 1.84-.14.636-.352 1.839.773 2.334.351.141.844.212 1.125.212.843 0 1.617-.212 2.25-.849.492-.637.702-1.485.773-1.768zm17.224 2.477h-1.898l-.07-.071c.21-.849.421-1.627.632-2.476.281-1.061.281-1.556.351-2.122l.07-.071c.844-.142 1.055-.142 1.97-.354v.07c-.141.638-.352 1.345-.493 1.982-.352 1.415-.422 2.122-.562 2.83v.212z" fill="#fff"/><path d="M46.674 17.703c-.07.141-.21.849-.422 1.131-.14.213-.492.354-.703.354-.07 0-.422 0-.422-.495 0-.283.07-.495.141-.778.211-.778.422-1.486.984-1.486.422-.07.563.425.422 1.274zm1.687.07c.282-1.06-.773-.07-.913-.424-.211-.566-.07-1.698-1.055-2.052-.352-.141-1.266.071-2.039.708-.562.495-.773 1.132-.984 1.84-.14.636-.351 1.838.773 2.263.352.141.633.212.984.212 1.125-.07 1.969-1.698 2.531-2.405.492-.566.633.212.703-.142zm-12.865 2.335H33.74v-.07c.07-.284.14-.638.21-.92l.07-.425c.142-.707.282-1.486.352-1.698 0-.141.07-.495-.351-.495-.14 0-.352.07-.492.142a32.06 32.06 0 01-.422 1.839c-.21.99-.21 1.06-.281 1.556l-.07.07h-1.828l-.07-.07.421-1.698c.352-1.556.422-2.122.563-2.9l.07-.07c.843-.142.984-.142 1.898-.284l.07.07-.14.496c.14-.07.28-.212.422-.283a2.855 2.855 0 011.124-.283c.352 0 .774.07.985.566.14.425.07.92-.141 1.84l-.14.495c-.211 1.06-.282 1.273-.352 2.051l-.14.07zm6.116-8.489H38.66c0 .141-.07.283-.07.283l-.563 2.546s-1.336 5.448-1.336 5.66h2.11c.07-.283.35-1.769.35-1.769l.282-1.131s.07-.142.14-.142h.141c1.125 0 2.46 0 3.445-.778.703-.495 1.195-1.274 1.406-2.193.07-.212.07-.495.07-.778 0-.354-.07-.708-.28-.99-.493-.708-1.547-.708-2.743-.708zm.774 2.688c-.14.566-.492 1.061-.985 1.273-.421.213-.843.213-1.335.213h-.352v-.142l.563-2.547v-.211h.21l1.196.07c.633.212.843.707.703 1.344zm12.514.849l-.07-.07c-.844.14-1.055.211-1.829.282l-.07.142v.07c-.562 1.415-.562 1.062-1.054 2.193v-.141l-.141-2.335-.07-.07c-.914.141-.914.212-1.758.283l-.07.07v.071c.07.566.07.425.21 1.273.07.425.141.85.141 1.274.07.707.14 1.061.211 2.122-.562.92-.703 1.273-1.265 2.122v.071h1.617l.14-.141c.492-1.132 4.007-7.216 4.007-7.216zm-29.738.637c.492-.354.492-.778.14-.99-.421-.213-1.124-.142-1.546.14-.492.354-.492.779-.14.991.35.212 1.054.142 1.546-.141z" fill="#fff"/><path d="M50.892 22.3l-.703 1.203c-.21.425-.632.708-1.265.708h-1.125l.352-1.061h.21c.141 0 .211 0 .282-.071.07 0 .07-.07.14-.141l.422-.637h1.687z" fill="#fff"/></svg>