<svg xmlns="http://www.w3.org/2000/svg" viewBox="0 0 28 22" fill="none"><path d="M5.79911 14.5134C6.21875 14.0937 6.42857 13.5893 6.42857 13C6.42857 12.4107 6.21875 11.9062 5.79911 11.4866C5.37946 11.067 4.875 10.8571 4.28571 10.8571C3.69643 10.8571 3.19196 11.067 2.77232 11.4866C2.35268 11.9062 2.14286 12.4107 2.14286 13C2.14286 13.5893 2.35268 14.0937 2.77232 14.5134C3.19196 14.933 3.69643 15.1429 4.28571 15.1429C4.875 15.1429 5.37946 14.933 5.79911 14.5134ZM6.91071 8.71428H20.5179L19.3259 3.93303C19.308 3.86161 19.2455 3.78571 19.1384 3.70536C19.0313 3.61607 18.9375 3.57143 18.8571 3.57143H8.57143C8.49107 3.57143 8.39732 3.61607 8.29018 3.70536C8.18304 3.78571 8.12054 3.86161 8.10268 3.93303L6.91071 8.71428ZM24.6562 14.5134C25.0759 14.0937 25.2857 13.5893 25.2857 13C25.2857 12.4107 25.0759 11.9062 24.6562 11.4866C24.2366 11.067 23.7321 10.8571 23.1429 10.8571C22.5536 10.8571 22.0491 11.067 21.6295 11.4866C21.2098 11.9062 21 12.4107 21 13C21 13.5893 21.2098 14.0937 21.6295 14.5134C22.0491 14.933 22.5536 15.1429 23.1429 15.1429C23.7321 15.1429 24.2366 14.933 24.6562 14.5134ZM27.4286 11.7143V16.8571C27.4286 16.9821 27.3884 17.0848 27.308 17.1652C27.2277 17.2455 27.125 17.2857 27 17.2857H25.7143V19C25.7143 19.7143 25.4643 20.3214 24.9643 20.8214C24.4643 21.3214 23.8571 21.5714 23.1429 21.5714C22.4286 21.5714 21.8214 21.3214 21.3214 20.8214C20.8214 20.3214 20.5714 19.7143 20.5714 19V17.2857H6.85714V19C6.85714 19.7143 6.60714 20.3214 6.10714 20.8214C5.60714 21.3214 5 21.5714 4.28571 21.5714C3.57143 21.5714 2.96429 21.3214 2.46429 20.8214C1.96429 20.3214 1.71429 19.7143 1.71429 19V17.2857H0.428571C0.303571 17.2857 0.200893 17.2455 0.120536 17.1652C0.0401786 17.0848 0 16.9821 0 16.8571V11.7143C0 10.8839 0.290179 10.1786 0.870536 9.59821C1.45982 9.00893 2.16964 8.71428 3 8.71428H3.375L4.78125 3.10268C4.98661 2.26339 5.45089 1.5625 6.17411 0.999999C6.89732 0.42857 7.69643 0.142856 8.57143 0.142856H18.8571C19.7321 0.142856 20.5313 0.42857 21.2545 0.999999C21.9777 1.5625 22.442 2.26339 22.6473 3.10268L24.0536 8.71428H24.4286C25.2589 8.71428 25.9643 9.00893 26.5446 9.59821C27.1339 10.1786 27.4286 10.8839 27.4286 11.7143Z"/></svg>