<svg xmlns="http://www.w3.org/2000/svg" viewBox="0 0 410 29" fill="none"><path fill="currentColor" d="M216 13.025H405V15.025H216z"/><path transform="rotate(-45 400 13.975)" fill="currentColor" d="M400 13.975H407V20.975H400z"/><path transform="rotate(-45 192.364 14.025)" stroke="currentColor" stroke-width="2" d="M192.364 14.025H210.198V31.859H192.364z"/><path transform="rotate(-45 211.414 13.887)" stroke="currentColor" stroke-width="2" d="M211.414 13.887H219.154V21.627000000000002H211.414z"/><path transform="matrix(-1 0 0 1 193.899 13.025)" fill="currentColor" d="M0 0H189V2H0z"/><path transform="scale(-1 1) rotate(-45 11.92 18.937)" fill="currentColor" d="M0 0H7V7H0z"/><path transform="scale(-1 1) rotate(-45 -83.186 244.829)" stroke="currentColor" stroke-width="2" d="M-1.414 0H6.3260000000000005V7.74H-1.414z"/></svg>