<svg xmlns="http://www.w3.org/2000/svg"><defs><font id="GothamPro-BoldItalic" horiz-adv-x="500"><font-face font-family="Gotham Pro" font-weight="700" font-style="italic" panose-1="2 0 8 3 4 0 0 9 0 4" ascent="800" descent="-200" x-height="536" cap-height="700" bbox="-138 -200 1247 932" underline-thickness="20" underline-position="-133" slope="-15" stemh="129" stemv="159" unicode-range="U+0020-FB04"/><glyph glyph-name="fi" unicode="fi" horiz-adv-x="713" d="M570 595l37 135h160l-37-135H570zM23 0l110 406H69l35 130h63l7 29c31 119 105 172 217 172 43 0 79-6 104-15l-33-126c-20 8-45 13-66 13-40 0-64-19-75-58l-4-15h129l-35-130H285L175 0H23zm391 0l144 536h152L566 0H414z"/><glyph glyph-name="fl" unicode="fl" horiz-adv-x="713" d="M414 0l196 730h152L566 0H414zM23 0l110 406H69l35 130h63l7 29c31 119 105 172 217 172 43 0 79-6 104-15l-33-126c-20 8-45 13-66 13-40 0-64-19-75-58l-4-15h129l-35-130H285L175 0H23z"/><glyph glyph-name="ffi" unicode="ffi" horiz-adv-x="1124" d="M981 595l37 135h160l-37-135H981zM434 0l110 406h-64l35 130h63l7 29c29 119 105 172 217 172 43 0 79-6 104-15l-33-126c-20 8-45 13-66 13-40 0-65-20-75-58l-4-15h129l-35-130H696L586 0H434zM23 0l110 406H69l35 130h63l7 29c31 119 105 172 217 172 43 0 79-6 104-15l-33-126c-20 8-45 13-66 13-40 0-64-19-75-58l-4-15h129l-35-130H285L175 0H23zm802 0l144 536h152L977 0H825z"/><glyph glyph-name="ffl" unicode="ffl" horiz-adv-x="1124" d="M434 0l110 406h-64l35 130h63l7 29c29 119 105 172 217 172 43 0 79-6 104-15l-33-126c-20 8-45 13-66 13-40 0-65-20-75-58l-4-15h129l-35-130H696L586 0H434zM23 0l110 406H69l35 130h63l7 29c31 119 105 172 217 172 43 0 79-6 104-15l-33-126c-20 8-45 13-66 13-40 0-64-19-75-58l-4-15h129l-35-130H285L175 0H23zm802 0l196 730h152L977 0H825z"/><glyph glyph-name=".notdef" d="M0 0v700h500V0H0zm81 49h340L250 304zM50 95l170 254L50 605V95zm401 0v510L279 349zM250 395l171 255H81z"/><glyph glyph-name="space" horiz-adv-x="300"/><glyph glyph-name="exclam" unicode="!" horiz-adv-x="325" d="M112 238l71 442 6 20h178l-6-20-165-442h-84zM9 0l43 160h162L171 0H9z"/><glyph glyph-name="quotedbl" unicode="&quot;" horiz-adv-x="528" d="M341 381l84 319h170l-2-5-173-314h-79zm-242 0l84 319h170l-2-5-173-314H99z"/><glyph glyph-name="numbersign" unicode="#" horiz-adv-x="691" d="M40 0l52 150H11l34 128h92l51 148H95l34 128h104l51 146h132l-51-146h145l51 146h132l-51-146h82l-34-128h-93l-51-148h94l-34-128H501L449 0H317l52 150H224L172 0H40zm229 278h145l51 148H320z"/><glyph glyph-name="dollar" unicode="$" horiz-adv-x="636" d="M161-98l33 108C111 27 43 66-5 129l112 94c37-42 80-70 130-83l47 155c-94 35-166 77-166 185 0 126 121 220 276 220h8l18 58h104l-21-71c63-17 113-49 154-91L553 494c-30 28-60 49-92 61l-45-149c96-36 161-83 161-186C577 88 453 0 296 0h-1l-30-98H161zm168 537l39 129c-65-4-92-37-92-72 0-24 13-39 53-57zm1-307c56 5 89 30 89 72 0 25-13 41-49 58z"/><glyph glyph-name="percent" unicode="%" horiz-adv-x="880" d="M238 346c-93 0-154 63-154 154 0 103 78 208 194 208 93 0 154-63 154-154 0-103-78-208-194-208zM60 0l673 700h130L190 0H60zm585-8c-93 0-154 63-154 154 0 103 78 208 194 208 93 0 154-63 154-154C839 97 761-8 645-8zM244 433c55 0 90 64 90 117 0 44-24 71-62 71-55 0-90-64-90-117 0-44 24-71 62-71zM651 79c55 0 90 64 90 117 0 44-24 71-62 71-55 0-90-64-90-117 0-44 24-71 62-71z"/><glyph glyph-name="ampersand" unicode="&amp;" horiz-adv-x="696" d="M515-14l-56 77c-66-46-137-73-214-73C115-10 23 60 23 178c0 85 56 171 198 218-23 40-37 83-37 121 0 103 86 195 223 195 115 0 193-71 193-168 0-68-42-144-189-194l79-106c30 32 58 70 85 113l93-65c-34-52-71-100-109-141l69-93zM348 436c91 33 115 59 115 99 0 27-21 57-63 57-50 0-81-37-81-77 0-20 6-45 29-79zm-86-320c39 0 83 15 128 43L282 308c-80-31-114-77-114-121 0-40 32-71 94-71z"/><glyph glyph-name="quotesingle" unicode="'" horiz-adv-x="286" d="M99 381l84 319h170l-2-5-173-314H99z"/><glyph glyph-name="parenleft" unicode="(" horiz-adv-x="445" d="M241-143C125-50 58 70 58 209c0 218 143 404 395 504l56-113c-196-90-297-238-297-386 0-99 54-187 124-260z"/><glyph glyph-name="parenright" unicode=")" horiz-adv-x="445" d="M2-139L-54-26c196 90 297 238 297 386 0 99-54 187-124 260l95 97c116-93 183-213 183-352C397 147 254-39 2-139z"/><glyph glyph-name="asterisk" unicode="*" horiz-adv-x="430" d="M278 367l-79 21 46 112-113-46-22 80 121 16-96 75 59 59 74-97 16 120 79-21-46-112 113 46 22-80-121-16 96-75-59-59-74 97z"/><glyph glyph-name="plus" unicode="+" horiz-adv-x="649" d="M210 103l48 180H77l37 138h181l48 180h142l-48-180h181l-37-138H400l-48-180H210z"/><glyph glyph-name="comma" unicode="," horiz-adv-x="319" d="M-51-162l-10 63C21-92 59-57 69 0H7l43 160h162L176 25C141-107 68-159-51-162z"/><glyph glyph-name="hyphen" unicode="-" horiz-adv-x="412" d="M44 237l39 146h308l-39-146H44z"/><glyph glyph-name="period" unicode="." horiz-adv-x="319" d="M7 0l43 160h162L169 0H7z"/><glyph glyph-name="slash" unicode="/" horiz-adv-x="530" d="M-135-128l681 926h143L8-128h-143z"/><glyph glyph-name="zero" unicode="0" horiz-adv-x="730" d="M335-12C171-12 62 103 62 279c0 204 138 433 375 433 164 0 273-115 273-291 0-204-138-433-375-433zm12 139c125 0 205 165 205 295 0 99-50 151-127 151-125 0-205-165-205-295 0-99 50-151 127-151z"/><glyph glyph-name="one" unicode="1" horiz-adv-x="434" d="M95 0l145 542-127-29-2 131 220 61h105L247 0H95z"/><glyph glyph-name="two" unicode="2" horiz-adv-x="614" d="M-30 0L4 126l354 244c68 47 102 85 102 130 0 46-34 72-88 72-61 0-112-34-167-87l-94 98c68 77 157 127 268 127 145 0 239-80 239-193 0-86-40-149-165-236L237 133h294L495 0H-30z"/><glyph glyph-name="three" unicode="3" horiz-adv-x="604" d="M242-12C111-12 29 42-17 121l114 84c37-50 79-79 152-79 75 0 132 47 132 98 0 54-52 83-137 83h-43l-6 96 206 165H136l36 132h473l-32-116-226-172c88-21 149-72 149-174C536 97 409-12 242-12z"/><glyph glyph-name="four" unicode="4" horiz-adv-x="659" d="M315 0l40 151H31L16 265l483 440h150L534 276h94l-34-125h-94L460 0H315zM211 276h178l60 224z"/><glyph glyph-name="five" unicode="5" horiz-adv-x="610" d="M250-11C149-11 39 43-9 114l108 91c47-51 99-77 164-77 83 0 142 50 142 109 0 50-41 90-130 90-30 0-68-11-94-22l-78 63 109 332h424l-37-135H314l-40-119c23 5 47 8 71 8 128 0 218-78 218-200 0-139-122-265-313-265z"/><glyph glyph-name="six" unicode="6" horiz-adv-x="643" d="M313-12c-74 0-140 22-182 64-47 47-72 109-72 197 0 133 47 268 137 358 63 63 150 105 254 105 89 0 163-32 216-81l-89-111c-36 32-83 54-140 54-56 0-99-18-136-55-30-30-57-75-72-123 30 30 95 59 161 59 117 0 213-70 213-195 0-141-128-272-290-272zm0 130c81 0 135 61 135 121 0 57-43 92-105 92-83 0-138-55-138-120 0-25 10-47 26-63 19-19 46-30 82-30z"/><glyph glyph-name="seven" unicode="7" horiz-adv-x="609" d="M9 0l435 567H122l36 133h504l-32-116L190 0H9z"/><glyph glyph-name="eight" unicode="8" horiz-adv-x="662" d="M300-10C156-10 32 68 32 188c0 107 77 166 179 191-55 28-85 80-85 135 0 91 88 196 263 196 146 0 248-79 248-188 0-88-58-152-153-175 63-24 107-75 107-149C591 92 483-10 300-10zm78 426c65 0 114 38 115 87 1 44-38 81-111 81-63 0-113-37-114-86-1-46 42-82 110-82zm-70-302c75 0 132 36 133 92 1 50-50 86-127 86s-131-39-132-91c-1-50 50-87 126-87z"/><glyph glyph-name="nine" unicode="9" horiz-adv-x="643" d="M243-12C156-12 77 20 13 77l90 111c45-38 89-62 148-62 54 0 98 18 137 57 30 30 54 70 68 113-30-30-93-58-159-58-117 0-213 67-213 198 0 153 128 276 290 276 67 0 141-21 183-63 47-47 72-109 72-212 0-126-50-255-140-345C424 27 340-12 243-12zm103 374c82 0 136 57 136 124 0 25-9 50-25 66-19 19-46 30-82 30-82 0-136-58-136-126 0-61 45-94 107-94z"/><glyph glyph-name="colon" unicode=":" horiz-adv-x="319" d="M108 376l43 160h162l-43-160H108zM7 0l43 160h162L169 0H7z"/><glyph glyph-name="semicolon" unicode=";" horiz-adv-x="319" d="M108 376l43 160h162l-43-160H108zM-51-162l-10 63C21-92 59-57 69 0H7l43 160h162L176 25C141-107 68-159-51-162z"/><glyph glyph-name="less" unicode="&lt;" horiz-adv-x="640" d="M499 71L72 283l37 138 541 212-41-148-375-139 301-139z"/><glyph glyph-name="equal" unicode="=" horiz-adv-x="640" d="M124 413l37 138h474l-37-138H124zM54 153l37 138h474l-37-138H54z"/><glyph glyph-name="greater" unicode="&gt;" horiz-adv-x="640" d="M32 71l41 148 375 139-301 139 36 136 427-212-37-138z"/><glyph glyph-name="question" unicode="?" horiz-adv-x="544" d="M177 238l20 162 6 5c128 9 200 44 200 102 0 38-26 62-83 62-48 0-100-22-143-59L97 611c64 65 155 98 244 98 141 0 223-87 223-182 0-117-88-193-256-219l-29-70H177zM86 0l43 160h162L248 0H86z"/><glyph glyph-name="at" unicode="@" horiz-adv-x="980" d="M471-155C226-155 55 6 55 233c0 257 214 482 487 482 251 0 405-162 405-344 0-211-118-306-237-306-67 0-118 30-139 77-40-41-90-78-160-78-88 0-161 60-161 169 0 161 127 276 251 276 67 0 105-28 131-70l19 62 111-31-79-249c-23-73 6-109 58-109 71 0 164 90 164 259 0 162-138 304-363 304-251 0-446-207-446-442 0-205 154-349 375-349 74 0 138 15 205 45l16-35c-73-34-141-49-221-49zm-10 320c68 0 138 71 138 159 0 50-36 83-87 83-67 0-135-69-135-156 0-53 32-86 84-86z"/><glyph glyph-name="A" unicode="A" horiz-adv-x="765" d="M-57 0l489 705h148L691 0H533l-22 157H215L109 0H-57zm364 293h186l-32 231z"/><glyph glyph-name="B" unicode="B" horiz-adv-x="717" d="M12 0l188 700h272c165 0 237-78 237-172 0-93-60-153-150-173 58-27 98-70 98-142C657 88 550 0 356 0H12zm262 417h155c79 0 126 27 126 85 0 36-29 63-97 63H313zm-76-282h181c77 0 125 34 125 88 0 41-33 66-96 66H239z"/><glyph glyph-name="C" unicode="C" horiz-adv-x="726" d="M397-12C206-12 67 106 67 293c0 223 190 419 426 419 134 0 224-57 280-149l-127-89c-41 58-88 96-172 96-128 0-247-122-247-271 0-101 71-169 171-169 68 0 112 27 164 69L662 95C595 33 514-12 397-12z"/><glyph glyph-name="D" unicode="D" horiz-adv-x="777" d="M12 0l188 700h204c136 0 221-37 274-90 52-52 76-120 76-205 0-105-40-201-115-276C555 45 434 0 272 0H12zm191 139h87c93 0 178 29 234 85 45 45 70 107 70 175 0 48-15 85-41 111-31 31-82 51-161 51h-75z"/><glyph glyph-name="E" unicode="E" horiz-adv-x="665" d="M12 0l188 700h523l-37-137H316l-38-143h325l-37-135H241l-40-148h376L540 0H12z"/><glyph glyph-name="F" unicode="F" horiz-adv-x="663" d="M12 0l188 700h533l-38-140H316l-40-149h334l-37-140H239L166 0H12z"/><glyph glyph-name="G" unicode="G" horiz-adv-x="780" d="M395-12C235-12 66 83 66 292c0 218 185 420 437 420 148 0 237-57 286-121L675 490c-41 45-96 81-184 81-150 0-265-128-265-274 0-109 80-168 179-168 54 0 94 13 125 27l33 114H408l36 133h304L649 54c-69-39-149-66-254-66z"/><glyph glyph-name="H" unicode="H" horiz-adv-x="756" d="M12 0l188 700h154l-74-277h280l74 277h154L600 0H446l76 281H242L166 0H12z"/><glyph glyph-name="I" unicode="I" horiz-adv-x="336" d="M19 0l188 700h154L173 0H19z"/><glyph glyph-name="J" unicode="J" horiz-adv-x="575" d="M188-10C99-10 12 29-39 107l109 95c39-49 77-69 126-69 38 0 70 15 94 39 22 22 36 49 61 143l103 385h158L499 278c-29-110-52-163-102-213-52-52-121-75-209-75z"/><glyph glyph-name="K" unicode="K" horiz-adv-x="727" d="M12 0l188 700h154l-83-310 346 310h208L484 407 649 0H480L362 315 217 191 166 0H12z"/><glyph glyph-name="L" unicode="L" horiz-adv-x="626" d="M12 0l188 700h154L204 140h349L515 0H12z"/><glyph glyph-name="M" unicode="M" horiz-adv-x="868" d="M12 0l188 700h160l101-296 261 296h178L712 0H556l122 457-274-299h-4L288 454 166 0H12z"/><glyph glyph-name="N" unicode="N" horiz-adv-x="786" d="M12 0l188 700h142l204-445 120 445h152L630 0H499L287 459 164 0H12z"/><glyph glyph-name="O" unicode="O" horiz-adv-x="832" d="M387-12C194-12 67 122 67 298c0 209 170 414 421 414 193 0 320-134 320-310 0-209-170-414-421-414zm18 142c147 0 243 141 243 262 0 104-63 178-178 178-147 0-243-141-243-262 0-104 63-178 178-178z"/><glyph glyph-name="P" unicode="P" horiz-adv-x="679" d="M12 0l188 700h222c100 0 169-20 220-71 36-36 54-83 54-144 0-174-149-273-340-273H223L166 0H12zm247 347h105c102 0 171 46 171 125 0 23-8 43-23 58-21 21-50 31-96 31H316z"/><glyph glyph-name="Q" unicode="Q" horiz-adv-x="832" d="M618-44l-46 74C518 3 455-12 387-12 194-12 67 122 67 298c0 209 170 414 421 414 193 0 320-134 320-310 0-106-43-210-119-288l56-74zM405 130c32 0 62 7 88 18l-90 122 127 85 71-114c30 46 47 100 47 151 0 104-63 178-178 178-147 0-243-141-243-262 0-104 63-178 178-178z"/><glyph glyph-name="R" unicode="R" horiz-adv-x="727" d="M12 0l188 700h255c104 0 175-23 222-70 35-35 54-84 54-141 0-67-23-125-64-166-39-39-93-68-162-84L624 0H449L341 224H226L166 0H12zm251 360h137c60 0 111 15 141 45 18 18 29 42 29 71 0 24-7 41-22 56-19 19-53 29-102 29H317z"/><glyph glyph-name="S" unicode="S" horiz-adv-x="636" d="M295-10C160-10 56 34-10 119l116 98c55-60 116-92 196-92 62 0 107 29 107 73 0 34-25 54-119 92-91 37-172 86-172 189 0 143 128 231 278 231 120 0 203-41 262-104L552 500c-53 49-100 75-168 75-65 0-102-36-102-71 0-37 28-53 123-92 96-39 168-87 168-189C573 76 442-10 295-10z"/><glyph glyph-name="T" unicode="T" horiz-adv-x="620" d="M159 0l150 558H96l38 142h580l-38-142H463L313 0H159z"/><glyph glyph-name="U" unicode="U" horiz-adv-x="764" d="M343-11C181-11 81 76 81 225c0 35 6 73 17 112l97 363h154L248 323c-7-24-11-47-11-76 0-69 43-116 122-116 46 0 84 15 114 44 30 30 53 73 68 130l106 395h154L689 283c-24-90-59-159-108-208-57-57-134-86-238-86z"/><glyph glyph-name="V" unicode="V" horiz-adv-x="724" d="M216-5l-91 705h165l48-488 310 488h173L352-5H216z"/><glyph glyph-name="W" unicode="W" horiz-adv-x="1108" d="M180-5l-50 705h160l18-474 282 476h132l32-476 272 474h174L772-5H629l-34 449L321-5H180z"/><glyph glyph-name="X" unicode="X" horiz-adv-x="700" d="M-51 0l338 363-150 337h173l88-225 196 225h197L462 346 617 0H444l-94 235L146 0H-51z"/><glyph glyph-name="Y" unicode="Y" horiz-adv-x="650" d="M169 0l74 276L98 700h171l82-290 240 290h186L394 262 323 0H169z"/><glyph glyph-name="Z" unicode="Z" horiz-adv-x="689" d="M-19 0l31 117 492 448H144l37 135h568l-32-117-492-448h375L564 0H-19z"/><glyph glyph-name="bracketleft" unicode="[" horiz-adv-x="465" d="M-10-130l223 830h323l-32-119H327L168-11h177l-32-119H-10z"/><glyph glyph-name="backslash" unicode="\" horiz-adv-x="530" d="M326-128L118 798h126l208-926H326z"/><glyph glyph-name="bracketright" unicode="]" horiz-adv-x="465" d="M-62-130l32 119h177l159 592H129l32 119h323L261-130H-62z"/><glyph glyph-name="asciicircum" unicode="^" d="M84 493l204 207h104l92-207h-99l-60 117-122-117H84z"/><glyph glyph-name="underscore" unicode="_" horiz-adv-x="600" d="M-115-160l31 116h604l-31-116h-604z"/><glyph glyph-name="grave" unicode="`" d="M346 595l-95 120 134 57 65-177H346z"/><glyph glyph-name="a" unicode="a" horiz-adv-x="588" d="M163-10C70-10 7 50 7 134c0 124 101 193 231 193 58 0 106-10 151-24l2 7c3 12 6 24 6 40 0 37-26 63-101 63-52 0-104-13-143-29l-24 120c55 23 123 38 199 38 144 0 217-60 217-165 0-28-5-54-12-81L454 0H307l16 62c-43-46-97-72-160-72zm65 104c63 0 118 50 135 108l4 14c-26 10-63 19-100 19-63 0-109-32-109-84 0-33 27-57 70-57z"/><glyph glyph-name="b" unicode="b" horiz-adv-x="674" d="M337-10c-84 0-133 35-168 88L148 0H-3l194 730h152l-67-252c46 43 91 68 151 68 117 0 206-85 206-230 0-190-145-326-296-326zm-20 128c82 0 159 80 159 188 0 70-44 112-112 112-84 0-162-84-162-186 0-68 48-114 115-114z"/><glyph glyph-name="c" unicode="c" horiz-adv-x="560" d="M292-12C146-12 42 84 42 230c0 175 145 316 316 316 118 0 183-54 220-118l-116-82c-27 41-56 70-116 70-80 0-154-87-154-186 0-69 46-113 105-113 47 0 81 19 121 53l78-99c-56-50-113-83-204-83z"/><glyph glyph-name="d" unicode="d" horiz-adv-x="674" d="M246-10C129-10 40 75 40 220c0 190 145 326 296 326 84 0 133-35 168-88l72 272h152L533 0H381l16 58c-46-43-91-68-151-68zm63 128c84 0 162 84 162 186 0 68-48 114-115 114-82 0-159-80-159-188 0-70 44-112 112-112z"/><glyph glyph-name="e" unicode="e" horiz-adv-x="607" d="M184 215c5-63 42-105 122-105 40 0 75 12 119 43l70-94c-48-40-115-71-206-71C135-12 41 78 41 226c0 155 126 320 318 320 139 0 219-90 219-209 0-38-10-81-27-122H184zm13 95h233c3 10 5 22 5 35 0 44-26 79-88 79-69 0-125-46-150-114z"/><glyph glyph-name="f" unicode="f" horiz-adv-x="411" d="M23 0l110 406H69l35 130h63l7 29c31 119 105 172 217 172 43 0 79-6 104-15l-33-126c-20 8-45 13-66 13-40 0-64-19-75-58l-4-15h129l-35-130H285L175 0H23z"/><glyph glyph-name="g" unicode="g" horiz-adv-x="671" d="M250-162c-108 0-212 27-283 75L47 17c56-37 126-59 193-59 51 0 87 14 116 43 23 23 37 54 49 96l5 18c-56-50-102-71-168-71-103 0-199 65-199 187 0 179 145 315 293 315 92 0 135-44 163-93l22 83h152L558 105C529-3 507-45 464-88c-49-49-116-74-214-74zm52 327c84 0 158 71 158 156 0 61-42 98-106 98-85 0-154-76-154-159 0-63 42-95 102-95z"/><glyph glyph-name="h" unicode="h" horiz-adv-x="622" d="M-3 0l194 730h152l-66-250c38 34 86 66 146 66 96 0 158-59 158-156 0-30-9-68-18-102L486 0H334l79 294c4 15 7 35 7 48 0 43-27 66-74 66-60 0-99-43-116-107L149 0H-3z"/><glyph glyph-name="i" unicode="i" horiz-adv-x="302" d="M159 595l37 135h160l-37-135H159zM3 0l144 536h152L155 0H3z"/><glyph glyph-name="j" unicode="j" horiz-adv-x="301" d="M159 595l36 135h160l-36-135H159zM-46-163c-34 0-60 3-83 8l32 119c12-3 22-5 37-5 33 0 60 27 72 73l135 504h152L159 13C123-120 47-163-46-163z"/><glyph glyph-name="k" unicode="k" horiz-adv-x="591" d="M-3 0l196 730h152L243 352l217 184h198L399 327 516 0H346l-76 227-77-62L149 0H-3z"/><glyph glyph-name="l" unicode="l" horiz-adv-x="302" d="M3 0l196 730h152L155 0H3z"/><glyph glyph-name="m" unicode="m" horiz-adv-x="949" d="M-3 0l143 536h152l-15-56c38 34 82 66 142 66 73 0 121-38 142-97 47 57 111 97 192 97 96 0 155-59 155-156 0-30-9-68-18-102L813 0H661l79 294c4 15 7 35 7 48 0 43-24 66-71 66-60 0-97-43-114-107L481 0H329l79 294c4 15 7 35 7 48 0 43-24 66-71 66-60 0-97-43-114-107L149 0H-3z"/><glyph glyph-name="n" unicode="n" horiz-adv-x="619" d="M-3 0l143 536h152l-15-56c38 34 86 66 146 66 96 0 158-59 158-156 0-30-9-68-18-102L486 0H334l79 294c4 15 7 35 7 48 0 43-27 66-74 66-60 0-99-43-116-107L149 0H-3z"/><glyph glyph-name="o" unicode="o" horiz-adv-x="652" d="M300-12C141-12 42 93 42 236c0 160 138 310 310 310 159 0 258-105 258-248 0-160-138-310-310-310zm7 130c93 0 154 100 154 176 0 78-47 122-116 122-93 0-154-100-154-176 0-78 47-122 116-122z"/><glyph glyph-name="p" unicode="p" horiz-adv-x="674" d="M-46-160l186 696h152l-16-58c46 43 91 68 151 68 117 0 206-85 206-230 0-190-145-326-296-326-84 0-133 35-168 88l-63-238H-46zm363 278c82 0 159 80 159 188 0 70-44 112-112 112-84 0-162-84-162-186 0-68 48-114 115-114z"/><glyph glyph-name="q" unicode="q" horiz-adv-x="674" d="M328-200l69 258c-46-43-91-68-151-68C129-10 40 75 40 220c0 190 145 326 296 326 84 0 133-35 168-88l20 78h152L480-200H328zm-19 318c84 0 162 84 162 186 0 68-48 114-115 114-82 0-159-80-159-188 0-70 44-112 112-112z"/><glyph glyph-name="r" unicode="r" horiz-adv-x="419" d="M-3 0l143 536h152l-29-108c54 79 116 125 204 118l-43-159h-8c-101 0-179-58-216-197L149 0H-3z"/><glyph glyph-name="s" unicode="s" d="M217-12C136-12 39 19-24 85l88 91c56-56 116-72 164-72 40 0 64 17 64 47 0 20-25 34-62 50-84 36-156 71-156 157 0 107 82 188 215 188 87 0 167-38 211-77l-82-96c-52 41-96 57-140 57-37 0-59-17-59-45 0-21 26-36 71-56 70-31 147-68 147-152 0-117-92-189-220-189z"/><glyph glyph-name="t" unicode="t" horiz-adv-x="415" d="M192-9C100-9 55 37 55 96c0 22 4 43 10 67l65 243H66l35 130h64l37 137h152l-37-137h126l-35-130H282l-60-225c-2-8-4-18-4-24 0-20 13-32 41-32 24 0 53 6 78 17L302 13C272-1 233-9 192-9z"/><glyph glyph-name="u" unicode="u" horiz-adv-x="622" d="M199-10C103-10 41 49 41 146c0 30 9 68 18 102l77 288h152l-79-294c-4-15-7-35-7-48 0-43 27-66 74-66 60 0 99 43 116 107l81 301h152L482 0H330l15 56c-38-34-86-66-146-66z"/><glyph glyph-name="v" unicode="v" horiz-adv-x="592" d="M150-4L85 536h156l24-357 213 357h163L288-4H150z"/><glyph glyph-name="w" unicode="w" horiz-adv-x="857" d="M109-4L89 536h154l-1-325 188 327h131l14-328 176 326h151L590-4H453l-15 329L245-4H109z"/><glyph glyph-name="x" unicode="x" horiz-adv-x="578" d="M-50 0l262 280L95 536h162l60-150 126 150h181L373 265 491 0H329l-62 159L131 0H-50z"/><glyph glyph-name="y" unicode="y" horiz-adv-x="592" d="M85-163c-55 0-92 14-125 37L41-16c16-12 39-21 59-21 23 0 38 6 59 33L93 536h155l25-364 201 364h164L306-13C236-122 176-163 85-163z"/><glyph glyph-name="z" unicode="z" horiz-adv-x="557" d="M-27 0L2 107l351 306H93l33 123h454l-29-107-352-306h273L439 0H-27z"/><glyph glyph-name="braceleft" unicode="{" horiz-adv-x="490" d="M308-141C173-115 122-67 122 12c0 23 6 49 20 86 10 26 16 55 16 71 0 36-7 60-82 60H44l31 116h32c94 0 125 25 142 153 19 150 100 215 282 217l10-102c-126-12-151-52-161-151-15-138-64-177-163-187 55-8 85-43 85-89 0-27-9-54-18-77-8-22-17-47-17-70 0-41 17-60 91-87z"/><glyph glyph-name="bar" unicode="|" horiz-adv-x="350" d="M132-128v926h120v-926H132z"/><glyph glyph-name="braceright" unicode="}" horiz-adv-x="490" d="M-31-141L-41-39C85-27 109 13 120 112c15 138 64 177 163 187-55 8-85 43-85 89 0 27 9 54 18 77 8 21 17 47 17 70 0 41-17 60-91 87l50 93c135-26 186-74 186-153 0-23-6-49-20-86-10-26-16-55-16-71 0-36 7-60 82-60h32l-31-116h-32c-94 0-126-25-142-153C232-74 151-139-31-141z"/><glyph glyph-name="asciitilde" unicode="~" horiz-adv-x="510" d="M135 220l-80 40c35 78 89 133 153 133 35 0 56-12 79-29 26-19 37-26 53-26 31 0 51 25 70 59l80-40c-35-78-89-133-153-133-35 0-55 12-79 29-26 19-37 26-53 26-31 0-51-25-70-59z"/><glyph glyph-name="nbspace" horiz-adv-x="300"/><glyph glyph-name="uni00A0" horiz-adv-x="300"/><glyph glyph-name="exclamdown" unicode="¡" horiz-adv-x="325" d="M154 540l43 160h162l-43-160H154zM1 0l6 20 165 442h84L185 20l-6-20H1z"/><glyph glyph-name="cent" unicode="¢" horiz-adv-x="586" d="M202 104C117 144 66 222 66 326c0 175 138 308 317 308 9 0 17 0 26-1l28 73h104l-37-94c54-23 90-59 113-99l-115-80c-14 22-31 40-52 52L341 206c50 1 87 19 125 49l80-103c-47-42-113-76-204-76-16 0-31 1-46 3L263-6H159zm161 399c-88-9-148-92-148-175 0-42 17-74 42-95z"/><glyph glyph-name="sterling" unicode="£" horiz-adv-x="644" d="M-13 0l27 101 83 25 38 141H59l34 127h76l25 94c17 64 44 115 80 151 47 47 108 71 187 71 109 0 176-51 214-120l-123-84c-24 39-51 62-102 62-32 0-51-11-68-28-18-18-32-46-41-78l-19-68h231l-34-127H289l-36-134h306L523 0H-13z"/><glyph glyph-name="currency" unicode="¤" horiz-adv-x="720" d="M396-12c-152 0-254 89-272 229H24l27 101h75c3 24 7 46 13 68H69l27 101h73c58 131 173 225 327 225 143 0 218-64 253-163l-131-65c-28 58-59 89-130 89-64 0-113-31-147-86h193l-27-101H303c-8-22-13-45-17-68h203l-27-101H285c13-60 58-90 114-90 58 0 96 22 141 70l104-90C585 36 503-12 396-12z"/><glyph glyph-name="yen" unicode="¥" horiz-adv-x="711" d="M209 0l25 92H50l29 108h184l16 62H95l29 108h143L142 700h166l84-259 225 259h183L495 370h145l-29-108H427l-16-62h184L566 92H382L357 0H209z"/><glyph glyph-name="brokenbar" unicode="¦" horiz-adv-x="222" d="M175 411H47v250h128V411zm0-500H47v250h128V-89z"/><glyph glyph-name="section" unicode="§" horiz-adv-x="632" d="M283-9C181-9 96 26 48 84l95 84c36-36 90-63 148-63 43 0 70 15 70 38 0 22-25 33-102 54-102 28-188 58-188 143 0 65 45 113 136 132-21 20-36 46-36 83 0 91 95 157 223 157 102 0 187-35 235-93l-95-84c-36 36-90 63-148 63-43 0-70-15-70-38 0-22 25-33 102-54 102-28 188-58 188-143 0-65-45-113-136-132 21-20 36-46 36-83C506 57 411-9 283-9zm116 297c34 0 65 21 65 49 0 27-29 40-86 57-49 15-74 21-100 21-34 0-65-21-65-49 0-27 29-40 86-57 49-15 74-21 100-21z"/><glyph glyph-name="dieresis" unicode="¨" d="M371 595l37 135h146l-37-135H371zm-214 0l37 135h146l-37-135H157z"/><glyph glyph-name="copyright" unicode="©" horiz-adv-x="830" d="M435-12C232-12 74 151 74 349s160 363 363 363 361-163 361-361S638-12 435-12zm0 40c183 0 321 145 321 323S619 672 437 672c-183 0-321-145-321-323S253 28 435 28zm5 128c-113 0-197 87-197 198 0 110 82 200 200 200 73 0 116-24 152-59l-55-64c-29 26-60 43-97 43-64 0-110-53-110-119 0-65 45-119 110-119 43 0 69 18 99 45l56-56c-40-43-84-69-158-69z"/><glyph glyph-name="ordfeminine" unicode="ª" horiz-adv-x="390" d="M188 400c-51 0-86 33-86 79 0 69 56 107 127 107 32 0 60-6 84-14l2 7c2 6 3 13 3 17 0 22-16 37-57 37-28 0-57-7-78-16l-14 66c31 13 68 21 110 21 79 0 119-33 119-91 0-15-2-30-6-44l-44-163h-81l9 34c-24-25-53-40-88-40zM51 277l18 66h266l-18-66H51zm173 180c34 0 66 27 74 60l2 8c-14 5-34 10-55 10-36 0-60-18-60-46 0-18 15-32 39-32z"/><glyph glyph-name="guillemotleft" unicode="«" horiz-adv-x="643" d="M424 31L316 255l2 8 237 233 87-80-176-171 80-160zm-270 0L46 255l2 8 237 233 87-80-176-171 80-160z"/><glyph glyph-name="logicalnot" unicode="¬" horiz-adv-x="640" d="M546 238H407l47 174H112l37 135h480z"/><glyph glyph-name="uni00AD" unicode="­" horiz-adv-x="412" d="M44 237l39 146h308l-39-146H44z"/><glyph glyph-name="registered" unicode="®" horiz-adv-x="830" d="M435-12C232-12 74 151 74 349s160 363 363 363 361-163 361-361S638-12 435-12zm0 40c183 0 321 145 321 323S619 672 437 672c-183 0-321-145-321-323S253 28 435 28zM287 168v385h171c92 0 151-47 151-127 0-63-34-102-83-120l94-138h-99l-82 124h-67V168h-85zm85 197h85c43 0 66 23 66 56 0 38-26 57-68 57h-83V365z"/><glyph glyph-name="macron" unicode="¯" d="M159 600l28 105h360l-28-105H159z"/><glyph glyph-name="degree" unicode="°" horiz-adv-x="445" d="M249 363c-99 0-161 65-161 154 0 100 84 192 191 192 99 0 161-65 161-154 0-100-84-192-191-192zm3 78c59 0 99 59 99 111 0 47-30 79-75 79-59 0-99-59-99-111 0-47 30-79 75-79z"/><glyph glyph-name="plusminus" unicode="±" horiz-adv-x="640" d="M581 325H397l-38-145H218l39 145H73l36 134h184l39 145h140l-39-145h184zM485-5H-6l33 126h492z"/><glyph glyph-name="twosuperior" unicode="²" d="M0 0v700h500V0H0zm81 49h340L250 304zM50 95l170 254L50 605V95zm401 0v510L279 349zM250 395l171 255H81z"/><glyph glyph-name="threesuperior" unicode="³" d="M0 0v700h500V0H0zm81 49h340L250 304zM50 95l170 254L50 605V95zm401 0v510L279 349zM250 395l171 255H81z"/><glyph glyph-name="acute" unicode="´" d="M208 595l161 177 128-57-161-120H208z"/><glyph glyph-name="mu" unicode="µ" horiz-adv-x="639" d="M204-4c-27 0-42 12-52 26l-49-182H-46l186 696h151l-80-300c-4-16-6-33-6-46 0-45 22-65 68-65 60 0 121 41 140 113l79 298h150L500 0H349l21 78C327 33 274-4 204-4z"/><glyph glyph-name="paragraph" unicode="¶" horiz-adv-x="599" d="M290 0l56 212c-162 3-259 71-259 212 0 155 113 276 353 276h191L443 0H290z"/><glyph glyph-name="periodcentered" unicode="·" horiz-adv-x="319" d="M64 230l43 160h162l-43-160H64z"/><glyph glyph-name="cedilla" unicode="¸" d="M157-173L44-120 168 10h112z"/><glyph glyph-name="onesuperior" unicode="¹" d="M0 0v700h500V0H0zm81 49h340L250 304zM50 95l170 254L50 605V95zm401 0v510L279 349zM250 395l171 255H81z"/><glyph glyph-name="ordmasculine" unicode="º" horiz-adv-x="402" d="M246 399c-87 0-142 57-142 136 0 89 74 170 170 170 87 0 142-57 142-136 0-89-74-170-170-170zM51 277l18 66h278l-18-66H51zm198 193c52 0 85 51 85 96 0 40-25 68-63 68-52 0-85-51-85-96 0-40 25-68 63-68z"/><glyph glyph-name="guillemotright" unicode="»" horiz-adv-x="643" d="M356 31l-87 80 176 171-80 160 122 54 108-224-2-8zM86 31l-87 80 176 171-80 160 122 54 108-224-2-8z"/><glyph glyph-name="onequarter" unicode="¼" d="M0 0v700h500V0H0zm81 49h340L250 304zM50 95l170 254L50 605V95zm401 0v510L279 349zM250 395l171 255H81z"/><glyph glyph-name="onehalf" unicode="½" d="M0 0v700h500V0H0zm81 49h340L250 304zM50 95l170 254L50 605V95zm401 0v510L279 349zM250 395l171 255H81z"/><glyph glyph-name="threequarters" unicode="¾" d="M0 0v700h500V0H0zm81 49h340L250 304zM50 95l170 254L50 605V95zm401 0v510L279 349zM250 395l171 255H81z"/><glyph glyph-name="questiondown" unicode="¿" horiz-adv-x="544" d="M297 540l43 160h162l-43-160H297zM247-9C106-9 24 78 24 173c0 117 88 193 256 219l29 70h102l-20-162-6-5c-128-9-200-44-200-102 0-38 26-62 83-62 48 0 100 22 143 59l80-101C427 24 336-9 247-9z"/><glyph glyph-name="Agrave" unicode="À" horiz-adv-x="765" d="M-57 0l489 705h148L691 0H533l-22 157H215L109 0H-57zm364 293h186l-32 231zm155 462l-95 120 134 57 65-177H462z"/><glyph glyph-name="Aacute" unicode="Á" horiz-adv-x="765" d="M-57 0l489 705h148L691 0H533l-22 157H215L109 0H-57zm364 293h186l-32 231zm119 462l161 177 128-57-161-120H426z"/><glyph glyph-name="Acircumflex" unicode="Â" horiz-adv-x="765" d="M-57 0l489 705h148L691 0H533l-22 157H215L109 0H-57zm364 293h186l-32 231zm-9 462l165 157h144l81-157H578l-61 66-97-66H298z"/><glyph glyph-name="Atilde" unicode="Ã" horiz-adv-x="765" d="M-57 0l489 705h148L691 0H533l-22 157H215L109 0H-57zm364 293h186l-32 231zm67 455l-80 40c35 78 89 133 153 133 35 0 56-12 79-29 26-19 37-26 53-26 31 0 51 25 70 59l80-40c-35-78-89-133-153-133-35 0-55 12-79 29-26 19-37 26-53 26-31 0-51-25-70-59z"/><glyph glyph-name="Adieresis" unicode="Ä" horiz-adv-x="765" d="M-57 0l489 705h148L691 0H533l-22 157H215L109 0H-57zm364 293h186l-32 231zm236 462l37 135h146l-37-135H543zm-214 0l37 135h146l-37-135H329z"/><glyph glyph-name="Aring" unicode="Å" horiz-adv-x="765" d="M-57 0l480 692c-17 19-26 44-26 71 0 72 59 134 134 134 68 0 110-46 110-104 0-45-23-85-58-110L691 0H533l-22 157H215L109 0H-57zm566 714c41 0 68 39 68 78 0 28-18 50-48 50-41 0-68-39-68-78 0-28 18-50 48-50zM307 293h186l-32 231z"/><glyph glyph-name="AE" unicode="Æ" horiz-adv-x="1058" d="M-61 0l565 700h612l-37-137H729l-38-143h305l-37-135H654l-40-148h356L933 0H425l42 157H231L106 0H-61zm401 293h164l73 274h-19z"/><glyph glyph-name="Ccedilla" unicode="Ç" horiz-adv-x="726" d="M388-12L280-173l-113 53L284 3C154 41 67 145 67 293c0 223 190 419 426 419 134 0 224-57 280-149l-127-89c-41 58-88 96-172 96-128 0-247-122-247-271 0-101 71-169 171-169 68 0 112 27 164 69L662 95C595 33 514-12 397-12h-9z"/><glyph glyph-name="Egrave" unicode="È" horiz-adv-x="665" d="M12 0l188 700h523l-37-137H316l-38-143h325l-37-135H241l-40-148h376L540 0H12zm416 755l-95 120 134 57 65-177H428z"/><glyph glyph-name="Eacute" unicode="É" horiz-adv-x="665" d="M12 0l188 700h523l-37-137H316l-38-143h325l-37-135H241l-40-148h376L540 0H12zm373 755l161 177 128-57-161-120H385z"/><glyph glyph-name="Ecircumflex" unicode="Ê" horiz-adv-x="665" d="M12 0l188 700h523l-37-137H316l-38-143h325l-37-135H241l-40-148h376L540 0H12zm267 755l165 157h144l81-157H559l-61 66-97-66H279z"/><glyph glyph-name="Edieresis" unicode="Ë" horiz-adv-x="665" d="M12 0l188 700h523l-37-137H316l-38-143h325l-37-135H241l-40-148h376L540 0H12zm495 755l37 135h146l-37-135H507zm-214 0l37 135h146l-37-135H293z"/><glyph glyph-name="Igrave" unicode="Ì" horiz-adv-x="336" d="M19 0l188 700h154L173 0H19zm237 755l-95 120 134 57 65-177H256z"/><glyph glyph-name="Iacute" unicode="Í" horiz-adv-x="336" d="M19 0l188 700h154L173 0H19zm191 755l161 177 128-57-161-120H210z"/><glyph glyph-name="Icircumflex" unicode="Î" horiz-adv-x="336" d="M19 0l188 700h154L173 0H19zm73 755l165 157h144l81-157H372l-61 66-97-66H92z"/><glyph glyph-name="Idieresis" unicode="Ï" horiz-adv-x="336" d="M19 0l188 700h154L173 0H19zm312 755l37 135h146l-37-135H331zm-214 0l37 135h146l-37-135H117z"/><glyph glyph-name="Eth" unicode="Ð" horiz-adv-x="797" d="M32 0l76 284H25l37 136h83l75 280h204c136 0 221-37 274-90 52-52 76-120 76-205 0-105-40-201-115-276C575 45 454 0 292 0H32zm191 139h87c93 0 178 29 234 85 45 45 70 107 70 175 0 48-15 85-41 111-31 31-82 51-161 51h-75l-38-141h142l-37-136H262z"/><glyph glyph-name="Ntilde" unicode="Ñ" horiz-adv-x="786" d="M12 0l188 700h142l204-445 120 445h152L630 0H499L287 459 164 0H12zm375 748l-80 40c35 78 89 133 153 133 35 0 56-12 79-29 26-19 37-26 53-26 31 0 51 25 70 59l80-40c-35-78-89-133-153-133-35 0-55 12-79 29-26 19-37 26-53 26-31 0-51-25-70-59z"/><glyph glyph-name="Ograve" unicode="Ò" horiz-adv-x="832" d="M387-12C194-12 67 122 67 298c0 209 170 414 421 414 193 0 320-134 320-310 0-209-170-414-421-414zm18 142c147 0 243 141 243 262 0 104-63 178-178 178-147 0-243-141-243-262 0-104 63-178 178-178zm67 625l-95 120 134 57 65-177H472z"/><glyph glyph-name="Oacute" unicode="Ó" horiz-adv-x="832" d="M387-12C194-12 67 122 67 298c0 209 170 414 421 414 193 0 320-134 320-310 0-209-170-414-421-414zm18 142c147 0 243 141 243 262 0 104-63 178-178 178-147 0-243-141-243-262 0-104 63-178 178-178zm9 625l161 177 128-57-161-120H414z"/><glyph glyph-name="Ocircumflex" unicode="Ô" horiz-adv-x="832" d="M387-12C194-12 67 122 67 298c0 209 170 414 421 414 193 0 320-134 320-310 0-209-170-414-421-414zm18 142c147 0 243 141 243 262 0 104-63 178-178 178-147 0-243-141-243-262 0-104 63-178 178-178zm-86 625l165 157h144l81-157H599l-61 66-97-66H319z"/><glyph glyph-name="Otilde" unicode="Õ" horiz-adv-x="832" d="M387-12C194-12 67 122 67 298c0 209 170 414 421 414 193 0 320-134 320-310 0-209-170-414-421-414zm18 142c147 0 243 141 243 262 0 104-63 178-178 178-147 0-243-141-243-262 0-104 63-178 178-178zm-7 618l-80 40c35 78 89 133 153 133 35 0 56-12 79-29 26-19 37-26 53-26 31 0 51 25 70 59l80-40c-35-78-89-133-153-133-35 0-55 12-79 29-26 19-37 26-53 26-31 0-51-25-70-59z"/><glyph glyph-name="Odieresis" unicode="Ö" horiz-adv-x="832" d="M387-12C194-12 67 122 67 298c0 209 170 414 421 414 193 0 320-134 320-310 0-209-170-414-421-414zm18 142c147 0 243 141 243 262 0 104-63 178-178 178-147 0-243-141-243-262 0-104 63-178 178-178zm151 625l37 135h146l-37-135H556zm-214 0l37 135h146l-37-135H342z"/><glyph glyph-name="multiply" unicode="×" horiz-adv-x="640" d="M586 125l-88-89-170 170L160 36l-88 89c56 57 112 113 169 169L72 463c29 29 58 60 88 89l168-170c57 57 114 113 170 170 30-29 59-60 88-89L417 294c57-56 113-112 169-169z"/><glyph glyph-name="Oslash" unicode="Ø" horiz-adv-x="832" d="M387-12c-81 0-151 24-204 64L121-5H-26l142 130c-32 49-49 108-49 173 0 209 170 414 421 414 85 0 157-26 211-70l68 63h147L764 567c29-47 44-103 44-165 0-209-170-414-421-414zM236 226l347 319c-29 21-67 32-112 32-151 0-250-146-250-270 0-30 5-57 15-81zm168-103c151 0 250 146 250 270 0 26-4 50-11 72L300 149c28-17 63-26 104-26z"/><glyph glyph-name="Ugrave" unicode="Ù" horiz-adv-x="764" d="M343-11C181-11 81 76 81 225c0 35 6 73 17 112l97 363h154L248 323c-7-24-11-47-11-76 0-69 43-116 122-116 46 0 84 15 114 44 30 30 53 73 68 130l106 395h154L689 283c-24-90-59-159-108-208-57-57-134-86-238-86zm120 766l-95 120 134 57 65-177H463z"/><glyph glyph-name="Uacute" unicode="Ú" horiz-adv-x="764" d="M343-11C181-11 81 76 81 225c0 35 6 73 17 112l97 363h154L248 323c-7-24-11-47-11-76 0-69 43-116 122-116 46 0 84 15 114 44 30 30 53 73 68 130l106 395h154L689 283c-24-90-59-159-108-208-57-57-134-86-238-86zm75 766l161 177 128-57-161-120H418z"/><glyph glyph-name="Ucircumflex" unicode="Û" horiz-adv-x="764" d="M343-11C181-11 81 76 81 225c0 35 6 73 17 112l97 363h154L248 323c-7-24-11-47-11-76 0-69 43-116 122-116 46 0 84 15 114 44 30 30 53 73 68 130l106 395h154L689 283c-24-90-59-159-108-208-57-57-134-86-238-86zm-40 766l165 157h144l81-157H583l-61 66-97-66H303z"/><glyph glyph-name="Udieresis" unicode="Ü" horiz-adv-x="764" d="M343-11C181-11 81 76 81 225c0 35 6 73 17 112l97 363h154L248 323c-7-24-11-47-11-76 0-69 43-116 122-116 46 0 84 15 114 44 30 30 53 73 68 130l106 395h154L689 283c-24-90-59-159-108-208-57-57-134-86-238-86zm202 766l37 135h146l-37-135H545zm-214 0l37 135h146l-37-135H331z"/><glyph glyph-name="Yacute" unicode="Ý" horiz-adv-x="650" d="M169 0l74 276L98 700h171l82-290 240 290h186L394 262 323 0H169zm190 755l161 177 128-57-161-120H359z"/><glyph glyph-name="Thorn" unicode="Þ" horiz-adv-x="689" d="M12 0l188 700h154l-27-102h68c100 0 169-20 220-71 36-36 54-83 54-144 0-174-149-273-340-273H196L166 0H12zm220 245h105c102 0 171 46 171 125 0 23-8 43-23 58-21 21-50 31-96 31H289z"/><glyph glyph-name="germandbls" unicode="ß" horiz-adv-x="632" d="M227-2l32 118c124-4 165 48 165 106 0 41-29 75-115 84l27 100c97 22 138 69 138 127 0 50-36 76-79 76-57 0-95-41-115-114L148 0H-3l135 503c20 74 47 125 87 165 43 43 107 69 181 69 138 0 217-82 217-189 0-97-60-161-154-191 56-24 104-65 104-139C567 89 464-9 227-2z"/><glyph glyph-name="agrave" unicode="à" horiz-adv-x="588" d="M163-10C70-10 7 50 7 134c0 124 101 193 231 193 58 0 106-10 151-24l2 7c3 12 6 24 6 40 0 37-26 63-101 63-52 0-104-13-143-29l-24 120c55 23 123 38 199 38 144 0 217-60 217-165 0-28-5-54-12-81L454 0H307l16 62c-43-46-97-72-160-72zm65 104c63 0 118 50 135 108l4 14c-26 10-63 19-100 19-63 0-109-32-109-84 0-33 27-57 70-57zm104 501l-95 120 134 57 65-177H332z"/><glyph glyph-name="aacute" unicode="á" horiz-adv-x="588" d="M163-10C70-10 7 50 7 134c0 124 101 193 231 193 58 0 106-10 151-24l2 7c3 12 6 24 6 40 0 37-26 63-101 63-52 0-104-13-143-29l-24 120c55 23 123 38 199 38 144 0 217-60 217-165 0-28-5-54-12-81L454 0H307l16 62c-43-46-97-72-160-72zm65 104c63 0 118 50 135 108l4 14c-26 10-63 19-100 19-63 0-109-32-109-84 0-33 27-57 70-57zm56 501l161 177 128-57-161-120H284z"/><glyph glyph-name="acircumflex" unicode="â" horiz-adv-x="588" d="M163-10C70-10 7 50 7 134c0 124 101 193 231 193 58 0 106-10 151-24l2 7c3 12 6 24 6 40 0 37-26 63-101 63-52 0-104-13-143-29l-24 120c55 23 123 38 199 38 144 0 217-60 217-165 0-28-5-54-12-81L454 0H307l16 62c-43-46-97-72-160-72zm65 104c63 0 118 50 135 108l4 14c-26 10-63 19-100 19-63 0-109-32-109-84 0-33 27-57 70-57zm-49 501l165 157h144l81-157H459l-61 66-97-66H179z"/><glyph glyph-name="atilde" unicode="ã" horiz-adv-x="588" d="M163-10C70-10 7 50 7 134c0 124 101 193 231 193 58 0 106-10 151-24l2 7c3 12 6 24 6 40 0 37-26 63-101 63-52 0-104-13-143-29l-24 120c55 23 123 38 199 38 144 0 217-60 217-165 0-28-5-54-12-81L454 0H307l16 62c-43-46-97-72-160-72zm65 104c63 0 118 50 135 108l4 14c-26 10-63 19-100 19-63 0-109-32-109-84 0-33 27-57 70-57zm18 494l-80 40c35 78 89 133 153 133 35 0 56-12 79-29 26-19 37-26 53-26 31 0 51 25 70 59l80-40c-35-78-89-133-153-133-35 0-55 12-79 29-26 19-37 26-53 26-31 0-51-25-70-59z"/><glyph glyph-name="adieresis" unicode="ä" horiz-adv-x="588" d="M163-10C70-10 7 50 7 134c0 124 101 193 231 193 58 0 106-10 151-24l2 7c3 12 6 24 6 40 0 37-26 63-101 63-52 0-104-13-143-29l-24 120c55 23 123 38 199 38 144 0 217-60 217-165 0-28-5-54-12-81L454 0H307l16 62c-43-46-97-72-160-72zm65 104c63 0 118 50 135 108l4 14c-26 10-63 19-100 19-63 0-109-32-109-84 0-33 27-57 70-57zm181 501l37 135h146l-37-135H409zm-214 0l37 135h146l-37-135H195z"/><glyph glyph-name="aring" unicode="å" horiz-adv-x="588" d="M163-10C70-10 7 50 7 134c0 124 101 193 231 193 58 0 106-10 151-24l2 7c3 12 6 24 6 40 0 37-26 63-101 63-52 0-104-13-143-29l-24 120c55 23 123 38 199 38 144 0 217-60 217-165 0-28-5-54-12-81L454 0H307l16 62c-43-46-97-72-160-72zm65 104c63 0 118 50 135 108l4 14c-26 10-63 19-100 19-63 0-109-32-109-84 0-33 27-57 70-57zm163 499c-68 0-110 46-110 104 0 72 59 134 134 134 68 0 110-46 110-104 0-72-59-134-134-134zm2 55c41 0 68 39 68 78 0 28-18 50-48 50-41 0-68-39-68-78 0-28 18-50 48-50z"/><glyph glyph-name="ae" unicode="æ" horiz-adv-x="940" d="M418 91C356 27 275-10 178-10 68-10 7 48 7 134c0 124 101 193 231 193 58 0 106-10 151-24l2 7c3 12 6 24 6 40 0 37-26 63-101 63-52 0-104-13-143-29l-24 120c55 23 123 38 199 38 87 0 147-28 176-79 49 49 116 83 193 83 134 0 214-90 214-209 0-38-10-81-27-122H517c5-63 42-105 122-105 40 0 75 12 119 43l70-94c-45-41-119-71-206-71-91 0-164 34-204 103zm112 219h233c3 10 5 22 5 35 0 44-26 79-88 79-69 0-125-46-150-114zM386 208c-43 19-79 27-119 27-63 0-109-32-109-84 0-33 27-57 80-57 47 0 110 24 154 68-3 14-5 30-6 46z"/><glyph glyph-name="ccedilla" unicode="ç" horiz-adv-x="560" d="M296-12L188-173 75-120 194 4C101 38 42 120 42 230c0 175 145 316 316 316 118 0 183-54 220-118l-116-82c-27 41-56 70-116 70-80 0-154-87-154-186 0-69 46-113 105-113 47 0 81 19 121 53l78-99c-55-49-111-82-200-83z"/><glyph glyph-name="egrave" unicode="è" horiz-adv-x="607" d="M184 215c5-63 42-105 122-105 40 0 75 12 119 43l70-94c-48-40-115-71-206-71C135-12 41 78 41 226c0 155 126 320 318 320 139 0 219-90 219-209 0-38-10-81-27-122H184zm13 95h233c3 10 5 22 5 35 0 44-26 79-88 79-69 0-125-46-150-114zm142 285l-95 120 134 57 65-177H339z"/><glyph glyph-name="eacute" unicode="é" horiz-adv-x="607" d="M184 215c5-63 42-105 122-105 40 0 75 12 119 43l70-94c-48-40-115-71-206-71C135-12 41 78 41 226c0 155 126 320 318 320 139 0 219-90 219-209 0-38-10-81-27-122H184zm13 95h233c3 10 5 22 5 35 0 44-26 79-88 79-69 0-125-46-150-114zm89 285l161 177 128-57-161-120H286z"/><glyph glyph-name="ecircumflex" unicode="ê" horiz-adv-x="607" d="M184 215c5-63 42-105 122-105 40 0 75 12 119 43l70-94c-48-40-115-71-206-71C135-12 41 78 41 226c0 155 126 320 318 320 139 0 219-90 219-209 0-38-10-81-27-122H184zm13 95h233c3 10 5 22 5 35 0 44-26 79-88 79-69 0-125-46-150-114zm-14 285l165 157h144l81-157H463l-61 66-97-66H183z"/><glyph glyph-name="edieresis" unicode="ë" horiz-adv-x="607" d="M184 215c5-63 42-105 122-105 40 0 75 12 119 43l70-94c-48-40-115-71-206-71C135-12 41 78 41 226c0 155 126 320 318 320 139 0 219-90 219-209 0-38-10-81-27-122H184zm13 95h233c3 10 5 22 5 35 0 44-26 79-88 79-69 0-125-46-150-114zm219 285l37 135h146l-37-135H416zm-214 0l37 135h146l-37-135H202z"/><glyph glyph-name="igrave" unicode="ì" horiz-adv-x="302" d="M3 0l144 536h152L155 0H3zm203 595l-95 120 134 57 65-177H206z"/><glyph glyph-name="iacute" unicode="í" horiz-adv-x="302" d="M3 0l144 536h152L155 0H3zm145 595l161 177 128-57-161-120H148z"/><glyph glyph-name="icircumflex" unicode="î" horiz-adv-x="302" d="M3 0l144 536h152L155 0H3zm34 595l165 157h144l81-157H317l-61 66-97-66H37z"/><glyph glyph-name="idieresis" unicode="ï" horiz-adv-x="302" d="M3 0l144 536h152L155 0H3zm267 595l37 135h146l-37-135H270zm-214 0l37 135h146l-37-135H56z"/><glyph glyph-name="eth" unicode="ð" horiz-adv-x="638" d="M286-12C139-12 38 82 38 223c0 146 119 263 262 263 65 0 110-21 151-59l-67 145-135-49-36 75 137 50-38 82h150l16-35 118 43 35-75-120-44 38-86c29-66 44-131 44-205 0-188-113-340-307-340zm9 128c86 0 144 74 144 148 0 68-45 114-113 114-82 0-143-68-143-146 0-73 48-116 112-116z"/><glyph glyph-name="ntilde" unicode="ñ" horiz-adv-x="619" d="M-3 0l143 536h152l-15-56c38 34 86 66 146 66 96 0 158-59 158-156 0-30-9-68-18-102L486 0H334l79 294c4 15 7 35 7 48 0 43-27 66-74 66-60 0-99-43-116-107L149 0H-3zm265 588l-80 40c35 78 89 133 153 133 35 0 56-12 79-29 26-19 37-26 53-26 31 0 51 25 70 59l80-40c-35-78-89-133-153-133-35 0-55 12-79 29-26 19-37 26-53 26-31 0-51-25-70-59z"/><glyph glyph-name="ograve" unicode="ò" horiz-adv-x="652" d="M300-12C141-12 42 93 42 236c0 160 138 310 310 310 159 0 258-105 258-248 0-160-138-310-310-310zm7 130c93 0 154 100 154 176 0 78-47 122-116 122-93 0-154-100-154-176 0-78 47-122 116-122zm43 477l-95 120 134 57 65-177H350z"/><glyph glyph-name="oacute" unicode="ó" horiz-adv-x="652" d="M300-12C141-12 42 93 42 236c0 160 138 310 310 310 159 0 258-105 258-248 0-160-138-310-310-310zm7 130c93 0 154 100 154 176 0 78-47 122-116 122-93 0-154-100-154-176 0-78 47-122 116-122zm-20 477l161 177 128-57-161-120H287z"/><glyph glyph-name="ocircumflex" unicode="ô" horiz-adv-x="652" d="M300-12C141-12 42 93 42 236c0 160 138 310 310 310 159 0 258-105 258-248 0-160-138-310-310-310zm7 130c93 0 154 100 154 176 0 78-47 122-116 122-93 0-154-100-154-176 0-78 47-122 116-122zM188 595l165 157h144l81-157H468l-61 66-97-66H188z"/><glyph glyph-name="otilde" unicode="õ" horiz-adv-x="652" d="M300-12C141-12 42 93 42 236c0 160 138 310 310 310 159 0 258-105 258-248 0-160-138-310-310-310zm7 130c93 0 154 100 154 176 0 78-47 122-116 122-93 0-154-100-154-176 0-78 47-122 116-122zm-52 470l-80 40c35 78 89 133 153 133 35 0 56-12 79-29 26-19 37-26 53-26 31 0 51 25 70 59l80-40c-35-78-89-133-153-133-35 0-55 12-79 29-26 19-37 26-53 26-31 0-51-25-70-59z"/><glyph glyph-name="odieresis" unicode="ö" horiz-adv-x="652" d="M300-12C141-12 42 93 42 236c0 160 138 310 310 310 159 0 258-105 258-248 0-160-138-310-310-310zm7 130c93 0 154 100 154 176 0 78-47 122-116 122-93 0-154-100-154-176 0-78 47-122 116-122zm113 477l37 135h146l-37-135H420zm-214 0l37 135h146l-37-135H206z"/><glyph glyph-name="divide" unicode="÷" horiz-adv-x="640" d="M193 61l41 149h146L340 61H193zM88 287l37 135h480l-36-135H88zm223 211l40 150h146l-40-150H311z"/><glyph glyph-name="oslash" unicode="ø" horiz-adv-x="652" d="M300-12c-69 0-126 20-169 53L80-5H-53L73 109c-20 37-31 80-31 127 0 160 138 310 310 310 66 0 122-18 164-50l49 45h133L576 430c22-37 34-82 34-132 0-160-138-310-310-310zM189 205l222 202c-18 10-38 14-62 14-101 0-163-103-163-181 0-13 1-24 3-35zm114-92c101 0 163 103 163 181 0 15-1 30-4 42L236 130c18-11 41-17 67-17z"/><glyph glyph-name="ugrave" unicode="ù" horiz-adv-x="622" d="M199-10C103-10 41 49 41 146c0 30 9 68 18 102l77 288h152l-79-294c-4-15-7-35-7-48 0-43 27-66 74-66 60 0 99 43 116 107l81 301h152L482 0H330l15 56c-38-34-86-66-146-66zm169 605l-95 120 134 57 65-177H368z"/><glyph glyph-name="uacute" unicode="ú" horiz-adv-x="622" d="M199-10C103-10 41 49 41 146c0 30 9 68 18 102l77 288h152l-79-294c-4-15-7-35-7-48 0-43 27-66 74-66 60 0 99 43 116 107l81 301h152L482 0H330l15 56c-38-34-86-66-146-66zm100 605l161 177 128-57-161-120H299z"/><glyph glyph-name="ucircumflex" unicode="û" horiz-adv-x="622" d="M199-10C103-10 41 49 41 146c0 30 9 68 18 102l77 288h152l-79-294c-4-15-7-35-7-48 0-43 27-66 74-66 60 0 99 43 116 107l81 301h152L482 0H330l15 56c-38-34-86-66-146-66zm-4 605l165 157h144l81-157H475l-61 66-97-66H195z"/><glyph glyph-name="udieresis" unicode="ü" horiz-adv-x="622" d="M199-10C103-10 41 49 41 146c0 30 9 68 18 102l77 288h152l-79-294c-4-15-7-35-7-48 0-43 27-66 74-66 60 0 99 43 116 107l81 301h152L482 0H330l15 56c-38-34-86-66-146-66zm229 605l37 135h146l-37-135H428zm-214 0l37 135h146l-37-135H214z"/><glyph glyph-name="yacute" unicode="ý" horiz-adv-x="592" d="M85-163c-55 0-92 14-125 37L41-16c16-12 39-21 59-21 23 0 38 6 59 33L93 536h155l25-364 201 364h164L306-13C236-122 176-163 85-163zm210 758l161 177 128-57-161-120H295z"/><glyph glyph-name="thorn" unicode="þ" horiz-adv-x="674" d="M-46-160l238 890h152l-68-252c46 43 91 68 151 68 117 0 206-85 206-230 0-190-145-326-296-326-84 0-133 35-168 88l-63-238H-46zm363 278c82 0 159 80 159 188 0 70-44 112-112 112-84 0-162-84-162-186 0-68 48-114 115-114z"/><glyph glyph-name="ydieresis" unicode="ÿ" horiz-adv-x="592" d="M85-163c-55 0-92 14-125 37L41-16c16-12 39-21 59-21 23 0 38 6 59 33L93 536h155l25-364 201 364h164L306-13C236-122 176-163 85-163zm318 758l37 135h146l-37-135H403zm-214 0l37 135h146l-37-135H189z"/><glyph glyph-name="dotlessi" unicode="ı" horiz-adv-x="302" d="M3 0l144 536h152L155 0H3z"/><glyph glyph-name="Lslash" unicode="Ł" horiz-adv-x="657" d="M43 0l70 262-81-22 39 143 81 22 79 295h149l-67-250 210 58-38-143-210-58-45-167h354L546 0H43z"/><glyph glyph-name="lslash" unicode="ł" horiz-adv-x="359" d="M34 0l75 279-81-22 38 143 81 22 83 308h152l-71-262 81 22-38-143-81-22L186 0H34z"/><glyph glyph-name="OE" unicode="Œ" horiz-adv-x="1071" d="M417 0C281 0 198 35 138 95c-45 45-71 115-71 200 0 105 40 201 115 276 84 84 205 129 367 129h580l-37-137H742l-38-143h305l-37-135H667l-40-148h356L946 0H417zm12 139h45l114 422h-57c-93 0-178-29-234-85-45-45-70-107-70-175 0-48 15-85 41-111 31-31 82-51 161-51z"/><glyph glyph-name="oe" unicode="œ" horiz-adv-x="1028" d="M605 215c5-63 42-105 122-105 40 0 75 12 119 43l70-94c-45-41-119-71-206-71-95 0-163 35-199 98-50-59-123-98-210-98C142-12 42 93 42 236c0 162 135 310 309 310 101 0 171-41 207-106 51 63 126 106 222 106 139 0 219-90 219-209 0-38-10-81-27-122H605zm13 95h233c3 10 5 22 5 35 0 44-26 79-88 79-69 0-125-46-150-114zM306 118c95 0 155 92 155 175 0 73-46 123-115 123-95 0-155-92-155-175 0-73 46-123 115-123z"/><glyph glyph-name="Scaron" unicode="Š" horiz-adv-x="636" d="M295-10C160-10 56 34-10 119l116 98c55-60 116-92 196-92 62 0 107 29 107 73 0 34-25 54-119 92-91 37-172 86-172 189 0 143 128 231 278 231 120 0 203-41 262-104L552 500c-53 49-100 75-168 75-65 0-102-36-102-71 0-37 28-53 123-92 96-39 168-87 168-189C573 76 442-10 295-10zm63 765l-81 157h110l61-66 97 66h122L502 755H358z"/><glyph glyph-name="scaron" unicode="š" d="M217-12C136-12 39 19-24 85l88 91c56-56 116-72 164-72 40 0 64 17 64 47 0 20-25 34-62 50-84 36-156 71-156 157 0 107 82 188 215 188 87 0 167-38 211-77l-82-96c-52 41-96 57-140 57-37 0-59-17-59-45 0-21 26-36 71-56 70-31 147-68 147-152 0-117-92-189-220-189zm45 607l-81 157h110l61-66 97 66h122L406 595H262z"/><glyph glyph-name="Ydieresis" unicode="Ÿ" horiz-adv-x="650" d="M169 0l74 276L98 700h171l82-290 240 290h186L394 262 323 0H169zm302 755l37 135h146l-37-135H471zm-214 0l37 135h146l-37-135H257z"/><glyph glyph-name="Zcaron" unicode="Ž" horiz-adv-x="689" d="M-19 0l31 117 492 448H144l37 135h568l-32-117-492-448h375L564 0H-19zm410 755l-81 157h110l61-66 97 66h122L535 755H391z"/><glyph glyph-name="zcaron" unicode="ž" horiz-adv-x="557" d="M-27 0L2 107l351 306H93l33 123h454l-29-107-352-306h273L439 0H-27zm307 595l-81 157h110l61-66 97 66h122L424 595H280z"/><glyph glyph-name="florin" unicode="ƒ" horiz-adv-x="543" d="M61-9C21-9-6-5-29 0L4 122c16-4 28-6 47-6 26 0 54 17 74 62l74 166h-72l34 125h94l38 86c44 101 111 154 204 154 59 0 93-8 122-20l-33-124c-22 10-44 16-78 16-40 0-66-25-86-70l-19-42h120l-34-125H347l-94-212C207 28 139-9 61-9z"/><glyph glyph-name="circumflex" unicode="ˆ" d="M143 595l165 157h144l81-157H423l-61 66-97-66H143z"/><glyph glyph-name="caron" unicode="ˇ" d="M262 595l-81 157h110l61-66 97 66h122L406 595H262z"/><glyph glyph-name="breve" unicode="˘" d="M359 593c-117 0-170 76-170 154v5h104c2-32 30-60 77-60 36 0 71 28 93 60h105c-31-97-117-159-209-159z"/><glyph glyph-name="dotaccent" unicode="˙" d="M264 595l37 135h150l-37-135H264z"/><glyph glyph-name="ring" unicode="˚" d="M357 593c-68 0-110 46-110 104 0 72 59 134 134 134 68 0 110-46 110-104 0-72-59-134-134-134zm2 55c41 0 68 39 68 78 0 28-18 50-48 50-41 0-68-39-68-78 0-28 18-50 48-50z"/><glyph glyph-name="ogonek" unicode="˛" d="M232-164c-113-9-175 20-175 80 0 29 18 66 38 94h104c-13-23-20-45-20-60 0-28 21-44 71-47z"/><glyph glyph-name="tilde" unicode="˜" d="M220 588l-80 40c35 78 89 133 153 133 35 0 56-12 79-29 26-19 37-26 53-26 31 0 51 25 70 59l80-40c-35-78-89-133-153-133-35 0-55 12-79 29-26 19-37 26-53 26-31 0-51-25-70-59z"/><glyph glyph-name="hungarumlaut" unicode="˝" d="M318 595l161 177 113-57-163-120H318zm-195 0l159 177 113-57-161-120H123z"/><glyph glyph-name="Omega" unicode="Ω" horiz-adv-x="782" d="M654 0H369l60 223c120 17 200 131 200 234 0 77-55 135-148 135-136 0-243-114-243-241 0-60 32-118 100-128-19-75-39-149-59-223H-5C5 38 15 78 26 117h179l11 39C133 180 94 268 94 352c0 233 207 359 410 359 155 0 273-98 273-235 0-134-104-286-260-320l-11-39h179c-11-39-20-79-31-117z"/><glyph glyph-name="pi" unicode="π" d="M0 0v700h500V0H0zm81 49h340L250 304zM50 95l170 254L50 605V95zm401 0v510L279 349zM250 395l171 255H81z"/><glyph glyph-name="afii10023" unicode="Ё" horiz-adv-x="665" d="M12 0l188 700h523l-37-137H316l-38-143h325l-37-135H241l-40-148h376L540 0H12zm495 755l37 135h146l-37-135H507zm-214 0l37 135h146l-37-135H293z"/><glyph glyph-name="afii10051" unicode="Ђ" horiz-adv-x="848" d="M488-52c-54 0-102 10-127 20l49 129c15-5 31-7 53-7 89 0 150 51 150 136 0 47-35 88-98 88-62 0-116-20-161-54L284 0H130l152 563H91l37 137h583l-36-137H435l-44-163c63 35 129 56 200 56 113 0 191-84 191-198C782 83 655-52 488-52z"/><glyph glyph-name="afii10052" unicode="Ѓ" horiz-adv-x="576" d="M13 0l187 700h470l-36-137H318L166 0H13zm331 755l161 177 128-57-161-120H344z"/><glyph glyph-name="afii10053" unicode="Є" horiz-adv-x="726" d="M247 417h266l-31-128H227c6-86 65-166 168-166 73 0 130 30 180 80l88-100C597 36 506-12 392-12 202-12 67 101 67 292c0 213 169 420 417 420 128 0 232-58 280-147l-124-86c-33 56-84 96-162 96-110 0-193-68-231-158z"/><glyph glyph-name="afii10054" unicode="Ѕ" horiz-adv-x="636" d="M295-10C160-10 56 34-10 119l116 98c55-60 116-92 196-92 62 0 107 29 107 73 0 34-25 54-119 92-91 37-172 86-172 189 0 143 128 231 278 231 120 0 203-41 262-104L552 500c-53 49-100 75-168 75-65 0-102-36-102-71 0-37 28-53 123-92 96-39 168-87 168-189C573 76 442-10 295-10z"/><glyph glyph-name="afii10055" unicode="І" horiz-adv-x="336" d="M19 0l188 700h154L173 0H19z"/><glyph glyph-name="afii10056" unicode="Ї" horiz-adv-x="336" d="M19 0l188 700h154L173 0H19zm302 755l37 135h146l-37-135H321zm-214 0l37 135h146l-37-135H107z"/><glyph glyph-name="afii10057" unicode="Ј" horiz-adv-x="575" d="M188-10C99-10 12 29-39 107l109 95c39-49 77-69 126-69 38 0 70 15 94 39 22 22 36 49 61 143l103 385h158L499 278c-29-110-52-163-102-213-52-52-121-75-209-75z"/><glyph glyph-name="afii10058" unicode="Љ" horiz-adv-x="1110" d="M35-9C-11-9-60 1-74 8l45 118c9-3 35-6 49-6 55 0 124 13 238 439l38 141h496l-63-238h103c157 0 249-81 249-193C1081 95 941 0 746 0H452l150 563H407l-20-71C261 44 161-9 35-9zm607 146h116c96 0 165 36 165 116 0 46-38 80-107 80H695z"/><glyph glyph-name="afii10059" unicode="Њ" horiz-adv-x="1115" d="M12 0l188 700h154l-70-260h280l70 260h154l-70-260h131c147 0 237-76 237-184C1086 91 953 0 766 0H446l85 312H251L166 0H12zm623 134h136c92 0 158 32 158 109 0 44-36 75-104 75H685z"/><glyph glyph-name="afii10060" unicode="Ћ" horiz-adv-x="852" d="M131 0l151 563H92l36 137h583l-36-137H435l-43-160c54 27 133 52 199 52 116 0 192-54 192-154 0-20-3-42-9-66L711 0H557l48 178c6 22 9 40 9 57 0 50-30 79-91 79-55 0-117-16-168-48L284 0H131z"/><glyph glyph-name="afii10061" unicode="Ќ" horiz-adv-x="727" d="M12 0l188 700h154l-83-310 346 310h208L484 407 649 0H480L362 315 217 191 166 0H12zm377 755l161 177 128-57-161-120H389z"/><glyph glyph-name="afii10062" unicode="Ў" horiz-adv-x="709" d="M144-11C82-11 24 5-12 31l91 112c23-17 50-23 77-23s67 10 102 57l4 5-144 518h164l91-364 264 364h175L415 159C324 35 241-11 144-11zm324 759c-89 0-149 54-151 142l90 16c7-39 25-64 66-64 42 0 70 25 88 64l86-16c-26-88-90-142-179-142z"/><glyph glyph-name="afii10145" unicode="Џ" horiz-adv-x="746" d="M188-146L227 0H12l187 700h154L202 136h271l151 564h154L590 0H376l-39-146H188z"/><glyph glyph-name="afii10017" unicode="А" horiz-adv-x="765" d="M-57 0l489 705h148L691 0H533l-22 157H215L109 0H-57zm364 293h186l-32 231z"/><glyph glyph-name="afii10018" unicode="Б" horiz-adv-x="700" d="M13 0l187 700h520l-35-134H319l-35-126h138c148 0 237-75 237-184C659 88 522 0 332 0H13zm189 136h148c88 0 152 34 152 108 0 42-36 75-100 75H251z"/><glyph glyph-name="afii10019" unicode="В" horiz-adv-x="717" d="M12 0l188 700h272c165 0 237-78 237-172 0-93-60-153-150-173 58-27 98-70 98-142C657 88 550 0 356 0H12zm186 135h181c77 0 125 34 125 88 0 41-33 66-96 66H239zm76 282h155c79 0 126 27 126 85 0 36-29 63-97 63H313z"/><glyph glyph-name="afii10020" unicode="Г" horiz-adv-x="576" d="M13 0l187 700h470l-36-137H318L166 0H13z"/><glyph glyph-name="afii10021" unicode="Д" horiz-adv-x="769" d="M-87-146l74 283h61c77 94 141 204 209 454l29 109h511L646 137h84l-95-283H505L544 0H100L49-146H-87zm302 283h277l115 427H399l-26-90c-38-131-95-257-158-337z"/><glyph glyph-name="afii10022" unicode="Е" horiz-adv-x="665" d="M12 0l188 700h523l-37-137H316l-38-143h325l-37-135H241l-40-148h376L540 0H12z"/><glyph glyph-name="afii10024" unicode="Ж" horiz-adv-x="1071" d="M-75 0l380 419-165 281h169l176-322 86 322h154l-84-314 333 314h195L834 398 990 0H818L705 291 588 190 538 0H384l53 200-56 94L124 0H-75z"/><glyph glyph-name="afii10025" unicode="З" horiz-adv-x="619" d="M258-12C112-12 26 49-20 119l106 88c43-56 94-84 174-84 83 0 134 42 134 92 0 53-45 75-115 75h-69l32 126h68c85 0 145 31 145 90 0 46-42 72-97 72-62 0-111-23-164-66l-80 98c62 57 146 102 262 102 143 0 235-78 235-178 0-98-68-159-176-185 64-22 114-70 114-146C549 77 424-12 258-12z"/><glyph glyph-name="afii10026" unicode="И" horiz-adv-x="765" d="M12 0l188 700h151L229 242l424 458h144L610 0H458l121 458L155 0H12z"/><glyph glyph-name="afii10027" unicode="Й" horiz-adv-x="765" d="M503 748c-89 0-149 54-151 142l90 16c7-39 25-64 66-64 42 0 70 25 88 64l86-16c-26-88-90-142-179-142zM12 0l188 700h151L229 242l424 458h144L610 0H458l121 458L155 0H12z"/><glyph glyph-name="afii10028" unicode="К" horiz-adv-x="727" d="M12 0l188 700h154l-83-310 346 310h208L484 407 649 0H480L362 315 217 191 166 0H12z"/><glyph glyph-name="afii10029" unicode="Л" horiz-adv-x="760" d="M35-9C-11-9-60 1-74 8l45 118c9-3 35-6 49-6 55 0 124 13 238 439l38 141h496L605 0H452l150 563H407l-20-71C261 44 161-9 35-9z"/><glyph glyph-name="afii10030" unicode="М" horiz-adv-x="868" d="M12 0l188 700h160l101-296 261 296h178L712 0H556l122 457-274-299h-4L288 454 166 0H12z"/><glyph glyph-name="afii10031" unicode="Н" horiz-adv-x="756" d="M12 0l188 700h154l-74-277h280l74 277h154L600 0H446l76 281H242L166 0H12z"/><glyph glyph-name="afii10032" unicode="О" horiz-adv-x="832" d="M387-12C194-12 67 122 67 298c0 209 170 414 421 414 193 0 320-134 320-310 0-209-170-414-421-414zm18 142c147 0 243 141 243 262 0 104-63 178-178 178-147 0-243-141-243-262 0-104 63-178 178-178z"/><glyph glyph-name="afii10033" unicode="П" horiz-adv-x="746" d="M12 0l188 700h578L590 0H435l151 563H316L166 0H12z"/><glyph glyph-name="afii10034" unicode="Р" horiz-adv-x="679" d="M12 0l188 700h222c100 0 169-20 220-71 36-36 54-83 54-144 0-174-149-273-340-273H223L166 0H12zm247 347h105c102 0 171 46 171 125 0 23-8 43-23 58-21 21-50 31-96 31H316z"/><glyph glyph-name="afii10035" unicode="С" horiz-adv-x="726" d="M397-12C206-12 67 106 67 293c0 223 190 419 426 419 134 0 224-57 280-149l-127-89c-41 58-88 96-172 96-128 0-247-122-247-271 0-101 71-169 171-169 68 0 112 27 164 69L662 95C595 33 514-12 397-12z"/><glyph glyph-name="afii10036" unicode="Т" horiz-adv-x="620" d="M159 0l150 558H96l38 142h580l-38-142H463L313 0H159z"/><glyph glyph-name="afii10037" unicode="У" horiz-adv-x="709" d="M144-11C82-11 24 5-12 31l91 112c23-17 50-23 77-23s67 10 102 57l4 5-144 518h164l91-364 264 364h175L415 159C324 35 241-11 144-11z"/><glyph glyph-name="afii10038" unicode="Ф" horiz-adv-x="922" d="M296-29l21 79C138 61 48 170 48 313c0 195 155 349 399 349h35l18 66h155l-18-66c181-9 273-117 273-258 0-196-154-354-398-354h-39l-21-79H296zm58 215l92 340h-19c-129 0-219-79-219-197 0-83 51-139 146-143zm155 0h23c127 0 219 77 219 196 0 84-53 140-150 144z"/><glyph glyph-name="afii10039" unicode="Х" horiz-adv-x="700" d="M-51 0l338 363-150 337h173l88-225 196 225h197L462 346 617 0H444l-94 235L146 0H-51z"/><glyph glyph-name="afii10040" unicode="Ц" horiz-adv-x="750" d="M486-146L525 0H12l188 700h153L201 137h272l151 563h154L626 137h84l-94-283H486z"/><glyph glyph-name="afii10041" unicode="Ч" horiz-adv-x="713" d="M405 0l70 264c-54-27-133-49-199-49-118 0-174 71-174 170 0 24 4 51 11 77l65 238h153l-60-226c-5-18-7-34-7-48 0-48 25-73 87-73 56 0 112 20 160 48l81 299h153L558 0H405z"/><glyph glyph-name="afii10042" unicode="Ш" horiz-adv-x="1098" d="M12 0l187 700h154L201 137h236l151 563h153L590 137h236l151 563h153L943 0H12z"/><glyph glyph-name="afii10043" unicode="Щ" horiz-adv-x="1103" d="M839-146L879 0H12l187 700h154L201 137h236l151 563h153L590 137h236l151 563h154L980 137h84l-94-283H839z"/><glyph glyph-name="afii10044" unicode="Ъ" horiz-adv-x="775" d="M117 0l151 563H100l36 137h321l-63-238h103c157 0 249-81 249-193C746 95 606 0 411 0H117zm190 137h116c96 0 165 36 165 116 0 46-38 80-107 80H360z"/><glyph glyph-name="afii10045" unicode="Ы" horiz-adv-x="965" d="M12 0l187 700h153l-63-238h103c157 0 249-81 249-193C641 95 501 0 306 0H12zm190 137h116c96 0 165 36 165 116 0 46-38 80-107 80H255zM657 0l187 700h153L810 0H657z"/><glyph glyph-name="afii10046" unicode="Ь" horiz-adv-x="670" d="M12 0l187 700h153l-63-238h103c157 0 249-81 249-193C641 95 501 0 306 0H12zm190 137h116c96 0 165 36 165 116 0 46-38 80-107 80H255z"/><glyph glyph-name="afii10047" unicode="Э" horiz-adv-x="726" d="M284-12C153-12 48 47 1 139l124 85c33-58 84-97 164-97 113 0 198 73 230 162H257l29 128h251c-12 93-71 158-167 158-73 0-130-28-180-79l-88 99c66 68 158 117 270 117 184 0 326-117 326-308 0-213-166-416-414-416z"/><glyph glyph-name="afii10048" unicode="Ю" horiz-adv-x="1083" d="M659-13c-182 0-295 130-302 297H241L165 0H11l188 700h153l-75-281h99c54 167 206 294 384 294 183 0 299-131 299-304 0-228-177-422-400-422zm15 137c124 0 226 122 226 269 0 104-61 182-160 182-124 0-226-123-226-270 0-104 62-181 160-181z"/><glyph glyph-name="afii10049" unicode="Я" horiz-adv-x="722" d="M-33 0l253 258c-78 32-118 93-118 177 0 164 136 265 339 265h313L567 0H413l62 231H370L158 0H-33zm411 354h129l56 211H437c-112 0-175-47-175-124 0-57 48-87 116-87z"/><glyph glyph-name="afii10065" unicode="а" horiz-adv-x="588" d="M163-10C70-10 7 50 7 134c0 124 101 193 231 193 58 0 106-10 151-24l2 7c3 12 6 24 6 40 0 37-26 63-101 63-52 0-104-13-143-29l-24 120c55 23 123 38 199 38 144 0 217-60 217-165 0-28-5-54-12-81L454 0H307l16 62c-43-46-97-72-160-72zm65 104c63 0 118 50 135 108l4 14c-26 10-63 19-100 19-63 0-109-32-109-84 0-33 27-57 70-57z"/><glyph glyph-name="afii10066" unicode="б" horiz-adv-x="650" d="M299-13C135-13 45 93 45 248c0 175 75 395 292 433l281 49 14-120-295-56c-104-20-143-82-156-133 27 32 98 86 202 86 128 0 227-81 227-218 0-165-141-302-311-302zm6 131c82 0 155 75 155 163 0 68-44 116-116 116-84 0-153-75-153-164 0-65 41-115 114-115z"/><glyph glyph-name="afii10067" unicode="в" horiz-adv-x="598" d="M-3 0l143 536h249c132 0 184-60 184-130s-50-119-126-137c49-15 87-52 87-108C534 69 455 0 298 0H-3zm181 108h104c62 0 100 27 100 68 0 33-30 51-79 51h-93zm57 211h88c63 0 99 25 99 65 0 31-24 48-74 48h-83z"/><glyph glyph-name="afii10068" unicode="г" horiz-adv-x="464" d="M-3 0l143 536h383l-33-126H259L149 0H-3z"/><glyph glyph-name="afii10069" unicode="д" horiz-adv-x="650" d="M-80-119l64 245h52c58 75 111 174 156 357l13 53h433L528 126h76l-81-245H395L428 0H95L52-119H-80zm275 245h182l77 285H316l-11-43c-21-83-75-198-110-242z"/><glyph glyph-name="afii10070" unicode="е" horiz-adv-x="607" d="M289-12C135-12 41 78 41 226c0 155 126 320 318 320 139 0 219-90 219-209 0-38-10-81-27-122H184c5-63 42-105 122-105 40 0 75 12 119 43l70-94c-48-40-115-71-206-71zm-92 322h233c3 10 5 22 5 35 0 44-26 79-88 79-69 0-125-46-150-114z"/><glyph glyph-name="afii10072" unicode="ж" horiz-adv-x="897" d="M-68 0l293 329-120 207h156l125-236 63 236h151l-63-236 249 236h174L710 309 820 0H665l-78 208-98-86L457 0H307l34 131-46 77L115 0H-68z"/><glyph glyph-name="afii10073" unicode="з" horiz-adv-x="522" d="M208-12C108-12 37 12-24 66l76 99c44-35 94-58 154-58 63 0 104 20 104 62 0 28-22 50-85 50h-68l25 101h61c59 0 91 31 91 66 0 25-25 43-73 43-50 0-116-21-158-53l-50 88c63 49 145 83 240 83 127 0 195-58 195-131 0-75-55-116-109-138 48-18 82-53 82-107 0-102-78-183-253-183z"/><glyph glyph-name="afii10074" unicode="и" horiz-adv-x="642" d="M-3 0l143 536h146l-86-322 305 322h140L502 0H356l85 322L137 0H-3z"/><glyph glyph-name="afii10075" unicode="й" horiz-adv-x="642" d="M405 588c-85 0-141 52-142 139l84 15c7-38 24-62 64-62s67 24 84 62l81-15c-26-87-86-139-171-139zM-3 0l143 536h146l-86-322 305 322h140L502 0H356l85 322L137 0H-3z"/><glyph glyph-name="afii10076" unicode="к" horiz-adv-x="588" d="M-2 0l143 536h151l-60-223 238 223h185L398 307 515 0H353l-78 203-94-81L149 0H-2z"/><glyph glyph-name="afii10077" unicode="л" horiz-adv-x="635" d="M18-7C-1-7-44-2-61 5l38 117c16-3 25-4 32-4 51 0 89 15 174 332l23 86h432L495 0H345l110 411H313l-15-52C200 6 127-7 18-7z"/><glyph glyph-name="afii10078" unicode="м" horiz-adv-x="737" d="M-3 0l143 536h134l95-218 203 218h168L597 0H446l86 322-209-211-93 209L145 0H-3z"/><glyph glyph-name="afii10079" unicode="н" horiz-adv-x="631" d="M-3 0l143 536h152l-54-202h190l55 202h151L491 0H340l55 208H204L149 0H-3z"/><glyph glyph-name="afii10080" unicode="о" horiz-adv-x="652" d="M300-12C141-12 42 93 42 236c0 160 138 310 310 310 159 0 258-105 258-248 0-160-138-310-310-310zm7 130c93 0 154 100 154 176 0 78-47 122-116 122-93 0-154-100-154-176 0-78 47-122 116-122z"/><glyph glyph-name="afii10081" unicode="п" horiz-adv-x="626" d="M-3 0l143 536h489L486 0H335l110 410H258L148 0H-3z"/><glyph glyph-name="afii10082" unicode="р" horiz-adv-x="674" d="M-46-160l186 696h152l-16-58c46 43 91 68 151 68 117 0 206-85 206-230 0-190-145-326-296-326-84 0-133 35-168 88l-63-238H-46zm363 278c82 0 159 80 159 188 0 70-44 112-112 112-84 0-162-84-162-186 0-68 48-114 115-114z"/><glyph glyph-name="afii10083" unicode="с" horiz-adv-x="552" d="M292-12C146-12 42 84 42 230c0 175 145 316 316 316 118 0 183-54 220-118l-116-82c-27 41-56 70-116 70-80 0-154-87-154-186 0-69 46-113 105-113 47 0 81 19 121 53l78-99c-56-50-113-83-204-83z"/><glyph glyph-name="afii10084" unicode="т" horiz-adv-x="513" d="M114 0l110 410H52l33 126h485l-33-126H374L264 0H114z"/><glyph glyph-name="afii10085" unicode="у" horiz-adv-x="592" d="M85-163c-55 0-92 14-125 37L41-16c16-12 39-21 59-21 23 0 38 6 59 33L93 536h155l25-364 201 364h164L306-13C236-122 176-163 85-163z"/><glyph glyph-name="afii10086" unicode="ф" horiz-adv-x="909" d="M271-160l50 191c-34-23-74-41-122-41-98 0-157 68-157 201 0 159 93 351 284 351 52 0 91-23 119-50l64 238h150l-63-233c36 25 74 45 124 45 98 0 157-71 157-204 0-159-94-348-283-348-54 0-93 20-121 45l-52-195H271zm3 274c26 0 52 9 77 25l68 255c-19 16-46 25-73 25-94 0-150-103-150-211 0-52 23-94 78-94zm299 0c93 0 150 97 150 208 0 53-24 97-78 97-27 0-52-9-76-25l-69-255c19-17 46-25 73-25z"/><glyph glyph-name="afii10087" unicode="х" horiz-adv-x="578" d="M-50 0l262 280L95 536h162l60-150 126 150h181L373 265 491 0H329l-62 159L131 0H-50z"/><glyph glyph-name="afii10088" unicode="ц" horiz-adv-x="641" d="M385-119L418 0H-3l143 536h152L182 126h185l110 410h152L519 126h75l-81-245H385z"/><glyph glyph-name="afii10089" unicode="ч" horiz-adv-x="584" d="M303 0l49 191c-39-17-108-32-154-32-90 0-144 53-144 132 0 16 3 34 8 53l52 192h151l-43-164c-3-12-7-25-7-38 0-29 16-51 55-51s82 10 116 31l59 222h151L453 0H303z"/><glyph glyph-name="afii10090" unicode="ш" horiz-adv-x="906" d="M-3 0l143 536h151L181 126h158l110 410h151L490 126h158l110 410h151L766 0H-3z"/><glyph glyph-name="afii10091" unicode="щ" horiz-adv-x="921" d="M665-119L698 0H-3l143 536h151L181 126h158l110 410h151L490 126h158l110 410h151L799 126h75l-81-245H665z"/><glyph glyph-name="afii10092" unicode="ъ" horiz-adv-x="642" d="M79 0l110 410H50c11 41 21 85 33 126h290l-49-184h90c120 0 190-62 190-148C604 73 498 0 349 0H79zm181 115h80c67 0 115 26 115 80 0 33-30 53-73 53h-86z"/><glyph glyph-name="afii10093" unicode="ы" horiz-adv-x="819" d="M-3 0l143 536h152l-49-184h80c120 0 190-62 190-148C513 73 407 0 258 0H-3zm182 115h70c67 0 115 26 115 80 0 33-30 53-73 53h-76zM528 0l143 536h151L679 0H528z"/><glyph glyph-name="afii10094" unicode="ь" horiz-adv-x="561" d="M-3 0l143 536h152l-49-184h90c120 0 190-62 190-148C523 73 417 0 268 0H-3zm182 115h80c67 0 115 26 115 80 0 33-30 53-73 53h-86z"/><glyph glyph-name="afii10095" unicode="э" horiz-adv-x="560" d="M211-12C89-12 15 49-20 120l115 71c22-45 57-79 116-79 66 0 123 46 148 109H181l24 99h166c-8 68-56 102-110 102-46 0-86-17-122-53l-85 89c53 55 124 89 220 89 136 0 244-104 244-249 0-177-139-310-307-310z"/><glyph glyph-name="afii10096" unicode="ю" horiz-adv-x="879" d="M538-12c-147 0-230 92-242 218h-92L149 0H-3l143 536h151l-55-207h75c41 120 148 218 288 218 157 0 238-107 238-244 0-165-121-315-299-315zm6 130c91 0 147 88 147 179 0 73-35 120-104 120-91 0-148-93-148-182 0-74 36-117 105-117z"/><glyph glyph-name="afii10097" unicode="я" horiz-adv-x="601" d="M-34 0l181 193c-55 22-83 75-83 132 0 128 105 211 262 211h278L461 0H310l44 162h-57L148 0H-34zm331 272h87l39 144h-84c-78 0-122-32-122-86 0-41 33-58 80-58z"/><glyph glyph-name="afii10071" unicode="ё" horiz-adv-x="607" d="M289-12C135-12 41 78 41 226c0 155 126 320 318 320 139 0 219-90 219-209 0-38-10-81-27-122H184c5-63 42-105 122-105 40 0 75 12 119 43l70-94c-48-40-115-71-206-71zm-92 322h233c3 10 5 22 5 35 0 44-26 79-88 79-69 0-125-46-150-114zm212 285l37 135h146l-37-135H409zm-214 0l37 135h146l-37-135H195z"/><glyph glyph-name="afii10099" unicode="ђ" horiz-adv-x="622" d="M309-12c-39 0-82 6-102 14l43 123c11-4 29-7 53-7 56 0 85 51 105 128 5 17 7 34 7 51 0 48-21 89-74 89-60 0-99-43-116-107L149 0H-3l146 552H75l28 105h68l20 73h152l-19-73h175l-28-105H296l-24-94c38 34 86 66 146 66 107 0 161-77 161-170 0-61-26-139-44-200C500 32 410-12 309-12z"/><glyph glyph-name="afii10100" unicode="ѓ" horiz-adv-x="464" d="M-3 0l143 536h383l-33-126H259L149 0H-3zm231 595l161 177 128-57-161-120H228z"/><glyph glyph-name="afii10101" unicode="є" horiz-adv-x="562" d="M287-12C150-12 42 82 42 227c0 178 139 320 308 320 118 0 189-61 225-131l-111-67c-21 44-58 73-115 73-65 0-121-44-146-104h183l-24-99H187c8-72 55-106 112-106 50 0 92 20 129 56l85-87c-53-56-126-94-226-94z"/><glyph glyph-name="afii10102" unicode="ѕ" d="M217-12C136-12 39 19-24 85l88 91c56-56 116-72 164-72 40 0 64 17 64 47 0 20-25 34-62 50-84 36-156 71-156 157 0 107 82 188 215 188 87 0 167-38 211-77l-82-96c-52 41-96 57-140 57-37 0-59-17-59-45 0-21 26-36 71-56 70-31 147-68 147-152 0-117-92-189-220-189z"/><glyph glyph-name="afii10103" unicode="і" horiz-adv-x="302" d="M159 595l37 135h160l-37-135H159zM3 0l144 536h152L155 0H3z"/><glyph glyph-name="afii10104" unicode="ї" horiz-adv-x="302" d="M262 595l37 135h146l-37-135H262zm-214 0l37 135h146l-37-135H48zM3 0l144 536h152L155 0H3z"/><glyph glyph-name="afii10105" unicode="ј" horiz-adv-x="301" d="M-46-163c-34 0-60 3-83 8l32 119c12-3 22-5 37-5 33 0 60 27 72 73l135 504h152L159 13C123-120 47-163-46-163zm205 758l36 135h160l-36-135H159z"/><glyph glyph-name="afii10106" unicode="љ" horiz-adv-x="907" d="M18-7C-1-7-44-2-61 5l38 117c16-3 25-4 32-4 51 0 89 15 174 332l23 86h432l-49-184h90c120 0 190-62 190-148C869 73 763 0 614 0H345l110 411H313l-15-52C200 6 127-7 18-7zm507 122h80c67 0 115 26 115 80 0 33-30 53-73 53h-86z"/><glyph glyph-name="afii10107" unicode="њ" horiz-adv-x="903" d="M-3 0l143 536h152l-51-194h190l52 194h150l-51-194h91c119 0 192-57 192-144C865 70 758 0 610 0H340l58 216H207L149 0H-3zm523 117h79c68 0 117 22 117 73 0 34-34 52-78 52h-83z"/><glyph glyph-name="afii10108" unicode="ћ" horiz-adv-x="622" d="M-3 0l146 552H75l28 105h68l20 73h152l-19-73h175l-28-105H296l-24-94c38 34 86 66 146 66 96 0 158-59 158-156 0-30-9-68-18-102L486 0H334l74 272c4 15 7 35 7 48 0 43-27 66-74 66-60 0-99-43-116-107L149 0H-3z"/><glyph glyph-name="afii10109" unicode="ќ" horiz-adv-x="588" d="M-2 0l143 536h151l-60-223 238 223h185L398 307 515 0H353l-78 203-94-81L149 0H-2zm292 595l161 177 128-57-161-120H290z"/><glyph glyph-name="afii10110" unicode="ў" horiz-adv-x="592" d="M85-163c-55 0-92 14-125 37L41-16c16-12 39-21 59-21 23 0 38 6 59 33L93 536h155l25-364 201 364h164L306-13C236-122 176-163 85-163zm278 751c-85 0-141 52-142 139l84 15c7-38 24-62 64-62s67 24 84 62l81-15c-26-87-86-139-171-139z"/><glyph glyph-name="afii10193" unicode="џ" horiz-adv-x="620" d="M137-119L169 0H-3l143 536h152L183 126h184l110 410h151L486 0H313l-33-119H137z"/><glyph glyph-name="afii10050" unicode="Ґ" horiz-adv-x="576" d="M13 0l187 700h326l39 146h130l-56-282H318L166 0H13z"/><glyph glyph-name="afii10098" unicode="ґ" horiz-adv-x="464" d="M-3 0l143 536h239l32 116h127l-48-242H259L149 0H-3z"/><glyph glyph-name="endash" unicode="–" horiz-adv-x="531" d="M44 239l38 142h428l-38-142H44z"/><glyph glyph-name="emdash" unicode="—" horiz-adv-x="901" d="M44 239l38 142h798l-38-142H44z"/><glyph glyph-name="quoteleft" unicode="‘" horiz-adv-x="319" d="M93 384l36 135c35 132 108 184 227 187l10-63c-82-7-120-42-130-99h62l-43-160H93z"/><glyph glyph-name="quoteright" unicode="’" horiz-adv-x="319" d="M87 378l-10 63c82 7 120 42 130 99h-62l43 160h162l-36-135C279 433 206 381 87 378z"/><glyph glyph-name="quotesinglbase" unicode="‚" horiz-adv-x="319" d="M-51-162l-10 63C21-92 59-57 69 0H7l43 160h162L176 25C141-107 68-159-51-162z"/><glyph glyph-name="quotedblleft" unicode="“" horiz-adv-x="573" d="M348 383l36 135c35 132 108 184 227 187l10-63c-82-7-120-42-130-99h62l-43-160H348zm-254 0l36 135c35 132 108 184 227 187l10-63c-82-7-120-42-130-99h62l-43-160H94z"/><glyph glyph-name="quotedblright" unicode="”" horiz-adv-x="573" d="M342 378l-10 63c82 7 120 42 130 99h-62l43 160h162l-36-135c-35-132-108-184-227-187zm-254 0l-10 63c82 7 120 42 130 99h-62l43 160h162l-36-135C280 433 207 381 88 378z"/><glyph glyph-name="quotedblbase" unicode="„" horiz-adv-x="573" d="M203-162l-10 63c82 7 120 42 130 99h-62l43 160h162L430 25c-35-132-108-184-227-187zm-254 0l-10 63C21-92 59-57 69 0H7l43 160h162L176 25C141-107 68-159-51-162z"/><glyph glyph-name="dagger" unicode="†" horiz-adv-x="412" d="M156 238l82 270-123-10 23 83 116-10 22 129h92l-48-129 122 10-23-83-117 10-62-270h-84z"/><glyph glyph-name="daggerdbl" unicode="‡" horiz-adv-x="412" d="M88 0l48 129-122-10 22 83 116-10 34 158 51 158-122-10 23 83 116-10 22 129h92l-48-129 122 10-23-83-116 10-33-158-52-158 122 10-22-83-116 10L180 0H88z"/><glyph glyph-name="bullet" unicode="•" d="M246 200c-73 0-116 46-116 116 0 91 68 190 168 190 73 0 116-46 116-116 0-91-68-190-168-190z"/><glyph glyph-name="ellipsis" unicode="…" horiz-adv-x="872" d="M565 0l42 156h158L723 0H565zM286 0l42 156h158L444 0H286zM7 0l42 156h158L165 0H7z"/><glyph glyph-name="perthousand" unicode="‰" horiz-adv-x="1288" d="M238 346c-93 0-154 63-154 154 0 103 78 208 194 208 93 0 154-63 154-154 0-103-78-208-194-208zM60 0l673 700h130L190 0H60zm993-8c-93 0-154 63-154 154 0 103 78 208 194 208 93 0 154-63 154-154 0-103-78-208-194-208zM645-8c-93 0-154 63-154 154 0 103 78 208 194 208 93 0 154-63 154-154C839 97 761-8 645-8zM244 433c55 0 90 64 90 117 0 44-24 71-62 71-55 0-90-64-90-117 0-44 24-71 62-71zm815-354c55 0 90 64 90 117 0 44-24 71-62 71-55 0-90-64-90-117 0-44 24-71 62-71zm-408 0c55 0 90 64 90 117 0 44-24 71-62 71-55 0-90-64-90-117 0-44 24-71 62-71z"/><glyph glyph-name="guilsinglleft" unicode="‹" horiz-adv-x="373" d="M154 31L46 255l2 8 237 233 87-80-176-171 80-160z"/><glyph glyph-name="guilsinglright" unicode="›" horiz-adv-x="373" d="M86 31l-87 80 176 171-80 160 122 54 108-224-2-8z"/><glyph glyph-name="fraction" unicode="⁄" horiz-adv-x="520" d="M-138-98l695 856h134L-4-98h-134z"/><glyph glyph-name="Euro" unicode="€" horiz-adv-x="720" d="M396-12c-152 0-254 89-272 229H24l27 101h75c3 24 7 46 13 68H69l27 101h73c58 131 173 225 327 225 143 0 218-64 253-163l-131-65c-28 58-59 89-130 89-64 0-113-31-147-86h193l-27-101H303c-8-22-13-45-17-68h203l-27-101H285c13-60 58-90 114-90 58 0 96 22 141 70l104-90C585 36 503-12 396-12z"/><glyph glyph-name="afii61352" unicode="№" horiz-adv-x="1057" d="M12 0l187 700h145l152-423 113 423h155L577 0H443L283 437 166 0H12zm691 128l25 95h277l-25-95H703zm194 150c-83 0-133 59-133 134 0 98 78 183 176 183 83 0 132-60 132-133 0-99-78-184-175-184zm11 82c39 0 72 40 72 91 0 35-20 62-52 62-38 0-72-40-72-90 0-37 21-63 52-63z"/><glyph glyph-name="published" unicode="℗" horiz-adv-x="830" d="M435-12C232-12 74 151 74 349s160 363 363 363 361-163 361-361S638-12 435-12zm0 40c183 0 321 145 321 323S619 672 437 672c-183 0-321-145-321-323S253 28 435 28zM303 164v385h158c92 0 148-54 148-134 0-89-70-135-156-135h-64V164h-86zm86 191h66c42 0 67 25 67 59 0 38-27 59-69 59h-64V355z"/><glyph glyph-name="trademark" unicode="™" horiz-adv-x="700" d="M365 392l83 308h70l46-130 116 130h76l-83-308h-66l56 208-121-135h-6l-49 135-56-208h-66zm-227 0l66 246h-92l17 62h254l-17-62h-92l-66-246h-70z"/><glyph glyph-name="partialdiff" unicode="∂" d="M0 0v700h500V0H0zm81 49h340L250 304zM50 95l170 254L50 605V95zm401 0v510L279 349zM250 395l171 255H81z"/><glyph glyph-name="Delta" unicode="∆" horiz-adv-x="768" d="M-53 0l480 701h143L676 0H-53zm262 136h289l-42 379z"/><glyph glyph-name="product" unicode="∏" d="M0 0v700h500V0H0zm81 49h340L250 304zM50 95l170 254L50 605V95zm401 0v510L279 349zM250 395l171 255H81z"/><glyph glyph-name="summation" unicode="∑" d="M0 0v700h500V0H0zm81 49h340L250 304zM50 95l170 254L50 605V95zm401 0v510L279 349zM250 395l171 255H81z"/><glyph glyph-name="minus" unicode="−" horiz-adv-x="640" d="M88 285l36 135h481l-37-135H88z"/><glyph glyph-name="radical" unicode="√" horiz-adv-x="564" d="M657 794L243-151h-19L78 197l-89-6-3 96 153 12 90-230 317 725h111z"/><glyph glyph-name="infinity" unicode="∞" horiz-adv-x="842" d="M261 158c-116 0-187 85-187 197 0 111 67 194 182 194 90 0 143-58 195-122 53 65 102 122 194 122 115 0 184-82 184-194 0-111-67-197-183-197-84 0-144 53-195 114-51-61-106-114-190-114zm-2 113c51 0 96 43 126 81-30 34-79 85-128 85-47 0-75-40-75-84 0-47 28-82 77-82zm386 0c49 0 75 36 75 82 0 47-29 84-78 84-50 0-96-50-125-85 32-38 74-81 128-81z"/><glyph glyph-name="integral" unicode="∫" d="M0 0v700h500V0H0zm81 49h340L250 304zM50 95l170 254L50 605V95zm401 0v510L279 349zM250 395l171 255H81z"/><glyph glyph-name="approxequal" unicode="≈" horiz-adv-x="640" d="M664 541c-31-80-100-173-191-173-76 0-183 63-237 63-33 0-68-31-85-62l-77 19c32 80 103 174 193 174 79 0 171-64 234-64 35 0 69 30 87 61zm-60-226c-32-79-101-173-192-173-76 0-182 64-236 64-32 0-68-31-86-62l-77 18c32 80 103 174 192 174 81 0 172-63 235-63 35 0 69 29 87 60z"/><glyph glyph-name="notequal" unicode="≠" horiz-adv-x="640" d="M118 412l37 135h270l108 139 96-55-66-84h73l-37-135H461l-95-122h201l-36-134H263L158 19 62 74l62 82H49l37 134h141l96 122H118z"/><glyph glyph-name="lessequal" unicode="≤" horiz-adv-x="640" d="M534 145L90 320l37 143 539 175-38-148-384-103 328-104zM493-10H0l34 126h493z"/><glyph glyph-name="greaterequal" unicode="≥" horiz-adv-x="640" d="M591 320L53 145l38 151 384 103-328 103 38 136 444-175zM503-10H10l34 126h493z"/><glyph glyph-name="lozenge" unicode="◊" horiz-adv-x="640" d="M587 356L399-35H282C219 95 158 226 95 356l188 391h116zm-131 0L341 616c-38-87-76-174-115-260 39-87 77-174 115-261z"/><glyph glyph-name="cyrBreve" unicode="" d="M358 588c-89 0-149 54-151 142l90 16c7-39 25-64 66-64 42 0 70 25 88 64l86-16c-26-88-90-142-179-142z"/><glyph glyph-name="cyrbreve" unicode="" d="M356 588c-85 0-141 52-142 139l84 15c7-38 24-62 64-62s67 24 84 62l81-15c-26-87-86-139-171-139z"/><glyph glyph-name="uniF8FF" unicode="" d="M0 0v700h500V0H0zm81 49h340L250 304zM50 95l170 254L50 605V95zm401 0v510L279 349zM250 395l171 255H81z"/><glyph glyph-name="ff" unicode="ﬀ" horiz-adv-x="822" d="M434 0l110 406h-64l35 130h63l7 29c29 119 105 172 217 172 43 0 79-6 104-15l-33-126c-20 8-45 13-66 13-40 0-65-20-75-58l-4-15h129l-35-130H696L586 0H434zM23 0l110 406H69l35 130h63l7 29c31 119 105 172 217 172 43 0 79-6 104-15l-33-126c-20 8-45 13-66 13-40 0-64-19-75-58l-4-15h129l-35-130H285L175 0H23z"/><glyph glyph-name="apple" d="M0 0v700h500V0H0zm81 49h340L250 304zM50 95l170 254L50 605V95zm401 0v510L279 349zM250 395l171 255H81z"/></font>
</defs>
</svg>
