<svg width="21" height="25" viewBox="0 0 21 25" fill="none" xmlns="http://www.w3.org/2000/svg"><path fill-rule="evenodd" clip-rule="evenodd" d="M20.711 17.714c-.558 1.236-.825 1.789-1.544 2.882-1.002 1.526-2.416 3.426-4.167 3.442-1.556.015-1.955-1.012-4.068-1-2.111.011-2.552 1.02-4.109 1.004-1.75-.016-3.09-1.732-4.093-3.258-2.804-4.267-3.097-9.276-1.368-11.938 1.23-1.892 3.168-3 4.99-3 1.857 0 3.024 1.018 4.559 1.018 1.489 0 2.396-1.019 4.541-1.019 1.622 0 3.34.883 4.565 2.41-4.012 2.198-3.36 7.928.694 9.46zM13.824 4.14c.78-1 1.372-2.414 1.157-3.857-1.274.088-2.763.897-3.633 1.954-.79.958-1.441 2.38-1.188 3.763 1.391.042 2.83-.788 3.664-1.86z" fill="#000"/></svg>