<svg width="40" height="40" viewBox="0 0 40 40" fill="none" xmlns="http://www.w3.org/2000/svg"><path d="M24.223 8.571L17.27 1.619a2.109 2.109 0 00-2.985 0L7.334 8.571" stroke="#1AB57A" stroke-width="2" stroke-miterlimit="10" stroke-linecap="round" stroke-linejoin="round"/><path d="M20 4.349l2.73-2.73a2.109 2.109 0 012.985 0l6.952 6.952" stroke="#1AB57A" stroke-width="2" stroke-miterlimit="10" stroke-linecap="round" stroke-linejoin="round"/><path d="M31.438 27.57h7.56v-8.444h-7.56a2.995 2.995 0 00-2.996 2.996v2.453a2.995 2.995 0 002.996 2.996z" stroke="#fff" stroke-width="2" stroke-miterlimit="10" stroke-linecap="round" stroke-linejoin="round"/><path d="M34.778 38.127H5.222A4.221 4.221 0 011 33.904v-21.11A4.221 4.221 0 015.222 8.57h29.556A4.221 4.221 0 0139 12.793v21.111a4.221 4.221 0 01-4.222 4.222z" stroke="#fff" stroke-width="2" stroke-miterlimit="10" stroke-linecap="round" stroke-linejoin="round"/></svg>