<svg xmlns="http://www.w3.org/2000/svg" viewBox="0 0 36 36"><path fill="#0288d1" d="M36,31a5,5,0,0,1-5,5H5a5,5,0,0,1-5-5V5A5,5,0,0,1,5,0H31a5,5,0,0,1,5,5Z"/><path fill="#fff" d="M27.19,21.36a11.66,11.66,0,0,1,2.58,3c.86,1.45-1,1.56-1,1.56l-3.47,0a2.45,2.45,0,0,1-1.73-.53c-1.3-.9-3.08-3.24-4-2.94s-.66,2.76-.66,2.76A.7.7,0,0,1,18,26H17a10,10,0,0,1-6.73-3.16c-3.29-3.47-6-9.94-6-9.94s-.17-.41,0-.63S5,12,5,12H8.71a1.48,1.48,0,0,1,.6.24,1.14,1.14,0,0,1,.32.44,19.48,19.48,0,0,0,1.24,2.59c1.55,2.71,2.27,3.31,2.8,3,.77-.42.54-3.83.54-3.83a3.83,3.83,0,0,0-.39-1.79,1.75,1.75,0,0,0-1.15-.59c-.21,0,.13-.52.58-.74A8.4,8.4,0,0,1,16.5,11c1.09,0,1.5,0,1.5,0,1.28.31.85,1.52.85,4.42,0,.93-.17,2.23.5,2.66.29.19,1.31.22,3-2.77.83-1.42,1.48-2.75,1.48-2.75a.86.86,0,0,1,.85-.56l3.91,0s1.18-.15,1.37.39-.48,1.55-2.08,3.7C25.3,19.65,25,19.32,27.19,21.36Z"/></svg>