<?xml version="1.0" encoding="utf-8"?><svg xmlns="http://www.w3.org/2000/svg" width="13" height="22" viewBox="0 0 13 22"><path d="M10.548 21.5a1.11 1.11 0 01-.678-.216l-.14-.121-9.345-9.344A1.05 1.05 0 010 11c0-.268.09-.502.268-.702L9.729.838c.225-.226.498-.338.82-.338.256 0 .482.072.677.216l.141.121 1.06 1.06c.224.225.345.497.36.819.014.256-.05.483-.192.678l-.12.14L5.009 11l7.466 7.466c.225.224.329.497.313.818a1.206 1.206 0 01-.24.679l-.121.14-1.06 1.06a1.115 1.115 0 01-.819.337z" fill="currentColor" fill-rule="evenodd"/></svg>