<?xml version="1.0" encoding="utf-8"?><svg xmlns="http://www.w3.org/2000/svg" width="16" height="16" viewBox="0 0 16 16"><g fill="none" fill-rule="evenodd"><path d="M0 0h16v16H0z"/><path fill="currentColor" d="M14.5 4.25a.49.49 0 00.36-.14.49.49 0 00.14-.36V2.5a.49.49 0 00-.14-.36.49.49 0 00-.36-.14h-13a.49.49 0 00-.36.14.49.49 0 00-.14.36v1.25a.49.49 0 00.14.36.49.49 0 00.36.14h13zm0 5a.49.49 0 00.36-.14.49.49 0 00.14-.36V7.5a.49.49 0 00-.14-.36.49.49 0 00-.36-.14h-13a.49.49 0 00-.36.14.49.49 0 00-.14.36v1.25a.49.49 0 00.14.36.49.49 0 00.36.14h13zm0 5a.49.49 0 00.36-.14.49.49 0 00.14-.36V12.5a.49.49 0 00-.14-.36.49.49 0 00-.36-.14h-13a.49.49 0 00-.36.14.49.49 0 00-.14.36v1.25a.49.49 0 00.14.36.49.49 0 00.36.14h13z"/></g></svg>