<?xml version="1.0" encoding="utf-8"?><svg xmlns="http://www.w3.org/2000/svg" width="16" height="16" viewBox="0 0 16 16"><g fill="none" fill-rule="evenodd"><path d="M0 0h16v16H0z"/><path fill="currentColor" d="M8.027 13.875a.869.869 0 00.63-.273l5.277-5.47c.783-.783 1.148-1.74 1.093-2.87-.054-1.13-.51-2.06-1.367-2.79a3.399 3.399 0 00-2.584-.833 3.835 3.835 0 00-2.502 1.19l-.547.546-.547-.547a3.847 3.847 0 00-2.501-1.19 3.399 3.399 0 00-2.584.835c-.857.729-1.313 1.659-1.368 2.789-.054 1.13.31 2.087 1.094 2.87l5.277 5.47a.867.867 0 00.63.273z"/></g></svg>