<?xml version="1.0" encoding="utf-8"?><svg xmlns="http://www.w3.org/2000/svg" width="12" height="12" viewBox="0 0 12 12"><path d="M10.127 12c.312 0 .578-.11.797-.328.219-.219.328-.485.328-.797v-3.75c0-.313-.11-.578-.328-.797A1.085 1.085 0 0010.127 6H4.314V3.586c0-.469.164-.871.493-1.207a1.58 1.58 0 011.171-.504c.47 0 .872.164 1.207.492.336.328.504.727.504 1.196v.375c0 .156.055.289.164.398.11.11.243.164.399.164h.75a.543.543 0 00.398-.164.541.541 0 00.164-.399v-.375c0-.984-.351-1.824-1.054-2.519C7.807.348 6.967 0 5.99 0c-.976 0-1.812.352-2.508 1.055-.695.703-1.043 1.554-1.043 2.554V6h-.562c-.313 0-.578.11-.797.328a1.085 1.085 0 00-.328.797v3.75c0 .313.11.578.328.797.219.219.484.328.797.328h8.25z" fill="currentColor" fill-rule="evenodd"/></svg>