<?xml version="1.0" encoding="utf-8"?><svg height="512" viewBox="0 0 512.023 512.023" width="512" xmlns="http://www.w3.org/2000/svg"><path d="M442.12 350.283v154.225H132.931a22.372 22.372 0 01-17.277-8.121 22.346 22.346 0 01-5.177-14.333v-309.85h153.962l28.364 26.024 138.241 126.858a34.198 34.198 0 0111.076 25.197z" fill="#ff8086"/><path d="M431.044 325.086L292.803 198.228l-28.364-26.024H233.87l28.364 26.024 138.241 126.858a34.198 34.198 0 0111.076 25.197v154.225h30.569V350.283c0-9.58-4.018-18.72-11.076-25.197z" fill="#e5646e"/><path d="M56.637 119.853l-40.263-3.871V14.502c0-6.475 8.051-9.46 12.272-4.55l61.666 71.722z" fill="#b8daff"/><path d="M22.512 37.105l52.113 62.354 15.687-17.786L28.646 9.951c-4.221-4.91-12.272-1.924-12.272 4.55v20.236c2.152-.279 4.45.404 6.138 2.368z" fill="#a4ccff"/><path d="M253.124 119.853l40.263-3.871V14.502c0-6.475-8.051-9.46-12.272-4.55l-61.666 71.722z" fill="#b8daff"/><path d="M281.115 9.951l-26.945 31.34c4.064-.982 8.648 1.912 8.648 6.798v67.893l-12.084 1.162 2.39 2.71 40.263-3.871V14.502c.001-6.475-8.051-9.46-12.272-4.551z" fill="#a4ccff"/><path d="M292.803 198.228L115.654 496.387a22.346 22.346 0 01-5.177-14.333v-309.85h153.962z" fill="#edf4ff"/><path d="M264.439 172.204H233.87l28.364 26.024-151.757 255.421v28.405a22.34 22.34 0 005.177 14.333l177.149-298.159z" fill="#dbeaff"/><path d="M482.727 396.565L363.554 504.504h87.613a24.5 24.5 0 0023.766-18.549l20.48-81.784c1.857-7.413-7.022-12.736-12.686-7.606z" fill="#edf4ff"/><path d="M482.727 396.565l-24.774 22.439c1.477 1.739 2.213 4.142 1.542 6.823l-15.132 60.129a24.5 24.5 0 01-23.766 18.549h30.569a24.499 24.499 0 0023.766-18.549l20.48-81.784c1.858-7.414-7.021-12.737-12.685-7.607z" fill="#dbeaff"/><path d="M293.385 115.984v81.341l-81.07 61.754-45.798 34.895a19.209 19.209 0 01-23.284 0l-45.798-34.895-73.193-55.761a19.964 19.964 0 01-7.866-15.882v-71.452l73.936-34.309H219.45z" fill="#ff8086"/><path d="M219.449 81.675H188.88l73.936 34.309v81.341l-81.07 61.754-42.156 32.119 3.643 2.775a19.209 19.209 0 0023.284 0l45.798-34.895 81.07-61.754v-81.341z" fill="#e5646e"/><path d="M212.316 259.079l-45.798 34.895a19.209 19.209 0 01-23.284 0l-45.798-34.895 42.719-32.541a24.294 24.294 0 0129.442 0z" fill="#8bb3ea"/><path d="M169.596 226.538a24.294 24.294 0 00-29.442 0l-6.34 4.829c6.172-.783 12.579.789 17.786 4.755l30.146 22.956-35.438 27.019a19.164 19.164 0 01-8.576 3.684l5.501 4.192a19.209 19.209 0 0023.284 0l45.798-34.895z" fill="#739ad6"/><path d="M495.747 389.232c-5.793-3.475-13.05-2.761-18.055 1.774L360.658 497.008h-84.882l158.842-144.78v41.508a7.5 7.5 0 0015 0v-43.458c.056-10.186-4.583-22.72-13.499-30.716L300.886 195.47v-79.485a7.499 7.499 0 00-4.343-6.803l-64.94-30.135 54.286-63.142V78.63a7.5 7.5 0 0015 0V14.498c0-6.119-3.708-11.448-9.448-13.576-5.739-2.127-12.022-.504-16.009 4.136l-59.423 69.117H93.75L34.337 5.059C30.348.418 24.061-1.205 18.319.923s-9.45 7.457-9.45 13.575l.007 172.938c0 8.519 4.045 16.686 10.822 21.848l83.282 63.451v43.718a7.5 7.5 0 0015 0v-32.29l20.708 15.777c8.627 6.481 22.147 7.715 32.375 0l96.06-73.179-149.144 251.022V351.832a7.5 7.5 0 00-15 0v130.226c-.583 14.705 13.606 30.512 29.95 29.95l318.238-.004a31.956 31.956 0 0031.042-24.227l20.48-81.784c1.641-6.552-1.149-13.288-6.942-16.761zM78.157 79.047l-54.289 25.192V15.892zM23.875 187.435v-66.663l68.091-31.597h125.828l68.091 31.597v72.837l-73.567 56.044-38.178-29.082c-11.343-8.641-27.188-8.64-38.531 0l-38.176 29.08-68.646-52.3a12.533 12.533 0 01-4.912-9.916zm133.034 102.779c-2.204.193-4.586.708-9.131-2.206l-37.967-28.928 34.888-26.576c5.992-4.564 14.361-4.564 20.353 0l34.888 26.575-37.968 28.929a11.657 11.657 0 01-5.063 2.206zM125.263 494.89l169.268-284.895 131.446 120.618a26.538 26.538 0 014.378 5.205l-176.847 161.19H132.929a14.91 14.91 0 01-7.666-2.118zm362.875-92.541l-20.48 81.784a16.976 16.976 0 01-16.491 12.87h-68.16l104.755-94.88c.061-.056.103-.083.108-.092a.708.708 0 01.293.147.53.53 0 01-.025.171z"/></svg>