<?xml version="1.0" encoding="utf-8"?><svg xmlns="http://www.w3.org/2000/svg" width="24" height="24" viewBox="0 0 24 24"><g fill="none" fill-rule="evenodd"><path d="M0 0h24v24H0z"/><path fill="currentColor" d="M12.437 5.776c1.1.09 2.128-.431 3.08-1.562.803-.952 1.16-2.024 1.071-3.214-.535.03-1.086.193-1.651.491-.566.298-1.027.655-1.384 1.071-.863.953-1.235 2.024-1.116 3.214zm3.794 15.222c.952-.03 1.86-.64 2.723-1.83.863-1.19 1.473-2.35 1.83-3.482-1.815-.863-2.723-2.232-2.723-4.107-.03-1.636.715-2.901 2.232-3.794-.833-1.19-2.098-1.86-3.794-2.009-.357-.03-.751 0-1.183.09-.432.089-.81.2-1.138.334-.328.134-.648.253-.96.358-.313.104-.528.156-.647.156-.179 0-.685-.149-1.518-.447-.833-.297-1.473-.446-1.92-.446-1.368.03-2.566.565-3.593 1.607C4.513 8.47 4 9.928 4 11.803c0 1.16.208 2.366.625 3.615.238.655.573 1.384 1.004 2.188.432.803 1.012 1.577 1.741 2.32.73.745 1.421 1.102 2.076 1.072.327 0 .84-.134 1.54-.401.7-.268 1.302-.402 1.808-.402s1.101.134 1.785.402c.685.267 1.235.401 1.652.401z"/></g></svg>