<?xml version="1.0" encoding="utf-8"?><svg xmlns="http://www.w3.org/2000/svg" width="20" height="20" viewBox="0 0 20 20"><path d="M10.436 20c1.706-.005 2.93-.034 3.671-.09 1.816-.059 3.222-.587 4.219-1.584.997-.997 1.54-2.403 1.63-4.219.03-.803.044-2.172.044-4.107v-.436c-.002-1.706-.017-2.93-.045-3.671-.089-1.816-.632-3.222-1.63-4.219-.996-.997-2.402-1.54-4.218-1.63C13.304.015 11.935 0 10 0S6.696.015 5.893.045c-1.816.089-3.214.64-4.197 1.651C.714 2.679.179 4.062.089 5.848.03 6.682 0 8.065 0 10v.436c.005 1.706.034 2.93.09 3.671 0 .595.051 1.116.156 1.563.104.446.275.907.513 1.384.238.476.55.892.937 1.25.983.982 2.381 1.517 4.197 1.607.803.06 2.172.089 4.107.089h.436zm1.93-1.786H7.612c-.313 0-.73-.015-1.25-.044-.521-.03-.968-.075-1.34-.134a4.814 4.814 0 01-.915-.224c-.893-.357-1.533-.997-1.92-1.92a11.278 11.278 0 01-.312-1.763c-.03-.312-.052-.692-.067-1.138-.015-.446-.022-.81-.022-1.094V7.612c0-.313.015-.73.044-1.25.03-.521.075-.968.134-1.34.06-.372.134-.677.224-.915.357-.922.997-1.562 1.92-1.92.237-.089.542-.163.914-.223s.819-.104 1.34-.134c.52-.03.945-.044 1.272-.044h4.754c.313 0 .73.015 1.25.044.521.03.968.075 1.34.134.372.06.677.134.915.224.922.357 1.562.997 1.92 1.92.089.237.163.542.223.914s.104.819.134 1.34c.03.52.044.945.044 1.272v4.732c0 .327-.015.752-.044 1.272-.03.521-.075.968-.134 1.34-.06.372-.134.677-.224.915-.357.893-.997 1.533-1.92 1.92-.237.089-.542.163-.914.223s-.819.104-1.34.134c-.52.03-.945.044-1.272.044zm2.991-12.366c.328 0 .603-.119.826-.357.223-.238.335-.52.335-.848 0-.328-.12-.595-.357-.804a1.02 1.02 0 00-.804-.357 1.2 1.2 0 00-.848.335 1.086 1.086 0 00-.357.826c0 .327.119.61.357.848s.52.357.848.357zM10 15.134c1.429 0 2.641-.499 3.638-1.496.997-.997 1.496-2.21 1.496-3.638 0-1.429-.499-2.641-1.496-3.638-.997-.997-2.21-1.496-3.638-1.496-1.429 0-2.649.506-3.66 1.518-.983.982-1.474 2.187-1.474 3.616 0 1.429.499 2.641 1.496 3.638.997.997 2.21 1.496 3.638 1.496zm0-1.786c-.923 0-1.711-.327-2.366-.982S6.652 10.923 6.652 10s.327-1.711.982-2.366S9.077 6.652 10 6.652s1.711.327 2.366.982.982 1.443.982 2.366-.327 1.711-.982 2.366-1.443.982-2.366.982z" fill="currentColor" fill-rule="evenodd"/></svg>