<?xml version="1.0" encoding="utf-8"?><svg xmlns="http://www.w3.org/2000/svg" width="22" height="13" viewBox="0 0 22 13"><path d="M21.003 13c.731 0 1.002-.339.813-1.016a4.91 4.91 0 00-.427-.812 9.013 9.013 0 00-.69-.955 28.831 28.831 0 00-1.646-1.808 22.76 22.76 0 01-.63-.65l-.264-.284c-.162-.27-.243-.46-.243-.569 0-.108.08-.284.243-.528.027-.027.271-.386.732-1.076.46-.691.968-1.497 1.523-2.418.555-.92.873-1.584.955-1.99.162-.596-.081-.894-.732-.894h-2.396c-.488 0-.826.23-1.016.69l-.366.772c-.243.542-.609 1.22-1.097 2.032-.487.812-.988 1.503-1.503 2.072-.487.487-.86.73-1.117.73s-.386-.23-.386-.69V.894c0-.596-.216-.894-.65-.894H8.328A.655.655 0 007.8.284a.504.504 0 00-.081.285c0 .108.047.23.142.365.095.136.196.264.305.386.108.122.216.319.325.59.108.27.176.595.203.974v3.535c0 .352-.034.589-.102.71-.068.123-.183.184-.345.184-.433 0-1.063-.65-1.89-1.95-.825-1.3-1.523-2.777-2.091-4.429-.109-.352-.237-.595-.386-.73C3.73.067 3.507 0 3.21 0H.812C.27 0 0 .23 0 .69c0 .271.095.732.284 1.382.19.65.59 1.591 1.199 2.823a24.709 24.709 0 002.295 3.718c.975 1.408 2.113 2.491 3.413 3.25C8.49 12.62 9.777 13 11.05 13c.731 0 1.205-.074 1.422-.223.217-.15.325-.386.325-.711 0-.271-.014-.623-.04-1.057 0-.893.026-1.435.08-1.625.055-.19.244-.284.57-.284.514 0 1.313.515 2.396 1.544.271.27.542.555.813.853.27.298.474.528.609.69.135.163.284.312.447.447.162.136.311.23.447.285.135.054.298.081.487.081h2.397z" fill="currentColor" fill-rule="evenodd"/></svg>