<?xml version="1.0" encoding="utf-8"?><svg xmlns="http://www.w3.org/2000/svg" width="24" height="24" viewBox="0 0 24 24"><g fill="none" fill-rule="evenodd"><path d="M0 0h24v24H0z"/><path fill="currentColor" d="M10.664 15.984a1.89 1.89 0 102.674 2.671 1.89 1.89 0 00-2.674-2.671zm1.337-4.493a5.787 5.787 0 00-4.121 1.707 1.105 1.105 0 101.563 1.564 3.594 3.594 0 012.558-1.06 3.59 3.59 0 012.556 1.06 1.106 1.106 0 001.564-1.564 5.786 5.786 0 00-4.12-1.707zm0-3.642c-2.53 0-4.908.986-6.697 2.774a1.106 1.106 0 101.564 1.564A7.207 7.207 0 0112 10.06c1.938 0 3.761.755 5.132 2.126a1.104 1.104 0 001.564 0 1.108 1.108 0 000-1.564 9.41 9.41 0 00-6.695-2.774zm9.276.194A13.033 13.033 0 0012 4.2a13.03 13.03 0 00-9.277 3.843 1.106 1.106 0 101.564 1.564A10.84 10.84 0 0112 6.412c2.913 0 5.652 1.134 7.711 3.195a1.107 1.107 0 001.564-1.564z"/></g></svg>